<svg width="25" height="24" viewBox="0 0 25 24" fill="none" xmlns="http://www.w3.org/2000/svg">
    <path d="M10.6339 10.6756C11.8449 10.272 13.1541 10.272 14.3651 10.6756C14.5816 10.7478 14.7514 10.9176 14.8236 11.1341C15.2272 12.3451 15.2272 13.6543 14.8236 14.8653C14.7514 15.0817 14.5816 15.2516 14.3651 15.3237C13.1541 15.7274 11.8449 15.7274 10.6339 15.3237C10.4175 15.2516 10.2476 15.0817 10.1755 14.8653C9.77181 13.6543 9.77181 12.3451 10.1755 11.1341C10.2476 10.9176 10.4175 10.7478 10.6339 10.6756Z" fill="white"/>
    <path fill-rule="evenodd" clip-rule="evenodd" d="M7.25657 5.99968C5.62463 5.99968 4.19042 7.08152 3.74209 8.65067L3.70308 8.78718C2.91903 11.5314 2.98242 14.4484 3.88493 17.1559C4.26771 18.3043 5.21065 19.1775 6.38496 19.471L6.64284 19.5355C10.4881 20.4968 14.5109 20.4968 18.3562 19.5355L18.6141 19.471C19.7884 19.1775 20.7313 18.3043 21.1141 17.1559C22.0166 14.4484 22.08 11.5314 21.2959 8.78718L21.2569 8.65066C20.8086 7.08152 19.3744 5.99968 17.7424 5.99968H17.1796C16.7628 5.99968 16.3818 5.76421 16.1954 5.39143L15.7422 4.48496C15.5868 4.17424 15.3144 3.93797 14.9848 3.82811C13.3716 3.29037 11.6275 3.29037 10.0142 3.82811C9.68466 3.93797 9.41223 4.17424 9.25687 4.48496L8.80364 5.39143C8.61725 5.76421 8.23624 5.99968 7.81946 5.99968H7.25657ZM14.9976 8.77827C13.376 8.23777 11.623 8.23777 10.0015 8.77827C9.1878 9.04949 8.54932 9.68797 8.2781 10.5016C7.7376 12.1231 7.7376 13.8762 8.2781 15.4977C8.54932 16.3114 9.1878 16.9499 10.0015 17.2211C11.623 17.7616 13.376 17.7616 14.9976 17.2211C15.8112 16.9499 16.4497 16.3114 16.7209 15.4977C17.2614 13.8762 17.2614 12.1231 16.7209 10.5016C16.4497 9.68798 15.8112 9.04949 14.9976 8.77827Z" fill="white"/>
</svg>
