<svg width="27" height="28" viewBox="0 0 27 28" fill="none" xmlns="http://www.w3.org/2000/svg">
    <path d="M14.5282 16.4301C14.5275 15.5463 14.7011 14.6709 15.0391 13.8541C15.377 13.0374 15.8726 12.2953 16.4976 11.6703C17.1226 11.0453 17.8647 10.5496 18.6815 10.2117C19.4982 9.87379 20.3735 9.70026 21.2574 9.70097C21.6618 9.70289 22.0651 9.74085 22.4627 9.81445C22.2976 9.54486 22.1172 9.28496 21.9222 9.0361C20.1386 6.87411 17.0199 5.2094 14.5228 7.31194C14.3 7.51037 14.0889 7.72154 13.8905 7.94435C13.3337 8.65919 12.8603 9.43529 12.4797 10.2576C12.434 10.3538 12.3697 10.4401 12.2906 10.5115C12.2115 10.5828 12.1192 10.6379 12.0188 10.6736C11.9184 10.7092 11.8119 10.7247 11.7055 10.7192C11.5992 10.7136 11.4949 10.6873 11.3987 10.6414C11.3025 10.5957 11.2164 10.5314 11.145 10.4523C11.0736 10.3732 11.0185 10.2808 10.9828 10.1804C10.9472 10.08 10.9318 9.97362 10.9373 9.86724C10.9428 9.76085 10.9692 9.6566 11.015 9.56043C11.0637 9.45774 11.1123 9.36583 11.1664 9.26854C9.80857 9.22715 8.46353 8.99235 7.17201 8.57128C6.20005 8.24466 5.28741 7.76277 4.46952 7.14436C3.64512 7.64549 2.91366 8.28551 2.30753 9.0361C0.00500602 11.8575 -0.000388324 15.3978 1.10223 18.7651V18.8407C2.22646 22.208 4.57769 26.6618 8.32334 27.586C8.94943 27.7293 9.59981 27.7293 10.2259 27.586C10.9448 27.4347 11.523 26.905 12.3067 26.9969C12.8851 27.0618 13.3877 27.4401 13.9282 27.5914C14.5597 27.7509 15.221 27.7509 15.8524 27.5914C18.0793 27.0509 19.8089 25.2457 21.0898 23.1701C19.3316 23.1291 17.6595 22.4003 16.4327 21.1401C15.2058 19.8799 14.5221 18.1889 14.5282 16.4301Z" fill="#896CFE"/>
    <path d="M6.65853 6.5823C8.13243 7.27511 9.73776 7.64373 11.3662 7.6633C11.2705 7.13159 11.124 6.61032 10.9285 6.10666C10.2566 4.32363 8.99871 2.82183 7.3612 1.84754C5.90215 1.0043 4.28116 0.47934 2.60479 0.307129C2.67618 1.17112 2.87475 2.01979 3.19398 2.8258C3.83644 4.46842 5.07312 5.80937 6.65853 6.5823Z" fill="#896CFE"/>
    <path d="M24.8895 20.0245C25.3644 19.5508 25.7411 18.988 25.998 18.3684C26.2549 17.7489 26.387 17.0847 26.3867 16.4139C26.3874 15.7424 26.2556 15.0773 25.9986 14.4568C25.7417 13.8363 25.3648 13.2726 24.8895 12.798C24.4157 12.3237 23.8528 11.9477 23.2332 11.6917C22.6136 11.4356 21.9495 11.3047 21.279 11.3063C20.6078 11.3046 19.9428 11.4355 19.3222 11.6915C18.7017 11.9475 18.1379 12.3235 17.6631 12.798C17.1828 13.273 16.8016 13.8386 16.5418 14.4622C16.282 15.0857 16.1487 15.7547 16.1497 16.4302C16.1487 17.1005 16.28 17.7645 16.536 18.384C16.7919 19.0036 17.1676 19.5666 17.6415 20.0407C18.116 20.516 18.6797 20.8929 19.3002 21.1498C19.9207 21.4067 20.5858 21.5386 21.2574 21.5379C21.9329 21.5392 22.602 21.406 23.2255 21.1462C23.8491 20.8864 24.4148 20.5051 24.8895 20.0245ZM20.9817 18.5435C20.8381 18.7003 20.6388 18.7944 20.4265 18.8055C20.2142 18.8166 20.006 18.7439 19.8468 18.603L18.517 17.4355C18.356 17.293 18.2578 17.0927 18.2436 16.8781C18.2294 16.6636 18.3005 16.4521 18.4414 16.2896C18.5839 16.1286 18.7843 16.0304 18.9988 16.0162C19.2134 16.0021 19.4249 16.0731 19.5873 16.214L20.3223 16.8626L22.9761 13.9763C23.0477 13.898 23.134 13.8347 23.2302 13.7898C23.3263 13.745 23.4303 13.7195 23.5363 13.715C23.6423 13.7105 23.7481 13.727 23.8477 13.7635C23.9473 13.7999 24.0387 13.8558 24.1167 13.9277C24.1951 13.9997 24.2586 14.0865 24.3035 14.1831C24.3484 14.2797 24.3738 14.3841 24.3783 14.4905C24.3828 14.5969 24.3665 14.7032 24.3299 14.8032C24.2933 14.9032 24.2374 14.9951 24.1653 15.0735L20.9817 18.5435Z" fill="#896CFE"/>
</svg>
