<svg width="21" height="24" viewBox="0 0 21 24" fill="none" xmlns="http://www.w3.org/2000/svg">
    <g clip-path="url(#clip0_476_9065)">
        <path d="M10.6723 12.1156C12.2024 12.1156 13.6698 11.5078 14.7518 10.4258C15.8337 9.3439 16.4416 7.87647 16.4416 6.34638C16.4416 4.81628 15.8337 3.34886 14.7518 2.26692C13.6698 1.18498 12.2024 0.577148 10.6723 0.577148C9.14223 0.577148 7.6748 1.18498 6.59286 2.26692C5.51092 3.34886 4.9031 4.81628 4.9031 6.34638C4.9031 7.87647 5.51092 9.3439 6.59286 10.4258C7.6748 11.5078 9.14223 12.1156 10.6723 12.1156ZM6.3454 14.6036C3.01007 15.5817 0.576172 18.6646 0.576172 22.3154C0.576172 23.0546 1.17563 23.6541 1.91481 23.6541H19.4298C20.169 23.6541 20.7685 23.0546 20.7685 22.3154C20.7685 18.6646 18.3346 15.5817 14.9992 14.6036V16.8933C16.2432 17.2133 17.1627 18.3446 17.1627 19.6877V21.4906C17.1627 21.8872 16.8382 22.2118 16.4416 22.2118H15.7204C15.3238 22.2118 14.9992 21.8872 14.9992 21.4906C14.9992 21.094 15.3238 20.7695 15.7204 20.7695V19.6877C15.7204 18.8899 15.0759 18.2454 14.2781 18.2454C13.4803 18.2454 12.8358 18.8899 12.8358 19.6877V20.7695C13.2324 20.7695 13.5569 21.094 13.5569 21.4906C13.5569 21.8872 13.2324 22.2118 12.8358 22.2118H12.1146C11.718 22.2118 11.3935 21.8872 11.3935 21.4906V19.6877C11.3935 18.3446 12.313 17.2133 13.5569 16.8933V14.3196C13.2865 14.2926 13.0116 14.2791 12.7321 14.2791H8.61253C8.33308 14.2791 8.05814 14.2926 7.78771 14.3196V17.2674C8.82888 17.5784 9.5906 18.5429 9.5906 19.6877C9.5906 21.0805 8.45928 22.2118 7.06656 22.2118C5.67383 22.2118 4.54252 21.0805 4.54252 19.6877C4.54252 18.5429 5.30424 17.5784 6.3454 17.2674V14.6036ZM7.06656 20.7695C7.35345 20.7695 7.62859 20.6555 7.83146 20.4526C8.03432 20.2498 8.14829 19.9746 8.14829 19.6877C8.14829 19.4008 8.03432 19.1257 7.83146 18.9228C7.62859 18.72 7.35345 18.606 7.06656 18.606C6.77966 18.606 6.50452 18.72 6.30166 18.9228C6.09879 19.1257 5.98483 19.4008 5.98483 19.6877C5.98483 19.9746 6.09879 20.2498 6.30166 20.4526C6.50452 20.6555 6.77966 20.7695 7.06656 20.7695Z" fill="#896CFE"/>
    </g>
    <defs>
        <clipPath id="clip0_476_9065">
            <path d="M0.576172 0.577637H20.7685V23.6546H0.576172V0.577637Z" fill="white"/>
        </clipPath>
    </defs>
</svg>
