<svg width="27" height="24" viewBox="0 0 27 24" fill="none" xmlns="http://www.w3.org/2000/svg">
    <g clip-path="url(#clip0_476_9084)">
        <path d="M18.605 0.345215H8.50886C7.31445 0.345215 6.3409 1.32779 6.38597 2.51769C6.39498 2.75657 6.404 2.99546 6.41752 3.22983H1.6579C1.05844 3.22983 0.576172 3.7121 0.576172 4.31156C0.576172 8.48524 2.08609 11.3879 4.11433 13.3575C6.11103 15.3001 8.54492 16.2782 10.3388 16.774C11.3935 17.067 12.1146 17.9459 12.1146 18.8293C12.1146 19.7713 11.3484 20.5375 10.4064 20.5375H9.23002C8.43224 20.5375 7.78771 21.1821 7.78771 21.9798C7.78771 22.7776 8.43224 23.4221 9.23002 23.4221H17.8839C18.6816 23.4221 19.3262 22.7776 19.3262 21.9798C19.3262 21.1821 18.6816 20.5375 17.8839 20.5375H16.7075C15.7655 20.5375 14.9992 19.7713 14.9992 18.8293C14.9992 17.9459 15.7159 17.0625 16.7751 16.774C18.5735 16.2782 21.0074 15.3001 23.0041 13.3575C25.0278 11.3879 26.5377 8.48524 26.5377 4.31156C26.5377 3.7121 26.0554 3.22983 25.456 3.22983H20.6964C20.7099 2.99546 20.7189 2.76108 20.7279 2.51769C20.773 1.32779 19.7994 0.345215 18.605 0.345215ZM2.7802 5.39329H6.58429C6.99444 9.45429 7.90039 12.1676 8.92353 13.984C7.80123 13.4882 6.63386 12.7896 5.62425 11.8071C4.18194 10.4053 3.01007 8.38157 2.78471 5.39329H2.7802ZM21.4941 11.8071C20.4845 12.7896 19.3172 13.4882 18.1949 13.984C19.218 12.1676 20.1239 9.45429 20.5341 5.39329H24.3382C24.1083 8.38157 22.9364 10.4053 21.4986 11.8071H21.4941Z" fill="#896CFE"/>
    </g>
    <defs>
        <clipPath id="clip0_476_9084">
            <path d="M0.576172 0.346191H26.5377V23.4231H0.576172V0.346191Z" fill="white"/>
        </clipPath>
    </defs>
</svg>
