<svg width="24" height="25" viewBox="0 0 24 25" fill="none" xmlns="http://www.w3.org/2000/svg">
    <path d="M3.75 3.86426C3.75001 5.10495 4.7593 6.11426 6 6.11426H6.0625C7.30313 6.11422 8.31249 5.10493 8.3125 3.86426V3.48926H15.375V3.86426C15.375 5.10495 16.3843 6.11426 17.625 6.11426H17.6875C18.9282 6.11421 19.9375 5.10493 19.9375 3.86426V3.48926H21C22.6567 3.48926 24 4.83251 24 6.48926V21.4893C24 23.146 22.6567 24.4893 21 24.4893H3C1.34325 24.4893 0 23.146 0 21.4893V6.48926C0 4.83251 1.34325 3.48926 3 3.48926H3.75V3.86426ZM1.5 21.4893C1.5 22.3169 2.17314 22.9893 3 22.9893H21C21.8276 22.9893 22.5 22.3169 22.5 21.4893V9.48926H1.5V21.4893ZM6 17.3955C7.01835 17.3955 7.84375 18.2209 7.84375 19.2393C7.84375 20.2576 7.01835 21.083 6 21.083C4.98165 21.083 4.15625 20.2576 4.15625 19.2393C4.15625 18.2209 4.98165 17.3955 6 17.3955ZM12 17.3955C13.0183 17.3955 13.8438 18.2209 13.8438 19.2393C13.8438 20.2576 13.0183 21.083 12 21.083C10.9817 21.083 10.1562 20.2576 10.1562 19.2393C10.1562 18.2209 10.9817 17.3955 12 17.3955ZM18 17.3955C19.0183 17.3955 19.8438 18.2209 19.8438 19.2393C19.8438 20.2576 19.0183 21.083 18 21.083C16.9817 21.083 16.1562 20.2576 16.1562 19.2393C16.1562 18.2209 16.9817 17.3955 18 17.3955ZM6 11.3955C7.01835 11.3955 7.84375 12.2209 7.84375 13.2393C7.84375 14.2576 7.01835 15.083 6 15.083C4.98165 15.083 4.15625 14.2576 4.15625 13.2393C4.15625 12.2209 4.98165 11.3955 6 11.3955ZM12 11.3955C13.0183 11.3955 13.8438 12.2209 13.8438 13.2393C13.8438 14.2576 13.0183 15.083 12 15.083C10.9817 15.083 10.1562 14.2576 10.1562 13.2393C10.1562 12.2209 10.9817 11.3955 12 11.3955ZM18 11.3955C19.0183 11.3955 19.8438 12.2209 19.8438 13.2393C19.8438 14.2576 19.0183 15.083 18 15.083C16.9817 15.083 16.1562 14.2576 16.1562 13.2393C16.1562 12.2209 16.9817 11.3955 18 11.3955ZM6.0625 0.489258C6.68383 0.489295 7.18749 0.992878 7.1875 1.61426V3.86426C7.18749 4.48564 6.68383 4.98922 6.0625 4.98926H6C5.37863 4.98926 4.87501 4.48566 4.875 3.86426V1.61426C4.87501 0.992855 5.37863 0.489258 6 0.489258H6.0625ZM17.6875 0.489258C18.3089 0.489306 18.8125 0.992885 18.8125 1.61426V3.86426C18.8125 4.48564 18.3089 4.98923 17.6875 4.98926H17.625C17.0036 4.98925 16.5 4.48565 16.5 3.86426V1.61426C16.5 0.992855 17.0036 0.489258 17.625 0.489258H17.6875Z" fill="#C8C7CC"/>
</svg>
