<svg width="24" height="24" viewBox="0 0 24 24" fill="none" xmlns="http://www.w3.org/2000/svg">
    <g clip-path="url(#clip0_476_9055)">
        <path d="M3.34555 3.46184C3.34555 2.66406 2.70102 2.01953 1.90325 2.01953C1.10547 2.01953 0.460938 2.66406 0.460938 3.46184V18.6061C0.460938 20.5983 2.07452 22.2118 4.06671 22.2118H22.0956C22.8933 22.2118 23.5379 21.5673 23.5379 20.7695C23.5379 19.9718 22.8933 19.3272 22.0956 19.3272H4.06671C3.67007 19.3272 3.34555 19.0027 3.34555 18.6061V3.46184ZM21.6719 7.36508C22.2353 6.80168 22.2353 5.88672 21.6719 5.32332C21.1085 4.75992 20.1935 4.75992 19.6301 5.32332L14.884 10.0739L12.2969 7.48678C11.7335 6.92338 10.8185 6.92338 10.2551 7.48678L5.20703 12.5349C4.64363 13.0983 4.64363 14.0132 5.20703 14.5766C5.77043 15.14 6.6854 15.14 7.2488 14.5766L11.2782 10.5517L13.8654 13.1388C14.4288 13.7022 15.3438 13.7022 15.9072 13.1388L21.6764 7.36959L21.6719 7.36508Z" fill="#896CFE"/>
    </g>
    <defs>
        <clipPath id="clip0_476_9055">
            <path d="M0.460938 0.577637H23.5379V23.6546H0.460938V0.577637Z" fill="white"/>
        </clipPath>
    </defs>
</svg>
