<svg width="37" height="26" viewBox="0 0 37 26" fill="none" xmlns="http://www.w3.org/2000/svg">
    <path d="M5.87936 2.44253C5.87936 1.44531 6.68502 0.639648 7.68224 0.639648H9.48513C10.4823 0.639648 11.288 1.44531 11.288 2.44253V11.457V15.0627V24.0772C11.288 25.0744 10.4823 25.88 9.48513 25.88H7.68224C6.68502 25.88 5.87936 25.0744 5.87936 24.0772V20.4714H4.07647C3.07925 20.4714 2.27359 19.6657 2.27359 18.6685V15.0627C1.27637 15.0627 0.470703 14.2571 0.470703 13.2598C0.470703 12.2626 1.27637 11.457 2.27359 11.457V7.85119C2.27359 6.85397 3.07925 6.0483 4.07647 6.0483H5.87936V2.44253ZM31.1197 2.44253V6.0483H32.9226C33.9198 6.0483 34.7255 6.85397 34.7255 7.85119V11.457C35.7227 11.457 36.5284 12.2626 36.5284 13.2598C36.5284 14.2571 35.7227 15.0627 34.7255 15.0627V18.6685C34.7255 19.6657 33.9198 20.4714 32.9226 20.4714H31.1197V24.0772C31.1197 25.0744 30.3141 25.88 29.3169 25.88H27.514C26.5168 25.88 25.7111 25.0744 25.7111 24.0772V15.0627V11.457V2.44253C25.7111 1.44531 26.5168 0.639648 27.514 0.639648H29.3169C30.3141 0.639648 31.1197 1.44531 31.1197 2.44253ZM23.9082 11.457V15.0627H13.0909V11.457H23.9082Z" fill="#896CFE"/>
</svg>
