<svg width="24" height="24" viewBox="0 0 24 24" fill="none" xmlns="http://www.w3.org/2000/svg">
    <path d="M23.6993 11.711C24.1344 11.2374 24.0924 10.5114 23.6055 10.09L12.8796 0.799633C12.3928 0.378189 11.6122 0.387017 11.1356 0.819536L0.373268 10.5853C-0.103331 11.0178 -0.126723 11.7429 0.321477 12.204L0.591305 12.4822C1.03896 12.9434 1.76254 12.9984 2.20644 12.6047L3.01076 11.8916V22.3303C3.01076 22.9708 3.535 23.4893 4.18152 23.4893H8.37672C9.02324 23.4893 9.54748 22.9708 9.54748 22.3303V15.0275H14.8985V22.3303C14.8892 22.9703 15.3518 23.4888 15.9983 23.4888H20.4442C21.0907 23.4888 21.6149 22.9703 21.6149 22.3299V12.0386C21.6149 12.0386 21.8371 12.2313 22.1112 12.4697C22.3848 12.7077 22.9594 12.5169 23.3944 12.0428L23.6993 11.711Z" fill="#9479DF"/>
</svg>
