<svg width="24" height="25" viewBox="0 0 24 25" fill="none" xmlns="http://www.w3.org/2000/svg">
    <path fill-rule="evenodd" clip-rule="evenodd" d="M6.68553 3.97873C10.1592 2.98626 13.8413 2.98626 17.315 3.97873C18.8661 4.42191 20.0786 5.63439 20.5218 7.18553C21.5142 10.6592 21.5142 14.3413 20.5218 17.815C20.0786 19.3661 18.8661 20.5786 17.315 21.0218C13.8413 22.0142 10.1592 22.0142 6.68553 21.0218C5.13439 20.5786 3.92191 19.3661 3.47873 17.815C2.48626 14.3413 2.48626 10.6592 3.47873 7.18553C3.92191 5.63439 5.13439 4.42191 6.68553 3.97873ZM13.0726 15.7195L17.814 9.08148L16.1865 7.91901L11.4451 14.557C11.3701 14.662 11.2705 14.7471 11.1551 14.8048L11.053 14.8558C10.3903 15.1872 9.6102 15.1872 8.94746 14.8558C8.81643 14.7903 8.71019 14.6841 8.64467 14.553L7.89467 13.053L6.10582 13.9475L6.85582 15.4475C7.11486 15.9655 7.53495 16.3856 8.05303 16.6447C9.27883 17.2576 10.7217 17.2576 11.9475 16.6447L12.0495 16.5936C12.4567 16.39 12.8079 16.0899 13.0726 15.7195Z" fill="#896CFE"/>
</svg>
