<svg width="37" height="36" viewBox="0 0 37 36" fill="none" xmlns="http://www.w3.org/2000/svg">
    <path fill-rule="evenodd" clip-rule="evenodd" d="M18.5 0.349609C28.7464 0.349609 37 7.90794 37 17.1287C37 26.3494 28.7464 33.9077 18.5 33.9077C16.0941 33.9077 13.795 33.4895 11.6886 32.7323L6.16957 35.4927C5.95915 35.5977 5.72403 35.6433 5.48959 35.6245C5.25516 35.6057 5.03031 35.5232 4.83932 35.386C4.45039 35.1072 4.24901 34.634 4.31441 34.1589L5.08194 28.6778C1.92569 25.6628 0 21.5945 0 17.1287C0 7.90794 8.25358 0.349609 18.5 0.349609ZM10.5596 22.5875L15.0083 19.1267C15.559 18.6982 16.3144 18.6449 16.9185 18.9907L20.5479 21.0645C21.3327 21.5136 22.3308 21.2779 22.8333 20.5241L27.645 13.3083C27.7086 13.2117 27.7382 13.0967 27.7292 12.9814C27.7201 12.8661 27.673 12.7571 27.5952 12.6715C27.5164 12.5864 27.4114 12.5301 27.2969 12.5117C27.1824 12.4933 27.065 12.5138 26.9635 12.57L21.9986 15.3286C21.4358 15.6418 20.744 15.6125 20.2089 15.2563L17.3744 13.3667C17.1845 13.2398 16.9711 13.152 16.7468 13.1085C16.5225 13.0651 16.2918 13.0668 16.0682 13.1137C15.8448 13.1607 15.6328 13.2515 15.4447 13.3809C15.2565 13.5103 15.0959 13.6756 14.972 13.8675L9.80924 21.9008C9.74337 22.0034 9.71588 22.126 9.73162 22.2469C9.74737 22.3678 9.80533 22.4793 9.89528 22.5616C10.0795 22.7303 10.3618 22.7424 10.5596 22.5875Z" fill="url(#paint0_linear_508_7029)"/>
    <defs>
        <linearGradient id="paint0_linear_508_7029" x1="18.5" y1="0.349609" x2="18.5" y2="35.6287" gradientUnits="userSpaceOnUse">
            <stop stop-color="white"/>
            <stop offset="1" stop-color="#896CFE"/>
        </linearGradient>
    </defs>
</svg>
