<svg width="39" height="39" viewBox="0 0 39 39" fill="none" xmlns="http://www.w3.org/2000/svg">
    <circle cx="19.4805" cy="19.5273" r="19.084" fill="#896CFE"/>
    <path d="M30.1929 15.1836L25.6778 14.0468C25.1195 13.9043 24.6363 13.5548 24.3264 13.0693L21.849 9.12618C21.6507 8.80257 21.372 8.53584 21.0399 8.35201C20.7077 8.16818 20.3336 8.07352 19.954 8.07725C19.5753 8.07447 19.2024 8.16959 18.8714 8.35337C18.5403 8.53715 18.2623 8.80337 18.0645 9.12618L15.5816 13.0693C15.2751 13.5557 14.7933 13.9056 14.2359 14.0468L9.7207 15.1836C9.3534 15.2758 9.0155 15.4597 8.73878 15.7182C8.46205 15.9766 8.2556 16.3011 8.13865 16.6612C8.02171 17.0213 7.99805 17.4052 8.07013 17.7769C8.1422 18.1486 8.30755 18.4959 8.55063 18.7862L11.5334 22.3613C11.9022 22.8027 12.087 23.369 12.0497 23.943L11.7366 28.589C11.7163 28.8946 11.7589 29.201 11.8617 29.4895C11.9645 29.7779 12.1254 30.0422 12.3344 30.2661C12.5434 30.49 12.7961 30.6686 13.0768 30.7911C13.3576 30.9135 13.6604 30.9771 13.9667 30.9779C14.2526 30.9778 14.5359 30.9237 14.8017 30.8187L19.1246 29.0833C19.3888 28.9793 19.6701 28.9254 19.954 28.924C20.2398 28.9248 20.5229 28.9788 20.7889 29.0833L25.112 30.8187C25.3778 30.9237 25.6611 30.9778 25.9469 30.9779C26.2532 30.9771 26.5559 30.9135 26.8367 30.7911C27.1174 30.6686 27.3701 30.49 27.5791 30.2661C27.7881 30.0422 27.949 29.7779 28.0518 29.4895C28.1546 29.201 28.1972 28.8946 28.1769 28.589L27.8639 23.943C27.8266 23.369 28.0115 22.8027 28.3802 22.3613L31.3629 18.7862C31.606 18.4959 31.7713 18.1486 31.8434 17.7769C31.9155 17.4052 31.8919 17.0213 31.775 16.6612C31.658 16.3011 31.4515 15.9766 31.1747 15.7182C30.898 15.4597 30.5602 15.2758 30.1929 15.1836Z" fill="white"/>
</svg>
