<svg width="24" height="25" viewBox="0 0 24 25" fill="none" xmlns="http://www.w3.org/2000/svg">
    <path d="M0.320312 18.6836C0.45398 18.4784 0.741792 18.4462 0.915039 18.6191L5.86914 23.5742C6.04233 23.7475 6.01068 24.0349 5.80566 24.1689C4.98465 24.7043 4.00187 24.5311 3.39844 23.9277L0.561523 21.0898C-0.0470203 20.4811 -0.2108 19.4988 0.320312 18.6836ZM2.32324 12.3662C3.07158 11.6178 4.28414 11.6132 5.03809 12.3662L12.123 19.4502C12.876 20.2041 12.8714 21.4177 12.123 22.166L10.4297 23.8594C9.68765 24.6031 8.46818 24.6125 7.71484 23.8594L0.629883 16.7744C-0.118378 16.0257 -0.118326 14.8079 0.629883 14.0596L2.32324 12.3662ZM12.2012 8.58691C12.5012 8.28741 12.9881 8.28741 13.2881 8.58691L15.9023 11.2012C16.2022 11.501 16.2019 11.9871 15.9023 12.2871L11.7979 16.3916C11.4969 16.6913 11.0108 16.6904 10.7119 16.3916L8.09766 13.7773C7.79767 13.4774 7.79767 12.9904 8.09766 12.6904L12.2012 8.58691ZM13.5703 1.11914C14.3186 0.370621 15.5365 0.370944 16.2852 1.11914L23.3701 8.2041C24.1182 8.95281 24.1182 10.1707 23.3701 10.9189L21.6768 12.6123C20.9293 13.3598 19.7166 13.3659 18.9619 12.6123L11.877 5.52734C11.124 4.77336 11.1286 3.56077 11.877 2.8125L13.5703 1.11914ZM18.1953 0.808594C19.0115 0.27708 19.9934 0.44428 20.6006 1.05078L23.4385 3.8877C24.0403 4.48958 24.2156 5.47271 23.6807 6.29395C23.5468 6.4989 23.2593 6.53115 23.0859 6.3584L18.1309 1.40332C17.958 1.23001 17.9901 0.942226 18.1953 0.808594Z" fill="#C8C7CC"/>
</svg>
