<svg width="39" height="39" viewBox="0 0 39 39" fill="none" xmlns="http://www.w3.org/2000/svg">
    <circle cx="19.4805" cy="19.2676" r="19.084" fill="#896CFE"/>
    <path d="M11.5024 18.3048L18.7639 18.3048L16.6149 16.6563C16.416 16.5037 16.2853 16.2777 16.2514 16.0279C16.2174 15.7781 16.2831 15.5249 16.4339 15.3239C16.5084 15.224 16.6017 15.1401 16.7085 15.0768C16.8153 15.0136 16.9334 14.9723 17.056 14.9553C17.1787 14.9384 17.3034 14.946 17.4231 14.9779C17.5428 15.0098 17.6551 15.0653 17.7535 15.1411L22.1345 18.4989L22.1684 18.5294C22.2029 18.5592 22.2356 18.591 22.2664 18.6246L22.3117 18.6817C22.3377 18.717 22.3617 18.7539 22.3833 18.7921L22.4173 18.853C22.4375 18.8984 22.4539 18.9456 22.4663 18.9939L22.4663 19.0471C22.4796 19.1162 22.4871 19.1862 22.4889 19.2565C22.4871 19.3256 22.4796 19.3944 22.4663 19.4621L22.4663 19.5154C22.4539 19.5636 22.4375 19.6108 22.4173 19.6563L22.3833 19.7172C22.3617 19.7554 22.3377 19.7922 22.3117 19.8276L22.2664 19.8846C22.2367 19.9193 22.2039 19.9511 22.1684 19.9798L22.1345 20.0141L17.7535 23.3681C17.5906 23.4953 17.3901 23.5637 17.1842 23.5623C17.0378 23.5626 16.8934 23.5283 16.7625 23.4622C16.6315 23.3961 16.5177 23.3 16.4301 23.1816C16.2793 22.9806 16.2137 22.7273 16.2476 22.4775C16.2816 22.2277 16.4123 22.0017 16.6111 21.8491L18.7601 20.2045L11.4987 20.2045L11.4987 27.4378C11.4987 28.8139 12.04 30.1338 13.0038 31.1069C13.9675 32.08 15.2746 32.6267 16.6375 32.6267L23.8914 32.6267C24.5658 32.6262 25.2334 32.4916 25.8562 32.2305C26.4791 31.9695 27.0449 31.5872 27.5214 31.1053C27.9978 30.6235 28.3757 30.0516 28.6333 29.4223C28.8909 28.793 29.0232 28.1187 29.0227 27.4378L29.0227 11.0944C29.0232 10.4136 28.8908 9.73943 28.6332 9.11036C28.3755 8.4813 27.9977 7.9097 27.5211 7.42817C27.0446 6.94663 26.4788 6.56463 25.856 6.30401C25.2331 6.04338 24.5656 5.90918 23.8914 5.90918L16.6375 5.90918C15.2752 5.90918 13.9687 6.45541 13.0051 7.4277C12.0415 8.39999 11.4997 9.71882 11.4987 11.0944L11.4987 15.5942L11.5024 18.3048ZM24.4532 11.0715C24.4527 10.9464 24.4767 10.8224 24.5239 10.7067C24.5711 10.591 24.6405 10.4858 24.7281 10.3974C24.8158 10.3089 24.9199 10.2388 25.0345 10.1911C25.1491 10.1435 25.2718 10.1192 25.3958 10.1197C25.5197 10.1192 25.6425 10.1435 25.757 10.1911C25.8716 10.2388 25.9758 10.3089 26.0634 10.3974C26.151 10.4858 26.2204 10.591 26.2676 10.7067C26.3148 10.8224 26.3388 10.9464 26.3383 11.0715L26.3383 27.4797C26.3383 27.7321 26.239 27.9741 26.0622 28.1526C25.8855 28.3311 25.6457 28.4314 25.3958 28.4314C25.1458 28.4314 24.906 28.3311 24.7293 28.1526C24.5525 27.9741 24.4532 27.7321 24.4532 27.4797L24.4532 11.0715Z" fill="white"/>
    <path d="M8.01873 20.2083L11.4987 20.2083C11.7486 20.2083 11.9884 20.108 12.1651 19.9295C12.3419 19.751 12.4412 19.5089 12.4412 19.2565C12.4412 19.0041 12.3419 18.762 12.1651 18.5835C11.9884 18.405 11.7486 18.3048 11.4987 18.3048L8.01873 18.3048C7.76875 18.3048 7.52898 18.405 7.35222 18.5835C7.17546 18.762 7.07617 19.0041 7.07617 19.2565C7.07617 19.5089 7.17546 19.751 7.35222 19.9295C7.52898 20.108 7.76875 20.2083 8.01873 20.2083Z" fill="white"/>
</svg>
