<svg width="7" height="11" viewBox="0 0 7 11" fill="none" xmlns="http://www.w3.org/2000/svg">
    <path d="M1.43772 10.8175C1.55844 10.818 1.67585 10.7663 1.77122 10.6706L6.38416 6.14395C6.45254 6.07652 6.50796 5.98957 6.54611 5.88991C6.58426 5.79025 6.6041 5.68055 6.6041 5.56935C6.6041 5.45815 6.58426 5.34845 6.54611 5.24879C6.50796 5.14914 6.45254 5.06225 6.38416 4.99482L1.77122 0.468115C1.67585 0.372406 1.55844 0.320739 1.43772 0.321294C1.36442 0.320987 1.2918 0.33941 1.22401 0.375469C1.15622 0.411528 1.0946 0.464483 1.04269 0.531396C0.990773 0.598308 0.949591 0.677861 0.921485 0.765399C0.89338 0.852937 0.878906 0.946789 0.878906 1.04157L0.878905 10.0972C0.878904 10.192 0.893379 10.2858 0.921484 10.3734C0.949589 10.4609 0.990772 10.5404 1.04269 10.6073C1.0946 10.6742 1.15622 10.7272 1.22401 10.7633C1.29179 10.7993 1.36442 10.8178 1.43772 10.8175Z" fill="white"/>
</svg>
