<svg width="39" height="39" viewBox="0 0 39 39" fill="none" xmlns="http://www.w3.org/2000/svg">
    <circle cx="19.4805" cy="19.8711" r="19.084" fill="#896CFE"/>
    <path d="M14.4959 12.9086C14.4949 12.253 14.6239 11.6037 14.8756 10.9982C15.1272 10.3927 15.4964 9.84303 15.9619 9.38082C16.4217 8.91798 16.9687 8.55059 17.5714 8.29992C18.1741 8.04925 18.8204 7.92022 19.4733 7.92027C20.1267 7.91975 20.7737 8.04855 21.3771 8.29923C21.9804 8.54992 22.5281 8.91756 22.9883 9.38082C23.4543 9.84249 23.8235 10.3922 24.0746 10.9979C24.3257 11.6035 24.4535 12.2531 24.4507 12.9086V15.0253C24.9501 15.3093 25.423 15.6375 25.8637 16.006V12.8945C25.86 11.2031 25.1855 9.58205 23.9879 8.38605C22.7902 7.19005 21.167 6.51642 19.4733 6.5127C17.7799 6.51643 16.157 7.19012 14.9599 8.38622C13.7628 9.58232 13.0891 11.2034 13.0863 12.8945V16.006C13.5275 15.6382 14.0003 15.31 14.4994 15.0253L14.4959 12.9086Z" fill="white"/>
    <path d="M13.4078 29.7643C14.2045 30.5618 15.1511 31.1941 16.1932 31.6252C17.2353 32.0562 18.3524 32.2774 19.4804 32.276C20.6084 32.2778 21.7257 32.0568 22.7678 31.6257C23.81 31.1946 24.7565 30.5621 25.5529 29.7643C26.3524 28.9695 26.9863 28.0243 27.418 26.9834C27.8497 25.9426 28.0707 24.8267 28.0681 23.7001C28.0703 22.5735 27.8492 21.4577 27.4175 20.4169C26.9858 19.3761 26.352 18.4309 25.5529 17.6358C24.7565 16.838 23.81 16.2055 22.7678 15.7744C21.7257 15.3433 20.6084 15.1223 19.4804 15.1241C18.3524 15.1227 17.2353 15.3439 16.1932 15.7749C15.1511 16.206 14.2045 16.8383 13.4078 17.6358C12.6099 18.4318 11.9771 19.3772 11.5455 20.4178C11.1139 21.4584 10.892 22.5738 10.8926 23.7001C10.8916 24.8265 11.1133 25.9419 11.5449 26.9826C11.9766 28.0232 12.6096 28.9685 13.4078 29.7643ZM19.4804 19.8865C19.7808 19.8861 20.0784 19.9447 20.3561 20.0592C20.6338 20.1737 20.8862 20.3418 21.0988 20.5538C21.3114 20.7658 21.4802 21.0176 21.5953 21.2947C21.7103 21.5719 21.7695 21.869 21.7695 22.169C21.7692 22.6536 21.6148 23.1256 21.3284 23.5168C21.042 23.908 20.6387 24.1983 20.1764 24.3456C20.1798 24.3808 20.1798 24.4163 20.1764 24.4515V27.5241C20.1764 27.7113 20.1019 27.8908 19.9694 28.0231C19.8369 28.1554 19.6572 28.2297 19.4698 28.2297C19.2825 28.2297 19.1026 28.1554 18.9701 28.0231C18.8376 27.8908 18.7633 27.7113 18.7633 27.5241V24.4515C18.7633 24.4162 18.7633 24.3809 18.7633 24.3456C18.3017 24.1977 17.8988 23.9072 17.6131 23.516C17.3275 23.1249 17.1736 22.6532 17.1736 22.169C17.1732 21.8678 17.2323 21.5695 17.3479 21.2912C17.4634 21.0129 17.6329 20.7603 17.8467 20.5477C18.0605 20.3352 18.3142 20.1671 18.5934 20.053C18.8726 19.9389 19.1717 19.8812 19.4733 19.883L19.4804 19.8865Z" fill="white"/>
</svg>
