<svg width="39" height="39" viewBox="0 0 39 39" fill="none" xmlns="http://www.w3.org/2000/svg">
    <circle cx="19.4355" cy="19.7871" r="18.1298" fill="#896CFE" stroke="#896CFE" stroke-width="1.9084"/>
    <path d="M29.2324 27.9712C28.6716 26.7967 27.9304 25.7196 27.0362 24.7801C25.7978 26.0242 24.2752 26.94 22.6034 27.4462C22.5253 28.0395 22.2372 28.584 21.7926 28.9786C21.3479 29.3733 20.7769 29.5913 20.1855 29.5923C19.8629 29.5929 19.5434 29.5292 19.2452 29.4048C18.947 29.2803 18.6759 29.0975 18.4475 28.867C18.2192 28.6364 18.0381 28.3625 17.9146 28.0609C17.791 27.7594 17.7273 27.4362 17.7273 27.1097C17.7273 26.7833 17.791 26.46 17.9146 26.1585C18.0381 25.857 18.2192 25.5831 18.4475 25.3525C18.6759 25.1219 18.947 24.9392 19.2452 24.8147C19.5434 24.6902 19.8629 24.6265 20.1855 24.6272C20.6255 24.6292 21.0568 24.7509 21.4344 24.9796C21.8119 25.2083 22.1218 25.5356 22.3314 25.9271C23.6759 25.495 24.9021 24.7514 25.9128 23.7555C25.7113 23.5975 25.5048 23.4445 25.2982 23.3018C24.6896 22.886 24.0397 22.5358 23.359 22.2568C22.2705 23.0917 20.9418 23.5429 19.576 23.5414C18.2384 23.5426 16.9356 23.1103 15.8585 22.3078C15.2158 22.5862 14.6018 22.9277 14.025 23.3273C12.3321 24.5082 10.9754 26.1184 10.0908 27.9967C9.98203 28.2312 9.92525 28.487 9.92457 28.7461C9.9264 29.0565 10.0007 29.3622 10.1413 29.6381C10.2673 29.8924 10.4609 30.106 10.7003 30.255C11.9251 30.9466 13.2544 31.4288 14.6344 31.6823C16.2923 32.023 17.9799 32.1938 19.6717 32.1921C21.3634 32.1935 23.051 32.0227 24.7089 31.6823C26.0882 31.4286 27.4172 30.9482 28.643 30.2601C28.886 30.0968 29.0847 29.8746 29.221 29.6137C29.3574 29.3528 29.4272 29.0616 29.4238 28.7665C29.4204 28.5006 29.362 28.2384 29.2525 27.9967L29.2324 27.9712Z" fill="white"/>
    <path d="M16.186 20.5899C16.6303 21.0417 17.1586 21.4 17.7404 21.6441C18.3223 21.8882 18.9462 22.0133 19.576 22.0121C20.2061 22.0144 20.8302 21.8899 21.4122 21.6457C21.9943 21.4015 22.5225 21.0426 22.9661 20.5899C23.4135 20.141 23.768 19.6064 24.0093 19.0174C24.2506 18.4284 24.3738 17.7968 24.3715 17.1592C24.3727 16.5218 24.2491 15.8904 24.0079 15.3016C23.7666 14.7128 23.4126 14.1781 22.9661 13.7285C22.5225 13.2758 21.9943 12.9169 21.4122 12.6727C20.8302 12.4285 20.2061 12.304 19.576 12.3063C18.9462 12.3051 18.3223 12.4302 17.7404 12.6743C17.1586 12.9184 16.6303 13.2767 16.186 13.7285C15.7395 14.1781 15.3854 14.7128 15.1442 15.3016C14.903 15.8904 14.7794 16.5218 14.7806 17.1592C14.7783 17.7968 14.9013 18.4284 15.1426 19.0174C15.3839 19.6064 15.7386 20.141 16.186 20.5899Z" fill="white"/>
    <path d="M29.3785 21.5329C29.8274 21.5329 30.2719 21.4434 30.6866 21.2694C31.1013 21.0954 31.4779 20.8403 31.7951 20.5188C32.1123 20.1974 32.3639 19.8158 32.5352 19.3959C32.7066 18.976 32.7944 18.526 32.7937 18.0717C32.7928 17.2431 32.4978 16.4425 31.9625 15.8156C31.4272 15.1887 30.6871 14.7773 29.8771 14.6563C29.326 12.3116 28.0091 10.2237 26.1397 8.73061C24.2702 7.23747 21.9576 6.42641 19.576 6.42872C17.1969 6.42843 14.887 7.2398 13.0197 8.73176C11.1524 10.2237 9.83657 12.3091 9.28483 14.6512C8.41705 14.7044 7.60199 15.0905 7.00577 15.7308C6.40956 16.3711 6.07715 17.2174 6.07617 18.0972C6.07617 19.0143 6.43578 19.8939 7.07612 20.5429C7.71646 21.1918 8.58519 21.5571 9.49144 21.5584C9.69557 21.5576 9.89689 21.5105 10.0808 21.4208C10.3627 21.2777 10.5973 21.0545 10.7558 20.7785C10.9841 20.3942 11.1411 19.971 11.2192 19.5296C11.3093 19.0576 11.3532 18.5778 11.3502 18.0972C11.3626 17.3786 11.2536 16.6631 11.0278 15.9816C10.9438 15.7378 10.8249 15.5077 10.6751 15.2986C11.0372 13.5481 11.8969 11.9428 13.1485 10.6801C13.9916 9.8245 14.9934 9.1458 16.0964 8.68303C17.1994 8.22027 18.382 7.98253 19.576 7.98348C20.7709 7.98186 21.9542 8.21929 23.0582 8.68207C24.1621 9.14485 25.1648 9.82389 26.0086 10.6801C27.1949 11.8822 28.027 13.395 28.4114 15.0488C28.2985 15.159 28.1987 15.2822 28.1141 15.4158C27.8866 15.8023 27.7297 16.2271 27.6507 16.6698C27.5608 17.1401 27.517 17.6182 27.5197 18.0972C27.5069 18.8158 27.6159 19.5313 27.8421 20.2127C27.8909 20.347 27.9482 20.4781 28.0134 20.6052C27.7296 21.329 27.3573 22.014 26.9052 22.6442C26.7642 22.8328 26.6231 23.0214 26.472 23.1999L27.6154 24.2194C27.7615 24.0461 27.8975 23.8677 28.0285 23.7096C28.5186 23.0574 28.9311 22.3491 29.2576 21.5992L29.3785 21.5329ZM9.84906 18.0717C9.86203 18.6109 9.78543 19.1486 9.62241 19.6621C9.58128 19.7829 9.52175 19.8964 9.44606 19.9986C8.96111 19.9857 8.49952 19.785 8.15649 19.4378C7.97855 19.2589 7.83754 19.046 7.74156 18.8115C7.64558 18.577 7.59659 18.3255 7.59743 18.0717C7.5967 17.8186 7.64581 17.5679 7.74181 17.3342C7.8378 17.1006 7.9787 16.8886 8.15649 16.7106C8.49952 16.3635 8.96111 16.1628 9.44606 16.1499C9.58656 16.36 9.68105 16.5981 9.72313 16.8482C9.80911 17.2502 9.85134 17.6604 9.84906 18.0717ZM29.4439 19.9986C29.3037 19.7864 29.2094 19.5467 29.1669 19.2951C29.0853 18.8943 29.0448 18.486 29.046 18.0768C29.0356 17.5393 29.1121 17.0038 29.2727 16.4914C29.3138 16.3707 29.3732 16.2572 29.4489 16.155C29.9339 16.1679 30.3955 16.3686 30.7385 16.7157C30.9163 16.8937 31.0573 17.1057 31.1533 17.3393C31.2493 17.573 31.2984 17.8237 31.2977 18.0768C31.2985 18.3306 31.2495 18.5821 31.1535 18.8166C31.0576 19.0511 30.9164 19.264 30.7385 19.4429C30.3909 19.7918 29.9233 19.9909 29.4338 19.9986H29.4439Z" fill="white"/>
    <path d="M19.2384 27.1097C19.2398 27.363 19.3401 27.6055 19.5176 27.7841C19.695 27.9627 19.9352 28.063 20.1855 28.063C20.4353 28.063 20.6749 27.9626 20.8516 27.7838C21.0282 27.605 21.1274 27.3626 21.1274 27.1097C21.1274 26.8569 21.0282 26.6144 20.8516 26.4357C20.6749 26.2569 20.4353 26.1565 20.1855 26.1565C19.9352 26.1565 19.695 26.2567 19.5176 26.4354C19.3401 26.614 19.2398 26.8564 19.2384 27.1097Z" fill="white"/>
</svg>
