<svg width="22" height="25" viewBox="0 0 22 25" fill="none" xmlns="http://www.w3.org/2000/svg">
    <path d="M11 0.489258C7.51067 0.489258 4.67188 3.32805 4.67188 6.81738C4.67188 10.3067 7.51067 13.1455 11 13.1455C14.4893 13.1455 17.3281 10.3067 17.3281 6.81738C17.3281 3.32805 14.4893 0.489258 11 0.489258ZM18.8734 17.2796C17.1409 15.5205 14.8442 14.5518 12.4062 14.5518H9.59375C7.15588 14.5518 4.85909 15.5205 3.12659 17.2796C1.40258 19.0301 0.453125 21.3408 0.453125 23.7861C0.453125 24.1744 0.767937 24.4893 1.15625 24.4893H20.8438C21.2321 24.4893 21.5469 24.1744 21.5469 23.7861C21.5469 21.3408 20.5974 19.0301 18.8734 17.2796Z" fill="#C8C7CC"/>
</svg>
