<svg width="39" height="40" viewBox="0 0 39 40" fill="none" xmlns="http://www.w3.org/2000/svg">
    <circle cx="19.4805" cy="20.0469" r="19.084" fill="#896CFE"/>
    <path d="M19.4795 15.7271C20.006 15.7271 20.5274 15.6224 21.0138 15.4192C21.5001 15.2159 21.942 14.918 22.3141 14.5424C22.6862 14.1668 22.9813 13.721 23.1825 13.2304C23.3836 12.7398 23.4869 12.214 23.4865 11.683C23.4865 10.6114 23.0644 9.58369 22.3129 8.82596C21.5614 8.06822 20.5422 7.64258 19.4795 7.64258C18.4168 7.64258 17.3977 8.06822 16.6462 8.82596C15.8948 9.58369 15.4725 10.6114 15.4725 11.683C15.4725 12.755 15.8945 13.7831 16.6459 14.5414C17.3973 15.2997 18.4164 15.7262 19.4795 15.7271Z" fill="white"/>
    <path d="M29.0215 27.5109C29.0205 24.9597 28.0148 22.5133 26.2254 20.7097C24.4361 18.906 22.0096 17.8928 19.4795 17.8928C16.9494 17.8928 14.5231 18.906 12.7337 20.7097C10.9443 22.5133 9.93844 24.9597 9.9375 27.5109C9.9375 32.8264 29.0215 32.8264 29.0215 27.5109Z" fill="white"/>
</svg>
