<svg width="39" height="39" viewBox="0 0 39 39" fill="none" xmlns="http://www.w3.org/2000/svg">
    <circle cx="19.4355" cy="19.3515" r="19.084" fill="#896CFE"/>
    <path d="M7.12456 23.7159L9.75659 28.3149C9.84668 28.4712 9.99437 28.5853 10.1676 28.6323C10.3408 28.6792 10.5255 28.6553 10.6813 28.5657L14.1392 26.5748C14.8809 27.1766 15.7117 27.6576 16.6012 28.0003V32.0259C16.6012 32.2068 16.6722 32.3804 16.7988 32.5087C16.9254 32.637 17.0974 32.7097 17.277 32.7107H22.5488C22.6378 32.7107 22.726 32.693 22.8083 32.6585C22.8905 32.6241 22.9653 32.5735 23.0281 32.5099C23.0909 32.4462 23.1406 32.3706 23.1743 32.2876C23.2081 32.2045 23.225 32.1156 23.2245 32.0259V28.0003C24.1141 27.6576 24.9448 27.1766 25.6865 26.5748L29.1445 28.5657C29.3003 28.6553 29.4849 28.6792 29.6581 28.6323C29.8314 28.5853 29.9792 28.4712 30.0693 28.3149L32.7052 23.7159C32.7942 23.5589 32.8179 23.3729 32.7712 23.1984C32.7246 23.0238 32.6114 22.8749 32.4563 22.7842L28.9943 20.7695C29.0701 20.2967 29.1099 19.8188 29.113 19.34C29.1097 18.8625 29.0699 18.3859 28.9943 17.9145L32.4563 15.8998C32.6114 15.809 32.7246 15.6601 32.7712 15.4856C32.8179 15.3111 32.7942 15.125 32.7052 14.968L30.0693 10.3691C29.9792 10.2128 29.8314 10.0987 29.6581 10.0517C29.4849 10.0047 29.3003 10.0287 29.1445 10.1183L25.6865 12.129C24.944 11.5274 24.1135 11.0453 23.2245 10.6996V6.67403C23.2245 6.49345 23.1535 6.32033 23.0267 6.19264C22.9 6.06495 22.728 5.99316 22.5488 5.99316H17.277C17.0981 5.99421 16.9269 6.06625 16.8004 6.19371C16.6738 6.32117 16.6023 6.49377 16.6012 6.67403V10.6996C15.7123 11.0453 14.8818 11.5274 14.1392 12.129L10.6813 10.1183C10.5255 10.0287 10.3408 10.0047 10.1676 10.0517C9.99437 10.0987 9.84668 10.2128 9.75659 10.3691L7.12456 14.968C7.07983 15.0454 7.05058 15.1309 7.03869 15.2196C7.0268 15.3083 7.03252 15.3986 7.05528 15.4851C7.07804 15.5716 7.11751 15.6528 7.17145 15.7239C7.22538 15.7951 7.29275 15.8549 7.36962 15.8998L10.8354 17.9145C10.7566 18.3855 10.7156 18.8623 10.7129 19.34C10.7154 19.819 10.7564 20.2971 10.8354 20.7695L7.36962 22.7842C7.29235 22.8287 7.22452 22.8882 7.17029 22.9593C7.11606 23.0304 7.07653 23.1118 7.05374 23.1985C7.03094 23.2852 7.02536 23.3755 7.03753 23.4643C7.0497 23.5532 7.07931 23.6387 7.12456 23.7159ZM19.9129 16.5089C20.2801 16.5094 20.6436 16.5828 20.9827 16.7249C21.3217 16.867 21.6296 17.075 21.8888 17.3372C22.1495 17.5981 22.3567 17.9083 22.4984 18.2499C22.6401 18.5915 22.7135 18.9578 22.7147 19.328C22.7106 20.0754 22.4138 20.7909 21.8888 21.3189C21.6296 21.581 21.3217 21.7891 20.9827 21.9312C20.6436 22.0733 20.2801 22.1467 19.9129 22.1471C19.5456 22.1467 19.1821 22.0733 18.8431 21.9312C18.504 21.7891 18.1961 21.581 17.9369 21.3189C17.4119 20.7909 17.1151 20.0754 17.111 19.328C17.1122 18.9578 17.1856 18.5915 17.3273 18.2499C17.4691 17.9083 17.6762 17.5981 17.9369 17.3372C18.4617 16.8107 19.1724 16.5157 19.9129 16.5169V16.5089Z" fill="white"/>
</svg>
