<svg width="9" height="10" viewBox="0 0 9 10" fill="none" xmlns="http://www.w3.org/2000/svg">
    <path d="M3.37266 0.580642L7.25784 3.22364C7.51085 3.39585 7.71598 3.6182 7.8572 3.87327C7.99842 4.12833 8.0719 4.40922 8.0719 4.69396C8.0719 4.97871 7.99842 5.25954 7.8572 5.51461C7.71598 5.76967 7.51085 5.99202 7.25784 6.16424L3.37266 8.80947C3.12633 8.97636 2.83303 9.07839 2.52557 9.10407C2.21812 9.12976 1.90865 9.07807 1.63216 8.95486C1.35566 8.83165 1.12299 8.64179 0.960262 8.40658C0.797528 8.17137 0.711167 7.90013 0.710938 7.62336V1.76451C0.710696 1.48759 0.796805 1.21609 0.95953 0.980691C1.12226 0.745291 1.35515 0.555346 1.63191 0.432248C1.90867 0.309151 2.21836 0.257799 2.52594 0.284019C2.83352 0.310239 3.12676 0.412988 3.37266 0.580642Z" fill="white"/>
</svg>
