<svg width="8" height="8" viewBox="0 0 8 8" fill="none" xmlns="http://www.w3.org/2000/svg">
    <path d="M7.11494 4.42502C7.11494 4.56881 7.05848 4.70672 6.95799 4.8084C6.85751 4.91007 6.72123 4.96718 6.57913 4.96718C6.55084 4.96649 6.52266 4.96378 6.49475 4.95906H6.46793C6.02344 4.88093 5.61028 4.67588 5.27711 4.36809L5.77943 3.30004C5.87664 3.45675 6.0058 3.59066 6.15827 3.69281C6.31073 3.79495 6.483 3.86297 6.66353 3.89235C6.78987 3.91266 6.90484 3.97806 6.98769 4.07669C7.06931 4.17403 7.11437 4.29737 7.11494 4.42502Z" fill="#232323"/>
    <path d="M3.30936 5.77094C3.16772 5.88253 3.01347 5.97671 2.84988 6.0515C2.50083 6.20626 2.12319 6.2839 1.74212 6.27921C1.42473 6.28013 1.10889 6.23447 0.804452 6.14367C0.670506 6.09924 0.559257 6.00319 0.494817 5.87633C0.430378 5.74948 0.417931 5.60205 0.460185 5.46597C0.488694 5.37768 0.539142 5.29828 0.606695 5.23538C0.674249 5.17249 0.756626 5.12821 0.845953 5.10679C1.07635 5.05122 1.29872 5.1705 1.52376 5.19625C1.76471 5.22331 2.0086 5.20025 2.24042 5.12848C2.38598 5.08532 2.52228 5.01498 2.64228 4.9211C2.67492 5.02859 2.71988 5.13186 2.77623 5.22878C2.90883 5.44981 3.09159 5.63567 3.30936 5.77094Z" fill="#232323"/>
    <path d="M6.92204 7.63731C6.92204 7.69123 6.90085 7.74294 6.86317 7.78107C6.82549 7.8192 6.7744 7.84062 6.72111 7.84062H2.43462C2.38133 7.84062 2.33021 7.8192 2.29252 7.78107C2.25484 7.74294 2.23369 7.69123 2.23369 7.63731C2.23369 7.58339 2.25484 7.53169 2.29252 7.49356C2.33021 7.45544 2.38133 7.434 2.43462 7.434H5.11368C5.14448 7.434 5.15521 7.42588 5.15253 7.39064C5.1431 7.18756 5.12164 6.98525 5.08823 6.78478C5.04397 6.54873 4.95869 6.32249 4.83638 6.11656C4.76866 6.00536 4.68667 5.90373 4.59258 5.81431C4.56177 5.78585 4.52828 5.75738 4.49346 5.72892C4.36482 5.62716 4.21919 5.54958 4.06347 5.49986C3.72993 5.38601 3.42989 5.27758 3.23968 4.95771C3.16978 4.83917 3.12521 4.70712 3.10883 4.57008C3.09245 4.43305 3.10463 4.29407 3.14458 4.16209C3.19012 4.04281 3.25844 3.92624 3.31336 3.81103L3.76208 2.85141C3.77414 2.82566 3.84514 2.61693 3.87461 2.61015C3.7649 2.63155 3.65698 2.66146 3.5518 2.69961C3.18317 2.83987 2.84542 3.05219 2.55785 3.32445C2.5056 3.37216 2.44458 3.40899 2.37827 3.43284C2.31196 3.45668 2.24167 3.46706 2.17139 3.46341C2.10111 3.45976 2.03221 3.44215 1.96866 3.41156C1.90511 3.38097 1.84817 3.33801 1.80103 3.28514C1.75388 3.23227 1.71746 3.17055 1.69389 3.10345C1.67032 3.03635 1.66007 2.96522 1.66367 2.8941C1.66728 2.82299 1.68469 2.75329 1.71492 2.68899C1.74515 2.62469 1.78763 2.56705 1.83988 2.51935C2.23092 2.15273 2.68917 1.86722 3.18876 1.67899C3.54341 1.54833 3.91778 1.48092 4.29521 1.47975C4.48454 1.47941 4.67344 1.49803 4.85915 1.53533C4.90867 1.53901 4.95742 1.54997 5.00383 1.56786C5.06688 1.57724 5.12854 1.59454 5.18736 1.61936C5.38399 1.70259 5.53988 1.86144 5.62077 2.06098C5.70166 2.26051 5.70091 2.48438 5.61868 2.68335L5.57849 2.78093L4.71718 4.61207C4.76808 4.63647 4.82031 4.66222 4.86987 4.68932C4.91943 4.71643 5.00382 4.77201 5.06544 4.81674C5.26016 4.95647 5.43427 5.1235 5.58251 5.31282C5.88222 5.71245 6.07963 6.18085 6.15717 6.67634C6.21017 6.92795 6.22194 7.18667 6.192 7.44214C6.36748 7.44214 6.54295 7.44214 6.71843 7.44214C6.77081 7.44139 6.82141 7.46137 6.85944 7.49783C6.89748 7.53429 6.91995 7.58434 6.92204 7.63731Z" fill="#232323"/>
    <path d="M1.45945 7.434H0.975871C0.922581 7.434 0.871489 7.45543 0.833808 7.49356C0.796126 7.53169 0.774942 7.58338 0.774942 7.63731C0.774942 7.69123 0.796126 7.74294 0.833808 7.78107C0.871489 7.8192 0.922581 7.84061 0.975871 7.84061H1.45945C1.51274 7.84061 1.56384 7.8192 1.60152 7.78107C1.6392 7.74294 1.66038 7.69123 1.66038 7.63731C1.66038 7.58338 1.6392 7.53169 1.60152 7.49356C1.56384 7.45543 1.51274 7.434 1.45945 7.434Z" fill="#232323"/>
    <path d="M5.67495 1.50008C6.02783 1.50008 6.3139 1.21062 6.3139 0.853555C6.3139 0.49649 6.02783 0.207031 5.67495 0.207031C5.32206 0.207031 5.03599 0.49649 5.03599 0.853555C5.03599 1.21062 5.32206 1.50008 5.67495 1.50008Z" fill="#232323"/>
</svg>
