<svg width="15" height="18" viewBox="0 0 15 18" fill="none" xmlns="http://www.w3.org/2000/svg">
    <path d="M1.07257 14.2123C1.23963 14.4568 1.48129 14.638 1.75999 14.7276C2.56696 14.9719 3.39428 15.1397 4.23147 15.2292C5.30854 15.3542 6.39192 15.4154 7.47594 15.4125C8.56071 15.4155 9.64468 15.3543 10.7225 15.2292C11.5597 15.1397 12.387 14.9719 13.194 14.7276C13.4727 14.638 13.7144 14.4568 13.8815 14.2123C14.0377 13.9814 14.1208 13.7072 14.1197 13.4267C14.1196 13.2424 14.0831 13.0601 14.0125 12.8905C13.9419 12.7209 13.8384 12.5676 13.7085 12.4395C13.2813 11.9989 12.9719 11.454 12.8098 10.8569C12.6598 10.344 12.5841 9.81164 12.5851 9.27651C12.5851 9.04747 12.5964 8.86655 12.6076 8.71767C12.6256 8.51841 12.6391 8.31453 12.6391 8.1061C12.6402 7.88522 12.6237 7.66464 12.5896 7.4465C12.3936 6.22008 11.7775 5.10421 10.8506 4.29722C10.2747 3.791 9.59545 3.42174 8.8622 3.21616C9.06719 2.9243 9.17718 2.5742 9.17673 2.21524C9.17673 1.75722 8.99822 1.31798 8.68052 0.994112C8.36282 0.670246 7.93193 0.488281 7.48263 0.488281C7.03372 0.488888 6.60339 0.67115 6.28617 0.994951C5.96895 1.31875 5.79084 1.75762 5.79084 2.21524C5.79039 2.5742 5.90038 2.9243 6.10537 3.21616C5.37212 3.42174 4.69289 3.791 4.11694 4.29722C3.19005 5.10421 2.57382 6.22008 2.37786 7.4465C2.3438 7.66464 2.32732 7.88522 2.32849 8.1061C2.32849 8.31453 2.34201 8.51841 2.35998 8.71767C2.35998 8.86655 2.38236 9.05664 2.38236 9.27651C2.38587 9.81101 2.31405 10.3432 2.16898 10.8569C2.00367 11.4552 1.69027 12.0002 1.25896 12.4395C1.12901 12.5676 1.02571 12.7209 0.955074 12.8905C0.88444 13.0601 0.848013 13.2424 0.84789 13.4267C0.842789 13.7057 0.921157 13.9798 1.07257 14.2123ZM6.91424 2.79013C6.76773 2.63632 6.68695 2.42961 6.68956 2.21524C6.6873 2.00161 6.76808 1.79575 6.91424 1.64264C7.06457 1.49386 7.26642 1.41155 7.47594 1.41361C7.68623 1.41094 7.88895 1.49329 8.03983 1.64264C8.186 1.79575 8.26677 2.00161 8.26451 2.21524C8.26712 2.42961 8.18634 2.63632 8.03983 2.79013C7.88895 2.93948 7.68623 3.02183 7.47594 3.01917C7.37104 3.02122 7.26677 3.00206 7.1692 2.96275C7.07163 2.92343 6.98262 2.86474 6.90744 2.79013H6.91424Z" fill="white"/>
    <path d="M8.36331 15.8018C8.30474 15.7944 8.24531 15.7989 8.18844 15.8149C8.13156 15.831 8.07841 15.8583 8.03189 15.8953C7.98536 15.9323 7.94644 15.9783 7.91735 16.0306C7.88826 16.083 7.86951 16.1406 7.86228 16.2003C7.84424 16.3506 7.77313 16.489 7.66228 16.5897C7.54977 16.692 7.40417 16.7482 7.25341 16.7477C7.10445 16.748 6.96061 16.6926 6.84903 16.592C6.73767 16.4923 6.66568 16.3547 6.64673 16.2049C6.63106 16.0847 6.56938 15.9757 6.47504 15.9019C6.3807 15.828 6.26146 15.7954 6.1435 15.811C6.08492 15.8186 6.02833 15.8379 5.97708 15.8678C5.92583 15.8978 5.88087 15.9377 5.84477 15.9853C5.80867 16.033 5.78221 16.0874 5.76677 16.1455C5.75132 16.2036 5.74725 16.2643 5.75481 16.324C5.80233 16.6927 5.97951 17.0313 6.25354 17.2768C6.52899 17.5264 6.88485 17.6641 7.25341 17.6639C7.62468 17.6635 7.98289 17.5241 8.25997 17.2722C8.53424 17.0237 8.71007 16.6816 8.75431 16.3103C8.76827 16.19 8.73497 16.0691 8.66171 15.9738C8.58846 15.8785 8.48116 15.8167 8.36331 15.8018Z" fill="white"/>
</svg>
