<svg width="15" height="18" viewBox="0 0 15 18" fill="none" xmlns="http://www.w3.org/2000/svg">
    <path d="M7.20314 6.30915C7.58453 6.30915 7.96222 6.23379 8.31455 6.08743C8.66688 5.94107 8.98695 5.72658 9.25652 5.45617C9.52608 5.18575 9.73982 4.86477 9.88554 4.51152C10.0313 4.15827 10.1061 3.77967 10.1058 3.39742C10.1058 2.62587 9.79998 1.88588 9.25563 1.34032C8.71129 0.794746 7.97296 0.488281 7.20314 0.488281C6.43331 0.488281 5.69511 0.794746 5.15077 1.34032C4.60642 1.88588 4.30051 2.62587 4.30051 3.39742C4.30051 4.16921 4.60624 4.90943 5.15051 5.45541C5.69479 6.00139 6.43308 6.30846 7.20314 6.30915Z" fill="white"/>
    <path d="M14.1153 14.7935C14.1146 12.9566 13.386 11.1952 12.0898 9.89658C10.7936 8.59796 9.0359 7.86845 7.20314 7.86845C5.37038 7.86845 3.61275 8.59796 2.31655 9.89658C1.02035 11.1952 0.2917 12.9566 0.291016 14.7935C0.291016 18.6206 14.1153 18.6206 14.1153 14.7935Z" fill="white"/>
</svg>
