<svg width="39" height="39" viewBox="0 0 39 39" fill="none" xmlns="http://www.w3.org/2000/svg">
    <circle cx="19.4355" cy="19.543" r="18.1298" fill="#896CFE" stroke="#896CFE" stroke-width="1.9084"/>
    <path d="M9.2952 26.7706C9.55944 27.1373 9.94166 27.4091 10.3825 27.5436C11.6589 27.9099 12.9674 28.1618 14.2916 28.296C15.9952 28.4835 17.7088 28.5753 19.4234 28.5708C21.1392 28.5754 22.8537 28.4836 24.5585 28.296C25.8827 28.1618 27.1912 27.9099 28.4676 27.5436C28.9084 27.4091 29.2908 27.1373 29.5551 26.7706C29.8021 26.4242 29.9336 26.0129 29.9318 25.5921C29.9316 25.3158 29.874 25.0423 29.7623 24.7879C29.6505 24.5336 29.487 24.3035 29.2814 24.1115C28.6057 23.4505 28.1163 22.6331 27.8599 21.7374C27.6227 20.9682 27.503 20.1696 27.5046 19.3669C27.5046 19.0234 27.5224 18.752 27.5401 18.5287C27.5686 18.2298 27.5899 17.9239 27.5899 17.6113C27.5918 17.28 27.5656 16.9491 27.5117 16.6219C27.2017 14.7823 26.2272 13.1085 24.7612 11.898C23.8502 11.1386 22.7758 10.5848 21.616 10.2764C21.9403 9.83859 22.1143 9.31345 22.1135 8.77501C22.1135 8.08798 21.8312 7.42911 21.3287 6.94332C20.8262 6.45752 20.1446 6.18457 19.434 6.18457C18.7239 6.18548 18.0433 6.45887 17.5415 6.94457C17.0398 7.43027 16.7581 8.08858 16.7581 8.77501C16.7574 9.31345 16.9313 9.83859 17.2556 10.2764C16.0958 10.5848 15.0215 11.1386 14.1105 11.898C12.6444 13.1085 11.6697 14.7823 11.3598 16.6219C11.3059 16.9491 11.2798 17.28 11.2817 17.6113C11.2817 17.9239 11.3031 18.2298 11.3315 18.5287C11.3315 18.752 11.3669 19.0371 11.3669 19.3669C11.3724 20.1687 11.2588 20.967 11.0294 21.7374C10.7679 22.6349 10.2722 23.4524 9.59002 24.1115C9.38448 24.3035 9.22108 24.5336 9.10936 24.7879C8.99763 25.0423 8.94002 25.3158 8.93982 25.5921C8.93175 26.0107 9.05571 26.4218 9.2952 26.7706ZM18.535 9.63734C18.3032 9.40662 18.1755 9.09657 18.1796 8.77501C18.176 8.45456 18.3038 8.14578 18.535 7.91611C18.7727 7.69293 19.092 7.56947 19.4234 7.57256C19.756 7.56856 20.0767 7.69209 20.3153 7.91611C20.5465 8.14578 20.6743 8.45456 20.6707 8.77501C20.6748 9.09657 20.547 9.40662 20.3153 9.63734C20.0767 9.86136 19.756 9.98489 19.4234 9.9809C19.2575 9.98397 19.0926 9.95524 18.9382 9.89627C18.7839 9.83729 18.6431 9.74925 18.5242 9.63734L18.535 9.63734Z" fill="white"/>
    <path d="M20.827 29.1548C20.7343 29.1438 20.6403 29.1505 20.5504 29.1746C20.4604 29.1986 20.3763 29.2396 20.3027 29.2951C20.2292 29.3506 20.1676 29.4196 20.1216 29.4981C20.0756 29.5766 20.0459 29.6631 20.0345 29.7526C20.0059 29.978 19.8935 30.1856 19.7181 30.3367C19.5402 30.4901 19.3099 30.5745 19.0714 30.5737C18.8358 30.5741 18.6083 30.491 18.4318 30.3401C18.2557 30.1906 18.1418 29.9842 18.1118 29.7595C18.0871 29.5792 17.9895 29.4157 17.8403 29.305C17.6911 29.1942 17.5025 29.1452 17.3159 29.1686C17.2232 29.18 17.1337 29.209 17.0527 29.2539C16.9716 29.2988 16.9005 29.3586 16.8434 29.4301C16.7863 29.5016 16.7444 29.5833 16.72 29.6704C16.6956 29.7576 16.6891 29.8486 16.7011 29.9382C16.7763 30.4912 17.0565 30.9991 17.4899 31.3673C17.9256 31.7418 18.4885 31.9484 19.0714 31.9479C19.6587 31.9474 20.2252 31.7383 20.6635 31.3605C21.0973 30.9877 21.3754 30.4746 21.4454 29.9175C21.4675 29.7372 21.4148 29.5558 21.2989 29.4128C21.1831 29.2699 21.0134 29.1772 20.827 29.1548Z" fill="white"/>
</svg>
