<svg width="10" height="10" viewBox="0 0 10 10" fill="none" xmlns="http://www.w3.org/2000/svg">
    <path d="M4.77436 9.52724C5.91306 9.52688 7.00503 9.07431 7.81021 8.269C8.61539 7.46369 9.06789 6.37156 9.06826 5.23268C9.06789 4.09393 8.61533 3.00192 7.81011 2.19683C7.00489 1.39173 5.91294 0.939453 4.77436 0.939453C3.63579 0.939453 2.5438 1.39173 1.73858 2.19683C0.933357 3.00192 0.480831 4.09393 0.480469 5.23268C0.480831 6.37156 0.93333 7.46369 1.73851 8.269C2.5437 9.07431 3.63566 9.52688 4.77436 9.52724ZM2.91402 6.33428L4.50139 5.1057V3.37888C4.50139 3.30647 4.53013 3.23702 4.58133 3.18582C4.63252 3.13461 4.70196 3.10586 4.77436 3.10586C4.84676 3.10586 4.91617 3.13461 4.96736 3.18582C5.01856 3.23702 5.04734 3.30647 5.04734 3.37888V5.23948C5.04734 5.23948 5.04734 5.25042 5.04734 5.25588C5.04734 5.26134 5.04734 5.27498 5.04734 5.28454C5.0457 5.29289 5.04341 5.3011 5.04051 5.3091C5.04129 5.31773 5.04129 5.32643 5.04051 5.33506L5.02958 5.35962L5.01731 5.38282L5.00229 5.40468C4.9971 5.41169 4.99116 5.41809 4.98456 5.42378C4.97844 5.43127 4.97156 5.43812 4.96406 5.44424L4.95314 5.45517L3.25934 6.7725C3.20226 6.81669 3.13002 6.83645 3.0584 6.82749C2.98679 6.81854 2.92161 6.78159 2.87716 6.72471C2.85341 6.6969 2.83548 6.6646 2.82445 6.62973C2.81342 6.59485 2.80952 6.5581 2.81295 6.52168C2.81639 6.48526 2.82711 6.44993 2.84448 6.41773C2.86184 6.38554 2.88548 6.35715 2.91402 6.33428Z" fill="#232323"/>
</svg>
