<svg width="39" height="40" viewBox="0 0 39 40" fill="none" xmlns="http://www.w3.org/2000/svg">
    <circle cx="19.4355" cy="20" r="19.084" fill="#896CFE"/>
    <path d="M19.4346 15.6802C19.9611 15.6802 20.4825 15.5756 20.9688 15.3723C21.4552 15.169 21.8971 14.8711 22.2692 14.4955C22.6413 14.12 22.9364 13.6742 23.1375 13.1835C23.3387 12.6929 23.442 12.1671 23.4415 11.6362C23.4415 10.5646 23.0194 9.53682 22.268 8.77908C21.5165 8.02135 20.4973 7.5957 19.4346 7.5957C18.3718 7.5957 17.3528 8.02135 16.6013 8.77908C15.8499 9.53682 15.4276 10.5646 15.4276 11.6362C15.4276 12.7081 15.8496 13.7362 16.601 14.4945C17.3523 15.2528 18.3715 15.6793 19.4346 15.6802Z" fill="white"/>
    <path d="M28.9765 27.4641C28.9756 24.9129 27.9699 22.4664 26.1805 20.6628C24.3912 18.8591 21.9646 17.8459 19.4346 17.8459C16.9045 17.8459 14.4781 18.8591 12.6888 20.6628C10.8994 22.4664 9.89352 24.9129 9.89258 27.4641C9.89258 32.7795 28.9765 32.7795 28.9765 27.4641Z" fill="white"/>
</svg>
