<svg width="15" height="16" viewBox="0 0 15 16" fill="none" xmlns="http://www.w3.org/2000/svg">
    <g clip-path="url(#clip0_476_6939)">
        <path d="M13.9095 4.62513L11.2004 3.91463C10.8655 3.82558 10.5755 3.60715 10.3896 3.30367L8.90318 0.839241C8.78418 0.63698 8.61693 0.470275 8.41766 0.355383C8.21839 0.24049 7.99391 0.181328 7.76615 0.18366C7.53895 0.181922 7.31522 0.241367 7.11657 0.356231C6.91793 0.471095 6.75114 0.637481 6.63243 0.839241L5.14273 3.30367C4.9588 3.60766 4.66973 3.8264 4.33528 3.91463L1.62617 4.62513C1.40579 4.68274 1.20305 4.7977 1.03702 4.95923C0.870982 5.12077 0.747111 5.32358 0.676943 5.54864C0.606774 5.77371 0.592581 6.01364 0.635826 6.24594C0.679071 6.47824 0.778282 6.6953 0.924126 6.87675L2.71379 9.11121C2.93505 9.38709 3.04595 9.74102 3.02357 10.0997L2.83569 13.0035C2.82353 13.1945 2.84907 13.386 2.91076 13.5663C2.97246 13.7466 3.069 13.9118 3.1944 14.0517C3.31979 14.1916 3.47139 14.3033 3.63984 14.3798C3.80829 14.4563 3.99002 14.4961 4.17379 14.4966C4.3453 14.4965 4.51526 14.4627 4.67476 14.397L7.26849 13.3124C7.42704 13.2475 7.59578 13.2137 7.76615 13.2129C7.93763 13.2134 8.10751 13.2471 8.26712 13.3124L10.8609 14.397C11.0204 14.4627 11.1904 14.4965 11.3619 14.4966C11.5457 14.4961 11.7273 14.4563 11.8958 14.3798C12.0642 14.3033 12.2158 14.1916 12.3412 14.0517C12.4666 13.9118 12.5632 13.7466 12.6248 13.5663C12.6865 13.386 12.7121 13.1945 12.6999 13.0035L12.5121 10.0997C12.4897 9.74102 12.6006 9.38709 12.8219 9.11121L14.6115 6.87675C14.7573 6.6953 14.8565 6.47824 14.8998 6.24594C14.943 6.01364 14.9289 5.77371 14.8587 5.54864C14.7886 5.32358 14.6646 5.12077 14.4986 4.95923C14.3326 4.7977 14.1299 4.68274 13.9095 4.62513Z" fill="#896CFE"/>
    </g>
    <defs>
        <clipPath id="clip0_476_6939">
            <rect width="14.313" height="15.2672" fill="white" transform="translate(0.611328 0.183594)"/>
        </clipPath>
    </defs>
</svg>
