<svg width="8" height="10" viewBox="0 0 8 10" fill="none" xmlns="http://www.w3.org/2000/svg">
    <path d="M2.40625 3.12467C2.78126 2.59684 3.13521 2.11651 3.25372 1.52534C3.25372 1.52534 3.25372 1.52534 3.25372 1.51303C3.13206 1.37477 2.99262 1.25625 2.83973 1.16114C2.8249 1.15005 2.80763 1.14332 2.78968 1.14164C2.77172 1.13995 2.75366 1.14336 2.73728 1.15152C2.7209 1.15969 2.7068 1.17233 2.6963 1.1882C2.68579 1.20408 2.67927 1.22265 2.67739 1.24208C2.65985 1.35366 2.63651 1.46409 2.60755 1.57285C2.55677 1.7533 2.4777 1.92292 2.37379 2.07429C2.17898 2.35756 1.93871 2.61267 1.72442 2.88187C1.21466 3.52406 0.823423 4.31756 0.924075 5.19024C0.953776 5.45094 1.02812 5.70334 1.14325 5.93448C1.26749 5.11967 1.56727 4.34809 2.01827 3.68241C2.14165 3.49239 2.27638 3.30589 2.40625 3.12467Z" fill="#232323"/>
    <path d="M6.94701 3.44137C6.94279 3.43989 6.93823 3.43989 6.93401 3.44137C6.935 3.5601 6.92135 3.67844 6.89342 3.79325C6.85904 3.90251 6.80372 4.00264 6.73108 4.08708C6.67043 4.16344 6.59584 4.22537 6.51202 4.26898C6.4282 4.31258 6.33697 4.33691 6.24405 4.34043C6.09853 4.3388 5.95823 4.28147 5.84794 4.17857C5.51189 3.87594 5.44532 3.35867 5.34791 2.92585C5.24862 2.48998 5.05759 2.08494 4.78974 1.74246C4.52189 1.39998 4.1845 1.12935 3.80403 0.951769C3.78829 0.943708 3.7711 0.939503 3.75369 0.939453C3.72206 0.939406 3.69164 0.952524 3.66868 0.976098C3.64571 0.999672 3.63197 1.0319 3.63031 1.06613C3.61786 1.24685 3.59565 1.42662 3.56376 1.60452C3.38519 2.50183 2.75206 3.16513 2.27802 3.89178C1.73579 4.72751 1.35589 5.74798 1.4533 6.78604C1.57343 8.06867 2.41112 9.00645 3.43551 9.42519C3.24504 9.27551 3.08597 9.08385 2.96873 8.86278C2.85149 8.64172 2.77876 8.39627 2.7553 8.14257C2.72452 7.53168 2.89224 6.92843 3.22933 6.43768C3.49882 6.01014 3.8641 5.61954 3.968 5.09171C3.98659 4.98711 3.99906 4.88133 4.00533 4.77501C4.00564 4.76227 4.00886 4.7498 4.01469 4.73872C4.02051 4.72764 4.02874 4.71829 4.0387 4.7115C4.04866 4.70471 4.06002 4.70069 4.07176 4.6998C4.0835 4.69891 4.09527 4.70118 4.106 4.7064C4.32533 4.8141 4.51886 4.97498 4.67171 5.17663C4.82455 5.37828 4.93261 5.61529 4.98752 5.86938C5.04271 6.12274 5.08168 6.42888 5.27487 6.60658C5.54111 6.85114 5.89337 6.58899 5.89499 6.23534V6.19839L5.90962 6.17552C5.94567 6.23753 5.97769 6.3022 6.00541 6.36906V6.37786C6.16652 6.74861 6.25741 7.1506 6.27275 7.56008C6.28808 7.96955 6.22756 8.3782 6.09471 8.76189C6.0324 8.92752 5.94697 9.0818 5.84144 9.21934C5.75054 9.33644 5.6457 9.43997 5.52972 9.52724C6.03501 9.36539 6.48614 9.04819 6.82846 8.61409C7.01194 8.3809 7.16144 8.11864 7.2717 7.83643C7.36923 7.58499 7.44423 7.32398 7.49571 7.057C7.54737 6.78703 7.57726 6.51269 7.58501 6.2371C7.59337 5.9597 7.58143 5.68201 7.5493 5.40665C7.51785 5.13242 7.4668 4.86124 7.39667 4.59555C7.32819 4.33373 7.24026 4.07837 7.13369 3.83196C7.10447 3.76686 7.07361 3.69824 7.04277 3.63314L6.99243 3.52934C6.98341 3.49676 6.96792 3.46673 6.94701 3.44137Z" fill="#232323"/>
</svg>
