<svg width="44" height="44" viewBox="0 0 44 44" fill="none" xmlns="http://www.w3.org/2000/svg">
    <circle cx="22.4538" cy="22.1697" r="21.4695" fill="#B3A0FF"/>
    <g clip-path="url(#clip0_476_7523)">
        <path d="M33.509 16.1067L28.6326 14.8633C28.0297 14.7075 27.5078 14.3252 27.1731 13.7941L24.4976 9.48137C24.2834 9.12741 23.9824 8.83568 23.6237 8.63461C23.265 8.43355 22.8609 8.33002 22.451 8.3341C22.042 8.33106 21.6393 8.43509 21.2817 8.6361C20.9242 8.83711 20.6239 9.12829 20.4102 9.48137L17.7288 13.7941C17.3977 14.3261 16.8774 14.7089 16.2754 14.8633L11.399 16.1067C11.0023 16.2075 10.6374 16.4087 10.3385 16.6914C10.0396 16.974 9.81668 17.329 9.69037 17.7228C9.56407 18.1167 9.53852 18.5366 9.61636 18.9431C9.6942 19.3496 9.87278 19.7295 10.1353 20.047L13.3567 23.9573C13.755 24.4401 13.9546 25.0595 13.9143 25.6872L13.5761 30.7688C13.5542 31.103 13.6002 31.4382 13.7112 31.7537C13.8223 32.0692 13.9961 32.3583 14.2218 32.6032C14.4475 32.848 14.7204 33.0434 15.0236 33.1773C15.3268 33.3112 15.6539 33.3808 15.9847 33.3817C16.2934 33.3815 16.5993 33.3224 16.8864 33.2075L21.5552 31.3094C21.8405 31.1958 22.1443 31.1367 22.451 31.1352C22.7596 31.1361 23.0654 31.1952 23.3527 31.3094L28.0215 33.2075C28.3086 33.3224 28.6146 33.3815 28.9233 33.3817C29.2541 33.3808 29.581 33.3112 29.8843 33.1773C30.1875 33.0434 30.4604 32.848 30.6861 32.6032C30.9118 32.3583 31.0855 32.0692 31.1966 31.7537C31.3076 31.4382 31.3536 31.103 31.3317 30.7688L30.9937 25.6872C30.9534 25.0595 31.153 24.4401 31.5513 23.9573L34.7725 20.047C35.0351 19.7295 35.2136 19.3496 35.2915 18.9431C35.3693 18.5366 35.3439 18.1167 35.2176 17.7228C35.0913 17.329 34.8682 16.974 34.5693 16.6914C34.2705 16.4087 33.9057 16.2075 33.509 16.1067Z" fill="white"/>
    </g>
    <defs>
        <clipPath id="clip0_476_7523">
            <rect width="25.7634" height="26.7176" fill="white" transform="translate(9.57227 8.33398)"/>
        </clipPath>
    </defs>
</svg>
