<svg width="44" height="44" viewBox="0 0 44 44" fill="none" xmlns="http://www.w3.org/2000/svg">
    <circle cx="22.362" cy="21.9958" r="21.4695" fill="#B3A0FF"/>
    <path d="M11.7606 30.0794C12.0368 30.4869 12.4364 30.7889 12.8973 30.9383C14.2317 31.3453 15.5998 31.6252 16.9841 31.7743C18.7652 31.9826 20.5566 32.0846 22.3492 32.0797C24.1429 32.0847 25.9354 31.9827 27.7177 31.7743C29.102 31.6252 30.4701 31.3453 31.8045 30.9383C32.2653 30.7889 32.6651 30.4869 32.9414 30.0794C33.1996 29.6945 33.3371 29.2375 33.3352 28.77C33.335 28.463 33.2748 28.1591 33.158 27.8765C33.0412 27.5938 32.8702 27.3382 32.6553 27.1248C31.9488 26.3904 31.4372 25.4822 31.1692 24.487C30.9212 23.6323 30.796 22.745 30.7976 21.8531C30.7976 21.4714 30.8163 21.1698 30.8348 20.9217C30.8646 20.5896 30.8869 20.2498 30.8869 19.9024C30.8888 19.5343 30.8614 19.1666 30.8051 18.8031C30.4811 16.759 29.4622 14.8993 27.9295 13.5543C26.9771 12.7106 25.854 12.0951 24.6415 11.7525C24.9804 11.2661 25.1623 10.6826 25.1616 10.0843C25.1616 9.32096 24.8664 8.58888 24.3411 8.04911C23.8157 7.50933 23.1032 7.20605 22.3602 7.20605C21.6179 7.20707 20.9063 7.51084 20.3818 8.0505C19.8572 8.59017 19.5627 9.32162 19.5627 10.0843C19.5619 10.6826 19.7438 11.2661 20.0828 11.7525C18.8703 12.0951 17.7471 12.7106 16.7947 13.5543C15.262 14.8993 14.243 16.759 13.919 18.8031C13.8627 19.1666 13.8354 19.5343 13.8374 19.9024C13.8374 20.2498 13.8597 20.5896 13.8894 20.9217C13.8894 21.1698 13.9265 21.4866 13.9265 21.8531C13.9323 22.7439 13.8135 23.6309 13.5736 24.487C13.3003 25.4842 12.782 26.3925 12.0688 27.1248C11.8539 27.3382 11.6831 27.5938 11.5663 27.8765C11.4495 28.1591 11.3893 28.463 11.3891 28.77C11.3806 29.2351 11.5102 29.6919 11.7606 30.0794ZM21.4203 11.0425C21.1781 10.7861 21.0445 10.4416 21.0488 10.0843C21.0451 9.72827 21.1786 9.38517 21.4203 9.12999C21.6689 8.88201 22.0027 8.74484 22.3492 8.74826C22.6969 8.74383 23.0321 8.88108 23.2816 9.12999C23.5233 9.38517 23.6569 9.72827 23.6531 10.0843C23.6575 10.4416 23.5239 10.7861 23.2816 11.0425C23.0321 11.2914 22.6969 11.4286 22.3492 11.4242C22.1757 11.4276 22.0033 11.3957 21.8419 11.3302C21.6806 11.2646 21.5334 11.1668 21.4091 11.0425H21.4203Z" fill="white"/>
    <path d="M23.8165 32.7286C23.7197 32.7163 23.6214 32.7238 23.5273 32.7505C23.4333 32.7772 23.3454 32.8227 23.2685 32.8844C23.1915 32.9461 23.1272 33.0227 23.0791 33.1099C23.031 33.1972 23 33.2933 22.988 33.3928C22.9582 33.6432 22.8406 33.8739 22.6573 34.0417C22.4712 34.2122 22.2305 34.306 21.9812 34.3051C21.7349 34.3055 21.497 34.2132 21.3125 34.0455C21.1284 33.8795 21.0093 33.6501 20.978 33.4004C20.9521 33.2001 20.8501 33.0185 20.6941 32.8954C20.5381 32.7723 20.3409 32.7179 20.1459 32.7439C20.049 32.7566 19.9554 32.7888 19.8707 32.8386C19.7859 32.8885 19.7116 32.955 19.6519 33.0345C19.5922 33.1139 19.5484 33.2046 19.5229 33.3015C19.4973 33.3983 19.4906 33.4994 19.5031 33.5989C19.5817 34.2135 19.8747 34.7777 20.3278 35.1869C20.7833 35.6029 21.3717 35.8325 21.9812 35.832C22.5951 35.8314 23.1875 35.5991 23.6456 35.1793C24.0992 34.7651 24.3899 34.1949 24.4631 33.576C24.4862 33.3757 24.4311 33.174 24.31 33.0153C24.1888 32.8565 24.0114 32.7534 23.8165 32.7286Z" fill="white"/>
</svg>
