<svg width="14" height="15" viewBox="0 0 14 15" fill="none" xmlns="http://www.w3.org/2000/svg">
    <g clip-path="url(#clip0_505_5638)">
        <path d="M11.1179 10.9931L13.7429 8.36807C14.0847 8.02627 14.0847 7.47119 13.7429 7.12939L11.1179 4.50439C10.7761 4.1626 10.2211 4.1626 9.87927 4.50439C9.53748 4.84619 9.53748 5.40127 9.87927 5.74307L11.0113 6.8751H2.98591L4.11794 5.74307C4.45974 5.40127 4.45974 4.84619 4.11794 4.50439C3.77615 4.1626 3.22107 4.1626 2.87927 4.50439L0.254272 7.12939C-0.0875244 7.47119 -0.0875244 8.02627 0.254272 8.36807L2.87927 10.9931C3.22107 11.3349 3.77615 11.3349 4.11794 10.9931C4.45974 10.6513 4.45974 10.0962 4.11794 9.75439L2.98865 8.6251H11.014L9.88201 9.75713C9.54021 10.0989 9.54021 10.654 9.88201 10.9958C10.2238 11.3376 10.7789 11.3376 11.1207 10.9958L11.1179 10.9931Z" fill="#22C55E"/>
    </g>
    <defs>
        <clipPath id="clip0_505_5638">
            <path d="M0 0.75H14V14.75H0V0.75Z" fill="white"/>
        </clipPath>
    </defs>
</svg>
