<svg width="31" height="32" viewBox="0 0 31 32" fill="none" xmlns="http://www.w3.org/2000/svg">
    <path d="M16.8198 18.8271C16.819 17.795 17.0196 16.7728 17.41 15.8191C17.8005 14.8653 18.3731 13.9988 19.0952 13.269C19.8174 12.5391 20.6748 11.9603 21.6185 11.5657C22.5622 11.1711 23.5736 10.9685 24.5948 10.9693C25.062 10.9716 25.528 11.0159 25.9874 11.1019C25.7967 10.7871 25.5882 10.4836 25.3629 10.193C23.3021 7.66837 19.6988 5.72447 16.8136 8.17964C16.5561 8.41135 16.3122 8.65793 16.083 8.91811C15.4396 9.75284 14.8926 10.6591 14.4529 11.6194C14.4001 11.7317 14.3258 11.8324 14.2345 11.9158C14.1431 11.9991 14.0364 12.0634 13.9204 12.1051C13.8044 12.1467 13.6813 12.1647 13.5584 12.1583C13.4355 12.1518 13.3151 12.1211 13.2039 12.0675C13.0928 12.0141 12.9932 11.9391 12.9107 11.8467C12.8283 11.7544 12.7645 11.6465 12.7234 11.5292C12.6822 11.412 12.6644 11.2877 12.6708 11.1635C12.6771 11.0393 12.7076 10.9175 12.7606 10.8052C12.8168 10.6853 12.873 10.578 12.9354 10.4644C11.3666 10.4161 9.81255 10.1419 8.3203 9.65018C7.19729 9.26878 6.14281 8.70608 5.1978 7.98394C4.24527 8.56912 3.40014 9.31649 2.6998 10.193C0.0394318 13.4876 0.0331991 17.6216 1.30718 21.5536V21.642C2.60614 25.5741 5.32278 30.7748 9.65057 31.854C10.374 32.0213 11.1254 32.0213 11.8488 31.854C12.6794 31.6773 13.3475 31.0588 14.2531 31.1661C14.9213 31.2418 15.5021 31.6836 16.1266 31.8603C16.8562 32.0466 17.6202 32.0466 18.3498 31.8603C20.9228 31.2292 22.9211 29.1211 24.4012 26.6975C22.3696 26.6496 20.4377 25.7985 19.0202 24.327C17.6027 22.8555 16.8127 20.8808 16.8198 18.8271Z" fill="white"/>
    <path d="M7.72702 7.32763C9.42999 8.13663 11.2848 8.56707 13.1664 8.58992C13.0558 7.96904 12.8865 7.36034 12.6607 6.77221C11.8843 4.69014 10.4309 2.93646 8.5389 1.79876C6.85309 0.814095 4.98017 0.201093 3.04327 0C3.12575 1.00889 3.35518 1.9999 3.72403 2.9411C4.46633 4.8592 5.89522 6.42506 7.72702 7.32763Z" fill="white"/>
    <path d="M28.7914 23.0243C29.34 22.4712 29.7753 21.814 30.0721 21.0905C30.369 20.367 30.5216 19.5914 30.5213 18.8082C30.5221 18.024 30.3697 17.2473 30.0729 16.5228C29.776 15.7982 29.3405 15.14 28.7914 14.5859C28.244 14.0319 27.5936 13.5928 26.8777 13.2939C26.1617 12.9949 25.3944 12.842 24.6198 12.8439C23.8442 12.8419 23.0758 12.9947 22.3589 13.2937C21.6419 13.5926 20.9905 14.0318 20.4419 14.5859C19.8869 15.1404 19.4464 15.801 19.1463 16.5291C18.8461 17.2572 18.6921 18.0384 18.6933 18.8272C18.6921 19.6099 18.8438 20.3852 19.1396 21.1087C19.4353 21.8321 19.8694 22.4896 20.4169 23.0433C20.9652 23.5982 21.6165 24.0383 22.3334 24.3383C23.0504 24.6383 23.8188 24.7923 24.5948 24.7915C25.3753 24.793 26.1483 24.6375 26.8688 24.3341C27.5893 24.0307 28.2429 23.5855 28.7914 23.0243ZM24.2763 21.295C24.1103 21.478 23.88 21.5878 23.6347 21.6008C23.3894 21.6138 23.1489 21.5289 22.9649 21.3644L21.4285 20.0011C21.2425 19.8347 21.129 19.6008 21.1126 19.3502C21.0962 19.0997 21.1784 18.8527 21.3412 18.663C21.5058 18.475 21.7373 18.3603 21.9852 18.3438C22.2331 18.3272 22.4775 18.4102 22.6652 18.5747L23.5144 19.3321L26.5806 15.9617C26.6633 15.8703 26.7631 15.7963 26.8741 15.744C26.9852 15.6916 27.1054 15.6619 27.2279 15.6566C27.3503 15.6513 27.4726 15.6706 27.5877 15.7132C27.7028 15.7558 27.8083 15.821 27.8984 15.9049C27.9891 15.989 28.0624 16.0904 28.1143 16.2032C28.1662 16.3159 28.1955 16.4379 28.2008 16.5622C28.206 16.6865 28.187 16.8105 28.1448 16.9273C28.1026 17.0441 28.0379 17.1514 27.9547 17.243L24.2763 21.295Z" fill="white"/>
</svg>
