<svg width="44" height="44" viewBox="0 0 44 44" fill="none" xmlns="http://www.w3.org/2000/svg">
    <circle cx="22.4538" cy="21.6833" r="21.4695" fill="#B3A0FF"/>
    <path d="M29.2054 15.1809C28.4004 15.1809 27.6284 14.8696 27.0592 14.3153C26.49 13.7611 26.1701 13.0094 26.1701 12.2257V6.89356H13.4205C12.9056 6.89294 12.4114 7.09091 12.046 7.44417C11.6832 7.7999 11.4798 8.28111 11.4805 8.78245V33.6376C11.4797 33.8838 11.5293 34.1278 11.6264 34.3551C11.7235 34.5825 11.8662 34.7888 12.046 34.9619C12.2257 35.139 12.4397 35.2796 12.6757 35.3753C12.9116 35.471 13.1649 35.52 13.4205 35.5195H32.4412C32.6968 35.52 32.9501 35.471 33.186 35.3753C33.422 35.2796 33.636 35.139 33.8157 34.9619C33.9955 34.7888 34.1382 34.5825 34.2353 34.3551C34.3324 34.1278 34.382 33.8838 34.3812 33.6376V15.1809H29.2054ZM14.7449 10.5458H18.854C19.1388 10.5458 19.4119 10.656 19.6133 10.8521C19.8146 11.0481 19.9278 11.3141 19.9278 11.5914C19.9278 11.8686 19.8146 12.1346 19.6133 12.3306C19.4119 12.5267 19.1388 12.6369 18.854 12.6369H14.7449C14.4601 12.6369 14.187 12.5267 13.9856 12.3306C13.7842 12.1346 13.6711 11.8686 13.6711 11.5914C13.6711 11.3141 13.7842 11.0481 13.9856 10.8521C14.187 10.656 14.4601 10.5458 14.7449 10.5458ZM14.7449 16.568H22.9559C23.2407 16.568 23.5138 16.6781 23.7152 16.8742C23.9166 17.0703 24.0297 17.3362 24.0297 17.6135C24.0297 17.8908 23.9166 18.1567 23.7152 18.3528C23.5138 18.5488 23.2407 18.659 22.9559 18.659H14.7449C14.4601 18.659 14.187 18.5488 13.9856 18.3528C13.7842 18.1567 13.6711 17.8908 13.6711 17.6135C13.6711 17.3362 13.7842 17.0703 13.9856 16.8742C14.187 16.6781 14.4601 16.568 14.7449 16.568ZM14.6303 23.078H31.2099C31.4947 23.078 31.7678 23.1881 31.9692 23.3842C32.1706 23.5803 32.2837 23.8462 32.2837 24.1235C32.2837 24.4008 32.1706 24.6667 31.9692 24.8628C31.7678 25.0588 31.4947 25.169 31.2099 25.169H14.6017C14.317 25.169 14.0438 25.0588 13.8424 24.8628C13.6411 24.6667 13.5279 24.4008 13.5279 24.1235C13.5251 23.9845 13.5507 23.8463 13.6034 23.717C13.656 23.5877 13.7348 23.47 13.8348 23.3706C13.9348 23.2713 14.0541 23.1925 14.1858 23.1386C14.3175 23.0848 14.4589 23.057 14.6017 23.0571L14.6303 23.078ZM31.3459 31.4211H14.7449C14.4601 31.4211 14.187 31.311 13.9856 31.1149C13.7842 30.9188 13.6711 30.6529 13.6711 30.3756C13.6711 30.0983 13.7842 29.8324 13.9856 29.6363C14.187 29.4403 14.4601 29.3301 14.7449 29.3301H31.3745C31.6593 29.3301 31.9324 29.4403 32.1338 29.6363C32.3352 29.8324 32.4483 30.0983 32.4483 30.3756C32.4484 30.5153 32.4197 30.6536 32.3639 30.7823C32.3082 30.911 32.2265 31.0275 32.1238 31.1249C32.021 31.2224 31.8993 31.2988 31.7657 31.3497C31.6321 31.4006 31.4893 31.4248 31.3459 31.4211Z" fill="white"/>
    <path d="M29.2054 13.0899H34.3812L28.3177 7.36054V12.2396C28.3187 12.3521 28.3424 12.4635 28.3876 12.5671C28.4327 12.6708 28.4982 12.7648 28.5807 12.8437C28.6631 12.9227 28.7607 12.9851 28.8679 13.0273C28.9751 13.0696 29.0898 13.0908 29.2054 13.0899Z" fill="white"/>
</svg>
