<svg width="44" height="44" viewBox="0 0 44 44" fill="none" xmlns="http://www.w3.org/2000/svg">
    <circle cx="21.5456" cy="21.989" r="21.4695" fill="#C7BDFC" fill-opacity="0.9886"/>
    <path d="M29.0916 28.2539L34.4249 31.7058C34.9005 32.0139 35.2297 32.4918 35.3402 33.0341C35.4507 33.5765 35.3334 34.1391 35.0141 34.598C34.6948 35.0569 34.1996 35.3746 33.6376 35.4812C33.0755 35.5879 32.4927 35.4747 32.0171 35.1666C31.7649 35.001 31.5509 34.7869 31.3885 34.5378L28.0009 29.2708C27.9082 29.1254 27.8698 28.9538 27.8919 28.7844C27.9076 28.6648 27.9528 28.5512 28.0229 28.4531C24.4893 31.7415 19.5436 31.3892 19.5436 31.3892C19.5436 31.3892 11.4004 31.969 8.54434 24.6996C7.43053 21.8327 7.43053 18.6737 8.54434 15.8068C11.4004 8.54189 19.5436 9.1172 19.5436 9.1172C19.5436 9.1172 27.682 8.54635 30.5381 15.8068C31.6565 18.6728 31.6565 21.8336 30.5381 24.6996C29.9515 26.1925 29.1421 27.3544 28.2262 28.2582C28.3344 28.1874 28.46 28.1436 28.5916 28.132C28.7678 28.1165 28.9442 28.1595 29.0916 28.2539Z" fill="#896CFE"/>
    <ellipse cx="19.3615" cy="20.1129" rx="8.73845" ry="8.07093" fill="#C7BDFC" fill-opacity="0.9886"/>
</svg>
