<svg width="23" height="21" viewBox="0 0 23 21" fill="none" xmlns="http://www.w3.org/2000/svg">
    <g clip-path="url(#clip0_476_12388)">
        <g clip-path="url(#clip1_476_12388)">
            <path d="M16.0156 0.5H7.26562C6.23047 0.5 5.38672 1.35156 5.42578 2.38281C5.43359 2.58984 5.44141 2.79688 5.45312 3H1.32812C0.808594 3 0.390625 3.41797 0.390625 3.9375C0.390625 7.55469 1.69922 10.0703 3.45703 11.7773C5.1875 13.4609 7.29688 14.3086 8.85156 14.7383C9.76562 14.9922 10.3906 15.7539 10.3906 16.5195C10.3906 17.3359 9.72656 18 8.91016 18H7.89062C7.19922 18 6.64062 18.5586 6.64062 19.25C6.64062 19.9414 7.19922 20.5 7.89062 20.5H15.3906C16.082 20.5 16.6406 19.9414 16.6406 19.25C16.6406 18.5586 16.082 18 15.3906 18H14.3711C13.5547 18 12.8906 17.3359 12.8906 16.5195C12.8906 15.7539 13.5117 14.9883 14.4297 14.7383C15.9883 14.3086 18.0977 13.4609 19.8281 11.7773C21.582 10.0703 22.8906 7.55469 22.8906 3.9375C22.8906 3.41797 22.4727 3 21.9531 3H17.8281C17.8398 2.79688 17.8477 2.59375 17.8555 2.38281C17.8945 1.35156 17.0508 0.5 16.0156 0.5ZM2.30078 4.875H5.59766C5.95312 8.39453 6.73828 10.7461 7.625 12.3203C6.65234 11.8906 5.64062 11.2852 4.76562 10.4336C3.51562 9.21875 2.5 7.46484 2.30469 4.875H2.30078ZM18.5195 10.4336C17.6445 11.2852 16.6328 11.8906 15.6602 12.3203C16.5469 10.7461 17.332 8.39453 17.6875 4.875H20.9844C20.7852 7.46484 19.7695 9.21875 18.5234 10.4336H18.5195Z" fill="#FFD700"/>
        </g>
    </g>
    <defs>
        <clipPath id="clip0_476_12388">
            <rect width="22.5" height="20" fill="white" transform="translate(0.390625 0.5)"/>
        </clipPath>
        <clipPath id="clip1_476_12388">
            <path d="M0.390625 0.5H22.8906V20.5H0.390625V0.5Z" fill="white"/>
        </clipPath>
    </defs>
</svg>
