<svg width="19" height="19" viewBox="0 0 19 19" fill="none" xmlns="http://www.w3.org/2000/svg">
    <g clip-path="url(#clip0_476_10939)">
        <path d="M5.88242 2.52813L5.5168 3.625H2.89062C1.64961 3.625 0.640625 4.63398 0.640625 5.875V14.875C0.640625 16.116 1.64961 17.125 2.89062 17.125H16.3906C17.6316 17.125 18.6406 16.116 18.6406 14.875V5.875C18.6406 4.63398 17.6316 3.625 16.3906 3.625H13.7645L13.3988 2.52813C13.1703 1.83906 12.527 1.375 11.7992 1.375H7.48203C6.7543 1.375 6.11094 1.83906 5.88242 2.52813ZM9.64062 7C10.5357 7 11.3942 7.35558 12.0271 7.98851C12.66 8.62145 13.0156 9.47989 13.0156 10.375C13.0156 11.2701 12.66 12.1286 12.0271 12.7615C11.3942 13.3944 10.5357 13.75 9.64062 13.75C8.74552 13.75 7.88707 13.3944 7.25414 12.7615C6.6212 12.1286 6.26562 11.2701 6.26562 10.375C6.26562 9.47989 6.6212 8.62145 7.25414 7.98851C7.88707 7.35558 8.74552 7 9.64062 7Z" fill="#896CFE"/>
    </g>
    <defs>
        <clipPath id="clip0_476_10939">
            <path d="M0.640625 0.25H18.6406V18.25H0.640625V0.25Z" fill="white"/>
        </clipPath>
    </defs>
</svg>
