<svg width="33" height="34" viewBox="0 0 33 34" fill="none" xmlns="http://www.w3.org/2000/svg">
    <path d="M28.8668 11.5037V8.75552C28.8668 7.66224 28.4325 6.61374 27.6594 5.84067C26.8864 5.06761 25.8379 4.6333 24.7446 4.6333H20.6224M20.6224 29.3666H24.7446C25.8379 29.3666 26.8864 28.9323 27.6594 28.1593C28.4325 27.3862 28.8668 26.3377 28.8668 25.2444V22.4963M4.13347 22.4963V25.2444C4.13347 26.3377 4.56778 27.3862 5.34084 28.1593C6.11391 28.9323 7.16241 29.3666 8.2557 29.3666H12.3779M12.3779 4.6333H8.2557C7.16241 4.6333 6.11391 5.06761 5.34084 5.84067C4.56778 6.61374 4.13347 7.66224 4.13347 8.75552V11.5037M2.7594 17H30.2409" stroke="#F7FFEF" stroke-width="2.12" stroke-linecap="round" stroke-linejoin="round"/>
</svg>
