<svg width="16" height="19" viewBox="0 0 16 19" fill="none" xmlns="http://www.w3.org/2000/svg">
    <g clip-path="url(#clip0_476_12275)">
        <path d="M5.85039 0.439755C6.12461 0.183115 6.55 0.18663 6.82422 0.443271C7.79453 1.35382 8.70508 2.33468 9.55586 3.3964C9.94258 2.89015 10.382 2.33819 10.8566 1.88819C11.1344 1.62804 11.5633 1.62804 11.841 1.89171C13.0574 3.05186 14.0875 4.58468 14.8117 6.04015C15.5254 7.47452 16 8.94054 16 9.97413C16 14.4601 12.4914 18.2499 8.125 18.2499C3.70938 18.2499 0.25 14.4566 0.25 9.97062C0.25 8.62062 0.875781 6.97179 1.84609 5.34054C2.82695 3.68468 4.21211 1.95851 5.85039 0.439755ZM8.18477 14.8749C9.07422 14.8749 9.86172 14.6288 10.6035 14.1366C12.0836 13.103 12.4809 11.0358 11.5914 9.41163C11.4332 9.09522 11.0289 9.07413 10.8004 9.34132L9.91445 10.3714C9.68242 10.6386 9.26406 10.6316 9.04609 10.3538C8.46602 9.61554 7.42891 8.29718 6.83828 7.54835C6.6168 7.2671 6.19492 7.26358 5.96992 7.54483C4.78164 9.03897 4.18398 9.98116 4.18398 11.0394C4.1875 13.4476 5.96641 14.8749 8.18477 14.8749Z" fill="#F97316"/>
    </g>
    <defs>
        <clipPath id="clip0_476_12275">
            <path d="M0.25 0.25H16V18.25H0.25V0.25Z" fill="white"/>
        </clipPath>
    </defs>
</svg>
