<svg width="22" height="22" viewBox="0 0 22 22" fill="none" xmlns="http://www.w3.org/2000/svg">
    <path d="M14.4376 5.5C14.4376 6.41168 14.0754 7.28602 13.4307 7.93068C12.7861 8.57534 11.9117 8.9375 11.0001 8.9375C10.0884 8.9375 9.21404 8.57534 8.56938 7.93068C7.92472 7.28602 7.56256 6.41168 7.56256 5.5C7.56256 4.58832 7.92472 3.71398 8.56938 3.06932C9.21404 2.42466 10.0884 2.0625 11.0001 2.0625C11.9117 2.0625 12.7861 2.42466 13.4307 3.06932C14.0754 3.71398 14.4376 4.58832 14.4376 5.5ZM4.12598 18.4415C4.15543 16.6378 4.89262 14.918 6.17856 13.6529C7.46449 12.3878 9.19614 11.6788 11.0001 11.6788C12.804 11.6788 14.5356 12.3878 15.8216 13.6529C17.1075 14.918 17.8447 16.6378 17.8741 18.4415C15.7176 19.4304 13.3725 19.9407 11.0001 19.9375C8.54706 19.9375 6.21873 19.4022 4.12598 18.4415Z" stroke="#747688" stroke-width="1.5" stroke-linecap="round" stroke-linejoin="round"/>
</svg>
