<svg width="295" height="287" viewBox="0 0 295 287" fill="none" xmlns="http://www.w3.org/2000/svg">
    <path d="M206.537 118.439C142.391 105.993 98 118.439 98 118.439C98 118.439 81.2964 202.429 138.52 218.634V269.818H165.04V219.197C219.234 205.15 206.537 118.439 206.537 118.439Z" fill="#FBC343"/>
    <path d="M155.794 135.302L161.273 146.403C161.766 147.401 162.718 148.094 163.821 148.254L176.072 150.035C178.847 150.439 179.957 153.85 177.948 155.808L169.083 164.449C168.285 165.228 167.92 166.347 168.109 167.445L170.202 179.646C170.676 182.412 167.774 184.52 165.29 183.215L154.333 177.455C153.348 176.937 152.169 176.937 151.183 177.455L140.227 183.215C137.744 184.52 134.841 182.412 135.315 179.646L137.408 167.445C137.597 166.347 137.232 165.226 136.434 164.449L127.569 155.808C125.56 153.85 126.668 150.437 129.445 150.035L141.696 148.254C142.799 148.094 143.751 147.401 144.244 146.403L149.723 135.302C150.965 132.786 154.554 132.786 155.794 135.302Z" fill="#FFDD7A"/>
    <path d="M169.374 174.809C169.035 174.592 168.693 174.378 168.359 174.156C163.422 170.895 158.806 167.131 154.684 162.883C150.372 158.438 146.555 153.495 143.741 147.963C143.65 147.783 143.562 147.602 143.471 147.42C142.981 147.86 142.368 148.157 141.697 148.253L129.447 150.033C126.671 150.437 125.562 153.849 127.57 155.806L136.436 164.448C137.234 165.226 137.598 166.346 137.409 167.444L135.316 179.645C134.842 182.41 137.744 184.519 140.228 183.214L151.185 177.454C152.17 176.935 153.35 176.935 154.335 177.454L165.292 183.214C167.774 184.519 170.678 182.41 170.204 179.645L169.374 174.809Z" fill="#FFF7BA"/>
    <path d="M135.315 179.645L137.409 167.445C137.597 166.347 137.233 165.226 136.435 164.449L127.57 155.807C125.561 153.85 126.669 150.436 129.446 150.034L141.696 148.254C142.799 148.093 143.751 147.401 144.245 146.402L149.723 135.301C150.29 134.154 151.343 133.536 152.441 133.435H149.576C148.268 133.314 146.898 133.932 146.222 135.301L140.744 146.402C140.25 147.401 139.298 148.093 138.195 148.254L125.945 150.034C123.169 150.438 122.06 153.85 124.069 155.807L132.934 164.449C133.732 165.227 134.096 166.347 133.908 167.445L131.814 179.645C131.475 181.621 132.861 183.262 134.585 183.56H138.091C136.364 183.264 134.976 181.623 135.315 179.645Z" fill="#E05318"/>
    <path d="M193.896 286.715C193.91 286.432 193.919 286.147 193.919 285.859C193.919 277.035 186.7 269.814 177.874 269.814H125.685C116.861 269.814 109.641 277.033 109.641 285.859C109.641 286.145 109.649 286.432 109.664 286.715H193.896Z" fill="#F29019"/>
    <path d="M131.135 279.698V269.816H125.685C116.861 269.816 109.641 277.035 109.641 285.861C109.641 286.147 109.649 286.434 109.664 286.717H193.894C193.909 286.434 193.917 286.149 193.917 285.861C193.917 283.681 193.475 281.6 192.678 279.7H131.135V279.698Z" fill="#EC6F17"/>
    <path d="M193.156 141.691C193.914 150.695 192.364 162.594 191.005 171.527C190.794 172.907 190.561 174.32 190.837 175.686C191.114 177.052 192.031 178.389 193.386 178.723C194.727 179.056 196.155 178.317 197.023 177.241C197.891 176.166 198.313 174.806 198.692 173.477C202.432 160.402 203.144 149.069 201.963 135.464C201.556 130.777 200.671 124.07 194.885 126.557C189.075 129.058 192.7 136.285 193.156 141.691Z" fill="white"/>
    <path d="M188.9 181.902C186.286 182.81 185.452 186.78 187.477 188.663C189.502 190.546 193.401 189.423 194.115 186.75C194.829 184.077 192.008 181.16 189.314 181.783" fill="white"/>
    <path d="M232.496 140.93C230.797 138.347 228.265 136.007 225.011 134.87C219.946 133.103 212.543 131.778 207.648 131.562C207.804 135.063 207.885 139.11 207.792 143.509C209.99 143.81 212.192 144.073 214.307 144.726C217.401 145.68 220.415 147.695 221.435 150.767C221.967 152.369 221.909 154.098 221.816 155.781C221.366 163.987 220.234 172.155 218.436 180.174C218.168 181.366 217.85 182.623 216.982 183.484C215.664 184.792 213.565 184.763 211.712 184.647C208.141 184.423 204.571 184.2 201 183.976C199.336 188.495 197.289 192.856 194.783 196.9C200.202 198.479 205.911 199.287 211.527 199.61C215.117 199.817 218.85 199.474 222.021 197.776C227.904 194.626 229.5 187.792 230.532 181.717C232.307 171.255 233.473 160.689 234.02 150.092C234.182 146.945 234.229 143.563 232.496 140.93Z" fill="#F29019"/>
    <path d="M91.8503 184.647C89.9972 184.763 87.8989 184.793 86.5806 183.484C85.7128 182.623 85.3948 181.366 85.1265 180.174C83.328 172.155 82.1968 163.987 81.7464 155.781C81.6536 154.097 81.5957 152.368 82.1273 150.768C83.1475 147.696 86.1616 145.68 89.2552 144.726C91.3601 144.077 93.5512 143.814 95.7389 143.514C95.7836 139.105 96.0122 135.051 96.307 131.547C91.4214 131.706 83.7503 133.057 78.5501 134.871C75.2958 136.007 72.7636 138.347 71.0644 140.93C69.3321 143.564 69.3785 146.945 69.5408 150.094C70.0873 160.691 71.2516 171.257 73.0286 181.719C74.0603 187.794 75.6568 194.628 81.5394 197.778C84.7108 199.476 88.4437 199.819 92.0342 199.612C97.5822 199.292 103.221 198.502 108.58 196.962C105.896 192.908 103.738 188.539 102.016 184.011C98.6272 184.223 95.2388 184.435 91.8503 184.647Z" fill="#EC6F17"/>
    <path d="M152.269 221.041C152.001 221.019 151.739 220.991 151.472 220.966C149.919 220.827 148.407 220.645 146.936 220.425C146.776 220.4 146.613 220.378 146.454 220.354C146.063 220.292 145.678 220.226 145.292 220.16C145.075 220.122 144.856 220.085 144.641 220.045C142.513 219.656 140.472 219.184 138.521 218.633V269.817H151.782V227.308L164.746 219.272C160.924 220.236 156.777 220.847 152.269 221.041Z" fill="#EC6F17"/>
    <path d="M129.598 161.199L124.068 155.808C122.059 153.851 123.167 150.437 125.945 150.035L129.399 149.533L129.023 127.656L164.689 113.292C123.889 111.181 98.0026 118.438 98.0026 118.438C98.0026 118.438 78.7685 215.144 152.272 221.041C159.59 220.728 165.963 219.319 171.514 217.055C166.895 215.26 134.546 191.365 130.082 189.204L129.598 161.199Z" fill="#F29019"/>
    <path d="M72.0946 124.175C70.0509 125.749 67.8234 127.175 65.2333 128.375C55.7669 132.761 48.3988 130.366 40.5969 127.83C39.1362 127.357 37.6225 126.863 36.031 126.393C34.2722 125.873 32.6641 125.297 31.2415 124.79C26.5066 123.097 23.6465 122.075 19.2479 123.872C15.52 125.394 12.0223 128.495 8.64047 131.492C7.71139 132.314 6.79721 133.125 5.89132 133.895C4.37928 135.18 2.17665 134.975 0.914687 133.488C-0.347274 132.001 -0.163446 129.775 1.32209 128.511C2.19155 127.774 3.06764 126.997 3.95532 126.209C7.60043 122.975 11.7324 119.313 16.5749 117.337C23.4743 114.519 28.3996 116.279 33.613 118.144C35.0125 118.644 36.4566 119.161 38.0249 119.624C39.681 120.113 41.2544 120.625 42.773 121.12C50.05 123.483 55.3082 125.194 62.2589 121.973C67.0699 119.745 70.4981 116.408 74.4694 112.548C75.17 111.865 75.8788 111.176 76.6075 110.483C78.0317 109.133 80.2542 109.191 81.5974 110.602C82.9421 112.013 82.8908 114.247 81.4781 115.592C80.7676 116.269 80.0754 116.943 79.3914 117.609C77.0116 119.922 74.7029 122.168 72.0946 124.175Z" fill="#E2F163"/>
    <path d="M181.805 87.4277C181.525 87.4178 181.242 87.3747 180.96 87.2936C179.085 86.7603 177.999 84.8061 178.532 82.9313C178.802 81.9874 179.055 81.0566 179.309 80.1375C180.876 74.4222 182.358 69.0266 186.053 63.6757C191.995 55.087 199.57 53.4127 207.59 51.639C209.081 51.3078 210.626 50.9683 212.229 50.5692C214.003 50.1253 215.679 49.8074 217.156 49.5242C222.103 48.5785 225.089 48.0088 227.972 44.2246C230.418 41.0183 231.861 36.5651 233.255 32.2558C233.634 31.0833 234.009 29.9307 234.396 28.8144C235.035 26.9728 237.056 26.0007 238.889 26.6416C240.731 27.2809 241.703 29.293 241.062 31.1346C240.691 32.2028 240.333 33.3075 239.969 34.4287C238.465 39.0724 236.761 44.3372 233.585 48.5023C229.062 54.4345 223.921 55.4166 218.479 56.455C217.024 56.7332 215.517 57.0197 213.935 57.4156C212.269 57.8312 210.664 58.1857 209.114 58.5285C201.63 60.1829 196.221 61.3786 191.859 67.6851C188.848 72.0473 187.581 76.6613 186.115 82.0039C185.855 82.9446 185.595 83.8969 185.321 84.864C184.868 86.4605 183.39 87.484 181.805 87.4277Z" fill="#E2F163"/>
    <path d="M267.17 140.157C263.048 137.902 260.829 134.517 258.514 130.983C257.702 129.744 256.861 128.46 255.891 127.149C254.87 125.766 253.928 124.416 253.017 123.114C248.63 116.826 245.464 112.285 237.97 110.662C232.783 109.542 228.033 110.134 222.531 110.818C221.566 110.939 220.589 111.059 219.592 111.174C217.656 111.397 215.904 110.006 215.683 108.07C215.462 106.134 216.851 104.384 218.787 104.162C219.759 104.051 220.715 103.93 221.659 103.814C227.543 103.082 233.099 102.391 239.46 103.764C249.665 105.978 254.104 112.34 258.804 119.075C259.678 120.329 260.586 121.627 261.564 122.957C262.651 124.428 263.587 125.854 264.413 127.114C267.172 131.324 268.836 133.864 273.436 135.085C277.322 136.118 281.974 135.754 286.476 135.401C287.716 135.303 288.938 135.207 290.129 135.141C292.078 135.03 293.741 136.524 293.85 138.468C293.961 140.414 292.471 142.082 290.523 142.189C289.384 142.254 288.213 142.345 287.026 142.438C282.173 142.819 276.67 143.248 271.622 141.906C269.918 141.452 268.452 140.858 267.17 140.157Z" fill="#E2F163"/>
    <path d="M101.605 86.4879C100.805 87.104 99.7285 87.3392 98.6868 87.0229C97.8289 86.7645 96.9827 86.5177 96.1447 86.2759C90.8848 84.7457 85.9165 83.3016 81.021 79.8055C73.1892 74.2062 71.7501 67.1958 70.2298 59.7731C69.9449 58.3903 69.6518 56.9561 69.3056 55.4689C68.9231 53.8227 68.6515 52.2709 68.413 50.9013C67.6147 46.3221 67.1328 43.5597 63.6798 40.8421C60.7535 38.5417 56.6662 37.1439 52.7114 35.7926C51.6349 35.4249 50.5717 35.0606 49.5465 34.6863C47.8639 34.0685 46.9994 32.2037 47.6138 30.5211C48.2299 28.8385 50.0947 27.974 51.779 28.5885C52.7594 28.9462 53.7779 29.2956 54.8097 29.6484C59.0692 31.1041 63.8984 32.7552 67.6942 35.7396C73.1015 39.9958 73.9295 44.7521 74.8073 49.7867C75.0424 51.1348 75.2859 52.5309 75.627 53.9982C75.9864 55.5434 76.2928 57.0323 76.5876 58.4698C78.0069 65.4006 79.0337 70.407 84.7936 74.5225C88.7865 77.376 93.0361 78.6114 97.9548 80.0423C98.8094 80.2907 99.6772 80.5425 100.555 80.8074C102.272 81.3242 103.244 83.1343 102.728 84.8517C102.529 85.5274 102.125 86.0888 101.605 86.4879Z" fill="#E2F163"/>
    <path d="M4.79082 105.928C6.24323 111.158 14.3532 108.901 12.9008 103.676C11.4517 98.4495 3.33675 100.703 4.79082 105.928Z" fill="white"/>
    <path d="M196.198 65.5666C194.166 70.5912 201.966 73.7494 204 68.7231C206.04 63.7001 198.238 60.5353 196.198 65.5666Z" fill="white"/>
    <path d="M260.038 79.7606C255.843 83.1921 261.169 89.7072 265.366 86.2758C269.568 82.8476 264.242 76.3258 260.038 79.7606Z" fill="white"/>
    <path d="M269.05 114.386C264.855 117.817 270.181 124.332 274.379 120.899C278.579 117.473 273.253 110.951 269.05 114.386Z" fill="white"/>
    <path d="M216.228 90.1709C212.033 93.6024 217.359 100.118 221.557 96.6844C225.757 93.2563 220.434 86.7361 216.228 90.1709Z" fill="white"/>
    <path d="M189.183 78.6696C184.988 82.1011 190.314 88.6162 194.512 85.1831C198.712 81.7549 193.388 75.2332 189.183 78.6696Z" fill="#B3A0FF"/>
    <path d="M88.2495 98.5646C89.7019 103.785 97.8102 101.531 96.3578 96.3089C94.9104 91.0806 86.797 93.3312 88.2495 98.5646Z" fill="white"/>
    <path d="M201.63 102.019C197.435 105.451 202.761 111.966 206.958 108.534C211.158 105.105 205.833 98.5828 201.63 102.019Z" fill="white"/>
    <path d="M105.741 80.857C103.709 85.8817 111.509 89.0399 113.543 84.0136C115.582 78.9889 107.78 75.8257 105.741 80.857Z" fill="white"/>
    <path d="M109.826 27.0653C111.28 32.2871 119.386 30.0331 117.934 24.8097C116.487 19.583 108.373 21.8337 109.826 27.0653Z" fill="#B3A0FF"/>
    <path d="M211.351 116.734C207.156 120.166 212.482 126.681 216.679 123.249C220.878 119.821 215.552 113.299 211.351 116.734Z" fill="white"/>
    <path d="M254.461 26.1629C252.424 31.1909 260.226 34.3458 262.26 29.3211C264.295 24.2965 256.497 21.1366 254.461 26.1629Z" fill="#B3A0FF"/>
    <path d="M221.703 7.41952C219.667 12.4425 227.471 15.6024 229.505 10.5761C231.543 5.55142 223.743 2.38824 221.703 7.41952Z" fill="white"/>
    <path d="M201.688 15.8915C199.656 20.9145 207.458 24.0727 209.493 19.0481C211.53 14.0201 203.729 10.8569 201.688 15.8915Z" fill="white"/>
    <path d="M240.159 14.7237C238.127 19.7517 245.927 22.9116 247.961 17.8853C250.001 12.8556 242.194 9.69742 240.159 14.7237Z" fill="white"/>
    <path d="M222.571 29.6036C219.646 34.1744 226.731 38.7039 229.651 34.138C232.58 29.5588 225.496 25.0261 222.571 29.6036Z" fill="#B3A0FF"/>
    <path d="M259.055 42.8947C256.13 47.4639 263.215 51.9967 266.14 47.4308C269.065 42.8533 261.98 38.3155 259.055 42.8947Z" fill="white"/>
    <path d="M256.93 95.0114C252.174 97.6148 256.211 104.99 260.968 102.389C265.736 99.7794 261.695 92.3981 256.93 95.0114Z" fill="#B3A0FF"/>
    <path d="M286.456 74.5106C281.7 77.1141 285.734 84.4887 290.491 81.8886C295.255 79.2753 291.219 71.8973 286.456 74.5106Z" fill="white"/>
    <path d="M288.162 112.103C283.404 114.708 287.44 122.081 292.2 119.478C296.963 116.871 292.923 109.49 288.162 112.103Z" fill="white"/>
    <path d="M84.1782 56.1947C82.1411 61.2293 89.9381 64.3826 91.9718 59.3513C94.0072 54.3233 86.2086 51.1635 84.1782 56.1947Z" fill="white"/>
    <path d="M4.39932 77.6395C5.85173 82.8695 13.9568 80.6106 12.5077 75.3889C11.0519 70.1572 2.95022 72.4145 4.39932 77.6395Z" fill="white"/>
    <path d="M50.1127 116.334C51.5602 121.558 59.6668 119.305 58.2128 114.08C56.757 108.855 48.6619 111.109 50.1127 116.334Z" fill="white"/>
    <path d="M56.0061 84.1473C57.4585 89.3674 65.5652 87.1151 64.1161 81.8934C62.662 76.6667 54.5504 78.9223 56.0061 84.1473Z" fill="white"/>
    <path d="M37.8078 57.141C39.2602 62.371 47.3636 60.1137 45.9112 54.8903C44.4521 49.6586 36.3487 51.9143 37.8078 57.141Z" fill="white"/>
    <path d="M31.2817 110.912C32.7357 116.138 40.8391 113.883 39.3834 108.661C37.9277 103.431 29.8259 105.682 31.2817 110.912Z" fill="white"/>
    <path d="M233.268 74.5743C228.505 77.1727 232.546 84.5623 237.307 81.9556C242.065 79.3505 238.027 71.9675 233.268 74.5743Z" fill="white"/>
    <path d="M144.934 81.0241C144.786 81.2626 144.609 81.4862 144.399 81.6915C143.008 83.0562 140.772 83.033 139.406 81.6402C138.72 80.938 138.036 80.2573 137.362 79.5816C133.172 75.3917 129.217 71.4319 126.397 65.5726C121.876 56.1575 124.173 48.7464 126.602 40.8997C127.053 39.4407 127.523 37.9303 127.969 36.3405C128.462 34.58 129.014 32.9669 129.5 31.5427C131.128 26.7764 132.11 23.9014 130.251 19.5209C128.676 15.8079 125.521 12.35 122.467 9.0046C121.637 8.09373 120.819 7.19943 120.042 6.31009C118.759 4.84278 118.915 2.60702 120.379 1.33015C121.846 0.0466611 124.075 0.197368 125.358 1.66634C126.102 2.51759 126.885 3.37545 127.68 4.24657C130.971 7.85194 134.701 11.9392 136.748 16.7602C139.662 23.6264 137.97 28.5799 136.18 33.8215C135.701 35.2242 135.204 36.675 134.764 38.2466C134.3 39.8994 133.813 41.4694 133.344 42.9864C131.075 50.3081 129.437 55.5994 132.758 62.5121C135.057 67.2883 138.438 70.6734 142.355 74.5901C143.044 75.2807 143.743 75.9779 144.447 76.6967C145.609 77.8841 145.767 79.676 144.934 81.0241Z" fill="#E2F163"/>
    <path d="M145.645 28.4272C148.853 32.7977 155.638 27.8194 152.432 23.4489C149.227 19.0734 142.436 24.0501 145.645 28.4272Z" fill="white"/>
    <path d="M180.692 21.2442C183.9 25.6147 190.685 20.6364 187.477 16.2643C184.274 11.8905 177.483 16.8671 180.692 21.2442Z" fill="white"/>
    <path d="M153.74 72.7223C156.948 77.0928 163.733 72.1145 160.525 67.7424C157.323 63.3686 150.532 68.3419 153.74 72.7223Z" fill="white"/>
    <path d="M178.573 47.5332C180.923 52.4204 188.499 48.7753 186.153 43.8881C183.796 38.9893 176.213 42.6394 178.573 47.5332Z" fill="#B3A0FF"/>
    <path d="M110.09 47.0307C112.44 51.9179 120.017 48.2727 117.67 43.3855C115.315 38.4868 107.73 42.1352 110.09 47.0307Z" fill="#B3A0FF"/>
    <path d="M160.957 10.8197C163.307 15.7052 170.882 12.0651 168.537 7.1779C166.177 2.28242 158.599 5.92422 160.957 10.8197Z" fill="white"/>
    <path d="M88.522 23.4124C90.8736 28.2996 98.4487 24.6578 96.0987 19.7689C93.7453 14.8734 86.162 18.5185 88.522 23.4124Z" fill="white"/>
    <path d="M139.055 54.8876C141.4 59.7797 148.992 56.133 146.637 51.2408C144.285 46.3536 136.7 49.9987 139.055 54.8876Z" fill="white"/>
    <path d="M237.656 45.4651C234.728 50.0327 241.821 54.5704 244.742 49.9979C247.667 45.4303 240.579 40.8942 237.656 45.4651Z" fill="white"/>
    <path d="M160.844 44.1311C158.807 49.1574 166.609 52.3156 168.646 47.2893C170.683 42.263 162.879 39.0982 160.844 44.1311Z" fill="white"/>
    <path d="M60.7525 20.8972C57.8278 25.4681 64.9126 29.9976 67.8324 25.4317C70.762 20.8541 63.6772 16.3197 60.7525 20.8972Z" fill="#B3A0FF"/>
    <path d="M75.8392 36.7551C72.9112 41.3227 80.0043 45.8605 82.9257 41.2879C85.8504 36.7203 78.7606 32.1842 75.8392 36.7551Z" fill="white"/>
    <path d="M65.8681 100.554C67.3172 105.778 75.4239 103.524 73.9682 98.3019C72.5174 93.0769 64.419 95.3309 65.8681 100.554Z" fill="white"/>
    <path d="M19.7152 58.0711C21.1676 63.2962 29.2727 61.0389 27.8202 55.8155C26.3645 50.5822 18.2595 52.8395 19.7152 58.0711Z" fill="#B3A0FF"/>
    <path d="M27.0543 84.1421C28.5051 89.3655 36.6118 87.1131 35.161 81.8914C33.7053 76.6697 25.6019 78.9203 27.0543 84.1421Z" fill="#B3A0FF"/>
</svg>
