<svg width="19" height="18" viewBox="0 0 19 18" fill="none" xmlns="http://www.w3.org/2000/svg">
    <path d="M14.689 13.0332L18.1832 15.2947C18.4948 15.4966 18.7105 15.8097 18.7829 16.165C18.8553 16.5204 18.7784 16.889 18.5692 17.1896C18.36 17.4903 18.0356 17.6984 17.6674 17.7683C17.2991 17.8382 16.9173 17.764 16.6057 17.5622C16.4405 17.4537 16.3002 17.3134 16.1939 17.1502L13.9744 13.6994C13.9137 13.6041 13.8885 13.4917 13.903 13.3807C13.9132 13.3023 13.9429 13.228 13.9888 13.1637C11.6737 15.3182 8.43338 15.0873 8.43338 15.0873C8.43338 15.0873 3.09822 15.4672 1.22699 10.7045C0.497253 8.8262 0.497253 6.75645 1.22699 4.87819C3.09822 0.118401 8.43338 0.495327 8.43338 0.495327C8.43338 0.495327 13.7654 0.121323 15.6367 4.87819C16.3694 6.75592 16.3694 8.82673 15.6367 10.7045C15.2524 11.6826 14.7221 12.4438 14.122 13.036C14.1929 12.9896 14.2752 12.9609 14.3614 12.9533C14.4768 12.9431 14.5924 12.9713 14.689 13.0332Z" fill="white"/>
    <ellipse cx="8.31308" cy="7.69898" rx="5.72519" ry="5.28785" fill="#212020"/>
</svg>
