<svg width="24" height="25" viewBox="0 0 24 25" fill="none" xmlns="http://www.w3.org/2000/svg">
    <path d="M7.10202 9.89942L6.50233 10.0708C5.5547 10.3415 4.78575 11.0356 4.41972 11.9507C3.50834 14.2291 3.50834 16.7709 4.41972 19.0493C4.78575 19.9644 5.5547 20.6585 6.50233 20.9292L7.10202 21.1006C10.3033 22.0152 13.6967 22.0152 16.898 21.1006L17.4977 20.9292C18.4453 20.6585 19.2143 19.9644 19.5803 19.0493C20.4917 16.7709 20.4917 14.2291 19.5803 11.9507C19.2143 11.0356 18.4453 10.3415 17.4977 10.0708L16.898 9.89942C13.6967 8.98477 10.3033 8.98477 7.10202 9.89942Z" stroke="#111214" stroke-width="2" stroke-linejoin="round"/>
    <path d="M12 13.5L12 17.5" stroke="#111214" stroke-width="2" stroke-linejoin="round"/>
    <path d="M9 9.5V5.82456C9 5.03354 9.50616 4.33128 10.2566 4.08114C11.3883 3.70392 12.6117 3.70392 13.7434 4.08114C14.4938 4.33128 15 5.03354 15 5.82456V9.5" stroke="#111214" stroke-width="2" stroke-linejoin="round"/>
</svg>
