<svg width="33" height="32" viewBox="0 0 33 32" fill="none" xmlns="http://www.w3.org/2000/svg">
    <path d="M16.5 0C25.3366 0 32.5 7.16344 32.5 16C32.5 24.8366 25.3366 32 16.5 32C7.66344 32 0.5 24.8366 0.5 16C0.5 7.16344 7.66344 0 16.5 0Z" fill="#FEF9C3" fill-opacity="0.3"/>
    <path d="M16.5 0C25.3366 0 32.5 7.16344 32.5 16C32.5 24.8366 25.3366 32 16.5 32C7.66344 32 0.5 24.8366 0.5 16C0.5 7.16344 7.66344 0 16.5 0Z"/>
    <path d="M21.75 26H11.25V6H21.75V26Z" />
    <g clip-path="url(#clip0_772_6123)">
        <path d="M16.5 22.75C13.6016 22.75 11.25 20.3984 11.25 17.5C11.25 15.0062 14.8102 10.3277 15.8055 9.06992C15.9695 8.86484 16.2129 8.75 16.4754 8.75H16.5246C16.7871 8.75 17.0305 8.86484 17.1945 9.06992C18.1898 10.3277 21.75 15.0062 21.75 17.5C21.75 20.3984 19.3984 22.75 16.5 22.75ZM13.875 17.9375C13.875 17.6969 13.6781 17.5 13.4375 17.5C13.1969 17.5 13 17.6969 13 17.9375C13 19.6301 14.3699 21 16.0625 21C16.3031 21 16.5 20.8031 16.5 20.5625C16.5 20.3219 16.3031 20.125 16.0625 20.125C14.8539 20.125 13.875 19.1461 13.875 17.9375Z" fill="#CA8A04"/>
    </g>
    <defs>
        <clipPath id="clip0_772_6123">
            <path d="M11.25 8.75H21.75V22.75H11.25V8.75Z" fill="white"/>
        </clipPath>
    </defs>
</svg>
