<svg width="636" height="632" viewBox="0 0 636 632" fill="none" xmlns="http://www.w3.org/2000/svg">
    <path d="M236.365 126.826C232.759 112.238 29.5577 4.42106 29.5577 4.42106C18.2137 -12.0991 21.9067 19.6161 25.7537 67.3418C29.6027 115.064 31.0767 137.102 39.5117 146.054C47.9467 155.002 212.188 192.637 224.213 197.921C236.236 203.208 239.972 141.414 236.365 126.826Z" fill="url(#paint0_linear_10076_137)"/>
    <path opacity="0.49" d="M234.395 141.634C230.789 127.046 27.5877 19.2309 27.5877 19.2309C24.9997 15.4627 23.2007 14.2276 22.0037 15.0963C21.6717 0.737821 23.3918 -4.56161 29.5588 4.41966C29.5588 4.41966 232.76 112.237 236.366 126.825C238.526 135.554 238.051 161.187 234.746 179.233C236.147 164.071 236.005 148.148 234.395 141.634Z" fill="white"/>
    <path d="M236.848 203.174C231.693 188.362 7.98365 104.721 7.98365 104.721C-5.83134 90.3988 0.81863 124.002 8.94563 175.144C17.0746 226.282 20.4956 250 30.4956 256.987C40.4956 263.971 215.66 283.652 229.305 285.398C242.948 287.147 242.003 217.985 236.848 203.174Z" fill="url(#paint1_linear_10076_137)"/>
    <path opacity="0.49" d="M235.893 220.11C230.738 205.299 7.02861 121.66 7.02861 121.66C3.87761 118.394 1.79961 117.644 0.554607 119.004C-0.984393 103.338 0.472623 96.9347 7.98362 104.722C7.98362 104.722 231.694 188.364 236.848 203.174C239.935 212.037 241.508 240.362 239.351 261.307C239.652 244.173 238.194 226.725 235.893 220.11Z" fill="white"/>
    <path d="M267.375 300.247C260.453 285.295 13.8227 230.688 13.8227 230.688C-2.76726 219.05 7.28375 254.584 20.3457 309.302C33.4097 364.014 39.0767 389.502 50.8237 394.139C62.5707 398.771 249.852 397.206 265.279 394.805C280.704 392.404 274.298 315.197 267.375 300.247Z" fill="url(#paint2_linear_10076_137)"/>
    <path opacity="0.49" d="M267.615 319.532C260.693 304.58 14.0628 249.976 14.0628 249.976C10.2788 247.322 7.89179 247.145 6.60179 249.066C3.66679 232.002 4.8038 224.359 13.8228 230.688C13.8228 230.688 260.454 285.296 267.375 300.247C271.52 309.194 275.472 340.435 274.675 364.596C273.687 345.298 270.705 326.21 267.615 319.532Z" fill="white"/>
    <path d="M399.219 126.826C402.825 112.238 606.026 4.42106 606.026 4.42106C617.37 -12.0991 613.677 19.6161 609.83 67.3418C605.981 115.064 604.507 137.102 596.072 146.054C587.637 155.002 423.396 192.637 411.371 197.921C399.349 203.208 395.612 141.414 399.219 126.826Z" fill="url(#paint3_linear_10076_137)"/>
    <path opacity="0.49" d="M401.189 141.634C404.795 127.046 607.996 19.2309 607.996 19.2309C610.584 15.4627 612.383 14.2276 613.58 15.0963C613.912 0.737821 612.192 -4.56161 606.025 4.41966C606.025 4.41966 402.824 112.237 399.218 126.825C397.058 135.554 397.533 161.187 400.838 179.233C399.438 164.071 399.58 148.148 401.189 141.634Z" fill="white"/>
    <path d="M398.737 203.174C403.892 188.362 627.601 104.721 627.601 104.721C641.417 90.3988 634.766 124.002 626.639 175.144C618.51 226.282 615.089 250 605.089 256.987C595.089 263.971 419.925 283.652 406.28 285.398C392.636 287.147 393.581 217.985 398.737 203.174Z" fill="url(#paint4_linear_10076_137)"/>
    <path opacity="0.49" d="M399.691 220.11C404.846 205.299 628.555 121.66 628.555 121.66C631.706 118.394 633.784 117.644 635.029 119.004C636.568 103.338 635.111 96.9347 627.6 104.722C627.6 104.722 403.89 188.364 398.736 203.174C395.649 212.037 394.076 240.362 396.233 261.307C395.933 244.173 397.39 226.725 399.691 220.11Z" fill="white"/>
    <path d="M368.209 300.247C375.131 285.295 621.761 230.688 621.761 230.688C638.351 219.05 628.3 254.584 615.238 309.302C602.174 364.014 596.507 389.502 584.76 394.139C573.013 398.771 385.732 397.206 370.305 394.805C354.881 392.404 361.287 315.197 368.209 300.247Z" fill="url(#paint5_linear_10076_137)"/>
    <path opacity="0.49" d="M367.97 319.532C374.892 304.58 621.522 249.976 621.522 249.976C625.306 247.322 627.693 247.145 628.983 249.066C631.918 232.002 630.781 224.359 621.762 230.688C621.762 230.688 375.132 285.296 368.21 300.247C364.065 309.194 360.113 340.435 360.91 364.596C361.897 345.298 364.88 326.21 367.97 319.532Z" fill="white"/>
    <path d="M328.051 579.412L406.642 574.104L403.436 565.338C403.436 565.338 367.175 557.589 355.506 517.784C343.837 477.98 355.506 450.753 355.506 450.753H328.05H312.606H285.15C285.15 450.753 296.819 477.98 285.15 517.784C273.482 557.589 237.22 565.338 237.22 565.338L234.014 574.104L312.605 579.412V580.456L320.327 579.934L328.049 580.456V579.412H328.051Z" fill="url(#paint6_linear_10076_137)"/>
    <path d="M403.456 565.337C403.456 565.337 367.195 557.587 355.526 517.783C343.857 477.979 355.526 450.752 355.526 450.752H328.071H312.627H285.171C285.171 450.752 288.862 459.365 290.016 473.985C295.946 475.307 302.764 478.602 313.942 481.522C333.39 486.603 336.269 520.621 353.772 541.371C364.45 554.029 387.394 561.795 403.673 565.932L403.456 565.337Z" fill="#9999A1"/>
    <path opacity="0.42" d="M295.182 482.653C295.182 482.653 291.292 518.787 281.912 532.62C272.532 546.453 280.539 554.922 313.944 555.769C347.347 556.616 314.401 472.772 295.182 482.653Z" fill="url(#paint7_linear_10076_137)"/>
    <path d="M303.99 488.722C297.796 484.901 298.156 515.682 291.635 530.22C285.114 544.759 285.343 549.982 296.897 544.053C308.452 538.126 305.821 489.851 303.99 488.722Z" fill="white"/>
    <path d="M229.428 607.047H317.861H363.98H411.23C420.29 607.047 418.643 597.9 418.643 586.721V584.972C418.643 573.793 411.23 564.646 402.17 564.646H317.862H238.489C229.429 564.646 222.016 573.793 222.016 584.972V586.721C222.015 597.9 220.368 607.047 229.428 607.047Z" fill="url(#paint8_linear_10076_137)"/>
    <path opacity="0.42" d="M315.469 567.337C317.38 571.688 320.225 581.695 309.02 583C305.458 583.415 241.422 585.847 236.406 581.16C231.39 576.474 232.584 565.815 242.616 565.815C252.648 565.816 314.116 564.258 315.469 567.337Z" fill="url(#paint9_linear_10076_137)"/>
    <path d="M363.98 607.047H411.23C420.29 607.047 418.643 597.9 418.643 586.721V584.972C418.643 573.793 411.23 564.646 402.17 564.646H400.888C402.524 570.386 402.568 577.276 394.936 579.987C380.865 584.988 348.262 585.846 348.262 585.846H222.015V586.72C222.015 597.899 220.368 607.045 229.428 607.045H317.861L363.98 607.047Z" fill="#9999A1"/>
    <path d="M208.836 632H297.269H343.388H431.822C440.882 632 439.235 622.854 439.235 611.675V609.925C439.235 598.745 431.822 589.6 422.762 589.6H343.389H297.27H217.897C208.836 589.6 201.424 598.746 201.424 609.925V611.675C201.424 622.854 199.776 632 208.836 632Z" fill="url(#paint10_linear_10076_137)"/>
    <path opacity="0.42" d="M312.454 597.15C316.595 603.006 319.068 620.221 304.562 620.725C300.08 620.882 219.445 620.089 214.416 617.902C205.953 614.223 208.96 594.575 221.486 594.575C234.014 594.576 307.765 590.52 312.454 597.15Z" fill="url(#paint11_linear_10076_137)"/>
    <path d="M439.212 609.925C439.212 598.746 431.799 589.6 422.739 589.6H416.326C419.478 594.567 418.76 607.047 412.639 615.082C399.457 632.385 205.951 628.886 201.329 622.243C201.551 628.075 202.89 632 208.814 632H297.247H343.366H431.799C440.859 632 439.212 622.854 439.212 611.675V609.925Z" fill="#9999A1"/>
    <path d="M255.829 567.343C250.573 567.664 247.473 577.445 248.279 580.454C249.085 583.465 266.125 583.153 269.214 575.813C272.302 568.472 265.095 566.778 255.829 567.343Z" fill="white"/>
    <path d="M241.837 594.586C233.472 595.095 228.539 610.662 229.821 615.453C231.103 620.244 258.223 619.747 263.139 608.066C268.055 596.382 256.585 593.688 241.837 594.586Z" fill="white"/>
    <path d="M439.235 611.674V609.924C439.235 598.745 431.822 589.599 422.762 589.599H418.675C418.658 588.656 418.644 587.7 418.644 586.72V584.97C418.644 573.792 411.231 564.645 402.171 564.645H400.935C392.519 562.05 365.337 551.244 355.528 517.783C343.859 477.979 355.528 450.752 355.528 450.752H355.508H328.072H328.052H320.33C320.33 450.752 332.133 484.17 332.133 512.153C332.133 554.922 320.33 564.665 320.33 564.665C320.436 564.66 320.54 564.645 320.648 564.645H360.607C365.332 564.645 369.198 569.415 369.198 575.245C369.198 581.075 365.332 585.845 360.607 585.845H320.648C320.541 585.845 320.437 585.83 320.33 585.825V589.599H371.257C380.317 589.599 387.73 598.745 387.73 609.924V611.674C387.73 622.852 380.317 631.999 371.257 631.999H431.823C440.882 632 439.235 622.854 439.235 611.674Z" fill="#9999A1"/>
    <path d="M221.814 395.743C221.423 395.532 221.028 395.364 220.623 395.293C196.876 391.089 155.363 378.608 133.876 341.876C112.709 305.691 111.308 275.037 113.647 261.891H145.081C145.085 261.891 145.088 261.891 145.091 261.891C145.094 261.891 145.098 261.891 145.101 261.891H145.319V261.878C154.651 261.725 162.25 252.27 162.25 240.721V200.069C162.25 188.423 154.528 178.896 145.09 178.896C135.652 178.896 127.93 188.423 127.93 200.069V211.078H104.821C93.9928 211.078 84.3847 219.276 78.4597 233.569C66.3347 262.815 68.4418 316.845 100.479 371.616C127.695 418.144 172.637 436.41 203.461 443.581V457.494C203.461 469.138 211.183 478.666 220.621 478.666C230.059 478.666 237.781 469.138 237.781 457.494V416.841C237.782 405.692 230.699 396.507 221.814 395.743Z" fill="url(#paint12_linear_10076_137)"/>
    <path d="M222.849 395.765C226.882 399.479 229.517 405.392 229.517 412.042V454.387C229.517 465.566 222.104 474.712 213.044 474.712H211.671C211.151 474.712 210.639 474.675 210.131 474.616C212.878 477.146 216.266 478.664 219.937 478.664H221.31C230.37 478.664 237.783 469.518 237.783 458.339V415.994C237.782 405.456 231.194 396.731 222.849 395.765Z" fill="#9999A1"/>
    <path d="M112.939 268.113C113.079 265.747 113.322 263.657 113.636 261.892H145.081H145.309V261.877C154.642 261.723 162.24 252.269 162.24 240.719V231.404C162.24 242.954 154.641 252.408 145.309 252.562V252.577H145.081H113.636C112.959 256.382 112.6 261.663 112.939 268.113Z" fill="url(#paint13_linear_10076_137)"/>
    <path d="M203.453 434.264C172.629 427.093 127.687 408.825 100.471 362.298C80.953 328.93 72.5589 295.849 71.7089 268.468C70.7479 297.468 78.683 334.364 100.471 371.613C127.687 418.141 172.629 436.408 203.453 443.58V434.264Z" fill="#9999A1"/>
    <path opacity="0.42" d="M85.5268 252.363C91.4518 238.07 101.061 229.873 111.889 229.873H134.998V218.863C134.998 207.218 142.72 197.69 152.158 197.69C155.714 197.69 159.026 199.044 161.773 201.354V200.069C161.773 188.423 154.051 178.896 144.614 178.896C135.176 178.896 127.454 188.423 127.454 200.069V211.078H104.345C93.5168 211.078 83.9088 219.276 77.9828 233.569C67.3818 259.141 67.6618 303.659 89.3138 351.053C75.3378 310.903 76.3418 274.52 85.5268 252.363Z" fill="url(#paint14_linear_10076_137)"/>
    <path d="M133.396 341.878C130.749 337.352 128.411 332.914 126.351 328.585C129.596 338.488 134.292 349.307 140.94 360.672C162.427 397.404 203.941 409.883 227.687 414.088C228.065 414.155 228.435 414.302 228.801 414.49C231.928 414.59 234.836 415.795 237.303 417.772V415.996C237.303 404.995 230.12 395.981 221.257 395.697C220.891 395.509 220.521 395.362 220.143 395.295C196.397 391.088 154.883 378.61 133.396 341.878Z" fill="#9999A1"/>
    <path d="M128.961 214.465C128.961 214.465 107.683 212.136 96.8718 217.854C86.0608 223.57 80.2268 235.003 76.9668 253.636C73.7068 272.268 85.5608 232.054 97.3868 226.535C112.809 219.337 130.118 226.117 131.491 221.459C132.865 216.8 128.961 214.465 128.961 214.465Z" fill="white"/>
    <path d="M142.518 183.553C129.751 185.175 133.08 194.775 136.341 198.162C139.6 201.55 154.186 182.071 142.518 183.553Z" fill="white"/>
    <path d="M562.188 233.568C556.263 219.275 546.655 211.077 535.826 211.077H512.717V200.067C512.717 188.422 504.995 178.894 495.557 178.894C486.119 178.894 478.397 188.422 478.397 200.067V240.719C478.397 252.268 485.996 261.723 495.328 261.876V261.89H495.546C495.549 261.89 495.553 261.89 495.556 261.89C495.559 261.89 495.563 261.89 495.566 261.89H527C529.339 275.034 527.938 305.688 506.772 341.875C485.285 378.607 443.771 391.088 420.024 395.291C419.619 395.363 419.224 395.531 418.833 395.742C409.947 396.506 402.864 405.69 402.864 416.841V457.493C402.864 469.137 410.586 478.665 420.024 478.665C429.462 478.665 437.183 469.137 437.183 457.493V443.58C468.008 436.409 512.949 418.143 540.166 371.615C572.207 316.844 574.313 262.815 562.188 233.568Z" fill="url(#paint15_linear_10076_137)"/>
    <path d="M417.801 395.765C413.768 399.479 411.133 405.392 411.133 412.042V454.387C411.133 465.566 418.546 474.712 427.606 474.712H428.979C429.499 474.712 430.011 474.675 430.519 474.616C427.772 477.146 424.384 478.664 420.713 478.664H419.34C410.28 478.664 402.867 469.518 402.867 458.339V415.994C402.867 405.456 409.456 396.731 417.801 395.765Z" fill="#9999A1"/>
    <path d="M527.711 268.113C527.571 265.747 527.328 263.657 527.013 261.892H495.568H495.34V261.877C486.007 261.723 478.409 252.269 478.409 240.719V231.404C478.409 242.954 486.008 252.408 495.34 252.562V252.577H495.568H527.013C527.691 256.382 528.049 261.663 527.711 268.113Z" fill="#9999A1"/>
    <path d="M437.197 434.264C468.021 427.093 512.963 408.825 540.179 362.298C559.697 328.93 568.091 295.849 568.941 268.468C569.902 297.468 561.967 334.364 540.179 371.613C512.963 418.141 468.021 436.408 437.197 443.58V434.264Z" fill="#9999A1"/>
    <path opacity="0.42" d="M555.123 252.363C549.197 238.07 539.589 229.872 528.761 229.872H505.652V218.863C505.652 207.217 497.93 197.689 488.492 197.689C484.936 197.689 481.624 199.044 478.877 201.354V200.068C478.877 188.423 486.599 178.895 496.036 178.895C505.474 178.895 513.196 188.423 513.196 200.068V211.078H536.304C547.132 211.078 556.74 219.276 562.666 233.569C573.267 259.141 572.987 303.658 551.335 351.052C565.312 310.902 564.308 274.52 555.123 252.363Z" fill="url(#paint16_linear_10076_137)"/>
    <path d="M507.253 341.878C509.9 337.352 512.238 332.914 514.298 328.585C511.053 338.488 506.357 349.307 499.709 360.672C478.222 397.404 436.708 409.883 412.962 414.088C412.584 414.155 412.214 414.302 411.848 414.49C408.721 414.59 405.813 415.795 403.346 417.772V415.996C403.346 404.995 410.529 395.981 419.392 395.697C419.758 395.509 420.128 395.362 420.506 395.295C444.253 391.088 485.766 378.61 507.253 341.878Z" fill="#9999A1"/>
    <path d="M511.688 214.465C511.688 214.465 532.966 212.136 543.777 217.854C554.588 223.57 560.422 235.003 563.682 253.636C566.942 272.268 555.088 232.054 543.262 226.535C527.84 219.337 510.531 226.117 509.158 221.459C507.785 216.8 511.688 214.465 511.688 214.465Z" fill="white"/>
    <path d="M498.132 183.553C510.899 185.175 507.57 194.775 504.309 198.162C501.049 201.55 486.464 182.071 498.132 183.553Z" fill="white"/>
    <path d="M320.329 467.454C407.766 467.454 478.648 360.822 478.648 229.286V175.226H162.011V229.286C162.011 360.822 232.892 467.454 320.329 467.454Z" fill="url(#paint17_linear_10076_137)"/>
    <path d="M162.011 175.225V190.239C206.931 190.045 362.192 189.453 419.647 190.295C468.724 191.014 466.265 217.017 466.265 217.017C466.265 348.553 395.412 450.946 307.975 450.946C270.614 450.946 236.283 431.466 209.205 398.905C237.788 441.288 277.025 467.454 320.33 467.454C407.767 467.454 478.649 360.822 478.649 229.286V175.225H162.011Z" fill="#9999A1"/>
    <path d="M486.733 112.5H398.299H242.358H153.925C144.865 112.5 146.512 121.647 146.512 132.825V134.575C146.512 145.754 153.925 178.895 162.985 178.895H242.358H398.299H477.672C486.732 178.895 494.145 145.755 494.145 134.575V132.825C494.146 121.647 495.793 112.5 486.733 112.5Z" fill="url(#paint18_linear_10076_137)"/>
    <path d="M486.733 112.5H485.023C484.989 114.193 484.945 115.963 484.945 117.798V119.548C484.945 130.728 477.532 163.868 468.472 163.868H389.099H233.158H153.785C153.249 163.868 152.719 163.743 152.195 163.523C155.091 172.042 158.866 178.897 162.985 178.897H242.358H398.299H477.672C486.732 178.897 494.145 145.755 494.145 134.576V132.827C494.146 121.647 495.793 112.5 486.733 112.5Z" fill="#9999A1"/>
    <path opacity="0.42" d="M175.682 198.559C163.006 203.137 174.859 300.565 190.673 338.96C211.951 390.622 255.646 448.024 303.263 421.111C376.02 379.988 361.304 258.526 348.949 220.394C337.423 184.82 189.753 193.477 175.682 198.559Z" fill="url(#paint19_linear_10076_137)"/>
    <path opacity="0.42" d="M323.23 213.996C347.614 221.503 259.09 429.31 214.89 357.042C189.324 315.241 124.171 152.717 323.23 213.996Z" fill="url(#paint20_linear_10076_137)"/>
    <path opacity="0.42" d="M168.6 162.38C168.6 162.38 155.73 169.073 152.298 152.176C148.866 135.28 152.298 117.665 164.653 117.665C177.008 117.665 472.155 117.665 472.155 117.665C472.155 117.665 522.948 125.711 410.037 124.44C297.126 123.169 198.286 128.252 190.05 138.414C181.813 148.577 175.783 157.578 168.6 162.38Z" fill="url(#paint21_linear_10076_137)"/>
    <path d="M172.961 121.477C162.717 114.377 150.059 136.73 158.133 151.583C165.83 165.743 182.126 127.827 172.961 121.477Z" fill="white"/>
    <path d="M212.014 122.761C195.85 122.761 183.411 128.251 195.541 130.369C207.67 132.486 260.588 122.761 212.014 122.761Z" fill="white"/>
    <path d="M486.733 112.5H398.3H320.33C320.33 112.5 335.176 117.968 335.176 137.422C335.176 152.491 328.011 169.092 324.78 175.813C324.75 175.876 324.717 175.945 324.687 176.007C324.592 176.204 324.503 176.386 324.415 176.565C324.386 176.624 324.354 176.692 324.326 176.748C324.235 176.934 324.152 177.1 324.071 177.262C324.052 177.3 324.03 177.344 324.011 177.383C323.521 178.36 323.23 178.895 323.23 178.895C323.23 178.895 375.031 195.013 375.031 289.006C375.031 382.938 323.299 467.287 323.231 467.398C409.328 465.067 478.648 359.362 478.648 229.286V178.756C487.259 176.514 494.146 145.35 494.146 134.575V132.825C494.146 121.647 495.793 112.5 486.733 112.5Z" fill="#9999A1"/>
    <path opacity="0.7" d="M124.385 68.1094C132.576 85.7918 162.977 135.342 162.977 135.342C162.977 135.342 208.774 191.331 210.511 193.191C212.244 195.054 171.616 127.78 171.616 127.78L124.385 68.1094Z" fill="white"/>
    <path opacity="0.7" d="M124.708 189.783C137.034 175.243 173.364 130.669 173.364 130.669C173.364 130.669 203.661 71.0952 204.4 69.4073C204.612 68.8928 165.665 125.469 165.665 125.469L124.708 189.783Z" fill="white"/>
    <path d="M176.747 120.006C165.518 110.858 167.582 85.0678 167.477 77.7979C167.477 79.8942 167.477 82.2459 167.477 84.7642C167.449 83.6488 167.393 82.4569 167.393 82.1941C167.393 80.6444 167.393 79.1711 167.393 77.7979C167.362 79.8942 167.223 83.1935 166.791 87.0185C166.791 87.0185 163.477 112.857 157.581 118.238C144.246 130.444 110.69 128.139 123.577 128.428C167.007 129.376 167.007 173.84 167.394 188.399C167.394 186.433 167.394 183.928 167.394 181.041C167.422 181.58 167.457 182.015 167.478 182.302C167.478 184.665 167.478 186.732 167.478 188.399C168.39 153.894 168.271 132.07 206.196 129.15C218.719 128.147 189.825 130.669 176.747 120.006Z" fill="white"/>
    <path opacity="0.7" d="M36.7407 241.311C49.4717 241.246 87.9758 234.893 87.9758 234.893C87.9758 234.893 135.832 218.236 137.503 217.504C139.175 216.776 87.1448 224.865 87.1448 224.865L36.7407 241.311Z" fill="white"/>
    <path opacity="0.7" d="M103.051 287.268C99.8236 271.536 89.3786 224.516 89.3786 224.516C89.3786 224.516 68.4826 176.793 67.8446 175.54C67.6456 175.169 83.6256 228.917 83.6256 228.917L103.051 287.268Z" fill="white"/>
    <path d="M84.8626 217.663C75.6206 223.487 62.3756 211.98 58.3806 209.305C59.5206 210.101 60.7997 210.996 62.1707 211.952C61.5537 211.551 60.8836 211.145 60.7406 211.045C59.8976 210.456 59.0966 209.896 58.3486 209.374C59.4776 210.196 61.2186 211.566 63.1356 213.376C63.1356 213.376 75.9326 225.936 76.6196 232.865C78.1936 248.546 64.1916 275.459 69.2446 264.897C86.2596 229.29 110.448 246.182 118.514 251.393C117.445 250.647 116.082 249.696 114.512 248.599C114.816 248.78 115.065 248.917 115.23 249.008C116.515 249.907 117.64 250.691 118.546 251.324C100.123 237.461 88.2056 229.268 101.025 196.751C105.238 185.996 95.6326 210.885 84.8626 217.663Z" fill="white"/>
    <defs>
        <linearGradient id="paint0_linear_10076_137" x1="14.578" y1="82.367" x2="242.634" y2="105.066" gradientUnits="userSpaceOnUse">
            <stop stop-color="#B5C0C9"/>
            <stop offset="0.2345" stop-color="#9CA3AC"/>
            <stop offset="0.7577" stop-color="#6C6F76"/>
        </linearGradient>
        <linearGradient id="paint1_linear_10076_137" x1="1.9603" y1="197.342" x2="239.337" y2="191.991" gradientUnits="userSpaceOnUse">
            <stop stop-color="#B5C0C9"/>
            <stop offset="0.2345" stop-color="#9CA3AC"/>
            <stop offset="0.7577" stop-color="#6C6F76"/>
        </linearGradient>
        <linearGradient id="paint2_linear_10076_137" x1="18.4228" y1="336.284" x2="269.538" y2="301.958" gradientUnits="userSpaceOnUse">
            <stop stop-color="#B5C0C9"/>
            <stop offset="0.2345" stop-color="#9CA3AC"/>
            <stop offset="0.7577" stop-color="#6C6F76"/>
        </linearGradient>
        <linearGradient id="paint3_linear_10076_137" x1="621.006" y1="82.367" x2="392.95" y2="105.066" gradientUnits="userSpaceOnUse">
            <stop stop-color="#B5C0C9"/>
            <stop offset="0.2345" stop-color="#9CA3AC"/>
            <stop offset="0.7577" stop-color="#6C6F76"/>
        </linearGradient>
        <linearGradient id="paint4_linear_10076_137" x1="633.623" y1="197.342" x2="396.246" y2="191.991" gradientUnits="userSpaceOnUse">
            <stop stop-color="#B5C0C9"/>
            <stop offset="0.2345" stop-color="#9CA3AC"/>
            <stop offset="0.7577" stop-color="#6C6F76"/>
        </linearGradient>
        <linearGradient id="paint5_linear_10076_137" x1="617.161" y1="336.284" x2="366.045" y2="301.958" gradientUnits="userSpaceOnUse">
            <stop stop-color="#B5C0C9"/>
            <stop offset="0.2345" stop-color="#9CA3AC"/>
            <stop offset="0.7577" stop-color="#6C6F76"/>
        </linearGradient>
        <linearGradient id="paint6_linear_10076_137" x1="234.016" y1="515.604" x2="406.642" y2="515.604" gradientUnits="userSpaceOnUse">
            <stop stop-color="#B5C0C9"/>
            <stop offset="1" stop-color="#8F939C"/>
        </linearGradient>
        <linearGradient id="paint7_linear_10076_137" x1="280.204" y1="498.807" x2="323.738" y2="535.9" gradientUnits="userSpaceOnUse">
            <stop stop-color="white"/>
            <stop offset="1" stop-color="white"/>
        </linearGradient>
        <linearGradient id="paint8_linear_10076_137" x1="313.389" y1="532.618" x2="330.617" y2="628.121" gradientUnits="userSpaceOnUse">
            <stop stop-color="#B5C0C9"/>
            <stop offset="1" stop-color="#8F939C"/>
        </linearGradient>
        <linearGradient id="paint9_linear_10076_137" x1="273.642" y1="565.973" x2="285.038" y2="601.829" gradientUnits="userSpaceOnUse">
            <stop stop-color="white"/>
            <stop offset="1" stop-color="white"/>
        </linearGradient>
        <linearGradient id="paint10_linear_10076_137" x1="316.468" y1="504.685" x2="324.82" y2="664.318" gradientUnits="userSpaceOnUse">
            <stop stop-color="#B5C0C9"/>
            <stop offset="1" stop-color="#8F939C"/>
        </linearGradient>
        <linearGradient id="paint11_linear_10076_137" x1="260.142" y1="596.289" x2="275.758" y2="645.424" gradientUnits="userSpaceOnUse">
            <stop stop-color="white"/>
            <stop offset="1" stop-color="white"/>
        </linearGradient>
        <linearGradient id="paint12_linear_10076_137" x1="150.321" y1="178.322" x2="165.769" y2="565.77" gradientUnits="userSpaceOnUse">
            <stop stop-color="#B5C0C9"/>
            <stop offset="1" stop-color="#8F939C"/>
        </linearGradient>
        <linearGradient id="paint13_linear_10076_137" x1="112.81" y1="249.758" x2="162.241" y2="249.758" gradientUnits="userSpaceOnUse">
            <stop stop-color="#B5C0C9"/>
            <stop offset="1" stop-color="#8F939C"/>
        </linearGradient>
        <linearGradient id="paint14_linear_10076_137" x1="71.1531" y1="264.974" x2="161.772" y2="264.974" gradientUnits="userSpaceOnUse">
            <stop stop-color="white"/>
            <stop offset="1" stop-color="white"/>
        </linearGradient>
        <linearGradient id="paint15_linear_10076_137" x1="480.72" y1="165.149" x2="496.168" y2="552.597" gradientUnits="userSpaceOnUse">
            <stop stop-color="#B5C0C9"/>
            <stop offset="1" stop-color="#8F939C"/>
        </linearGradient>
        <linearGradient id="paint16_linear_10076_137" x1="702.884" y1="-205.616" x2="465.159" y2="192.893" gradientUnits="userSpaceOnUse">
            <stop stop-color="white"/>
            <stop offset="1" stop-color="white"/>
        </linearGradient>
        <linearGradient id="paint17_linear_10076_137" x1="162.011" y1="321.339" x2="478.648" y2="321.339" gradientUnits="userSpaceOnUse">
            <stop stop-color="#B5C0C9"/>
            <stop offset="1" stop-color="#8F939C"/>
        </linearGradient>
        <linearGradient id="paint18_linear_10076_137" x1="146.395" y1="145.698" x2="494.263" y2="145.698" gradientUnits="userSpaceOnUse">
            <stop stop-color="#B5C0C9"/>
            <stop offset="1" stop-color="#8F939C"/>
        </linearGradient>
        <linearGradient id="paint19_linear_10076_137" x1="170.34" y1="310.889" x2="359.159" y2="310.889" gradientUnits="userSpaceOnUse">
            <stop stop-color="white"/>
            <stop offset="1" stop-color="white"/>
        </linearGradient>
        <linearGradient id="paint20_linear_10076_137" x1="184.01" y1="286.315" x2="327.404" y2="286.315" gradientUnits="userSpaceOnUse">
            <stop stop-color="white"/>
            <stop offset="1" stop-color="white"/>
        </linearGradient>
        <linearGradient id="paint21_linear_10076_137" x1="151.042" y1="140.676" x2="483.548" y2="140.676" gradientUnits="userSpaceOnUse">
            <stop stop-color="white"/>
            <stop offset="1" stop-color="white"/>
        </linearGradient>
    </defs>
</svg>
