<svg width="764" height="633" viewBox="0 0 764 633" fill="none" xmlns="http://www.w3.org/2000/svg">
    <path d="M590.125 110.067C580.9 110.067 573.415 117.545 573.415 126.77C573.415 131.311 575.238 135.409 578.184 138.41C563.815 143.565 538.391 151.61 512.255 154.801C510.013 151.364 508.664 146.84 508.951 140.847C509.581 127.645 509.537 114.458 509.356 104.857C510.171 104.949 510.983 105.013 511.812 105.013C523.533 105.013 533.037 95.515 533.037 83.791C533.037 72.071 523.533 62.576 511.812 62.576C500.086 62.576 490.589 72.071 490.589 83.791C490.589 89.519 492.875 94.712 496.568 98.531L446.625 131.962L391.271 49.0551C400.485 45.2011 406.963 36.117 406.963 25.511C406.963 11.414 395.536 0 381.441 0C367.346 0 355.938 11.414 355.938 25.511C355.938 36.117 362.397 45.2021 371.604 49.0551L316.347 131.825L266.605 98.531C270.293 94.712 272.579 89.519 272.579 83.791C272.579 72.071 263.077 62.576 251.358 62.576C239.642 62.576 230.131 72.071 230.131 83.791C230.131 95.514 239.642 105.013 251.358 105.013C252.184 105.013 253.001 104.95 253.809 104.857C253.626 114.457 253.595 127.644 254.217 140.847C254.502 146.861 253.143 151.396 250.902 154.833C224.781 151.68 199.361 143.651 184.931 138.493C187.905 135.48 189.739 131.343 189.739 126.77C189.739 117.545 182.262 110.067 173.032 110.067C163.804 110.067 156.333 117.545 156.333 126.77C156.333 135.995 163.804 143.479 173.032 143.479C173.63 143.479 174.207 143.364 174.786 143.301L196.488 264.648V274.939C196.488 274.939 215.033 273.755 375.128 273.755C377.289 273.755 385.603 273.755 387.76 273.755C547.849 273.755 566.396 274.939 566.396 274.939V264.648L588.103 143.272C588.778 143.358 589.434 143.479 590.124 143.479C599.35 143.479 606.833 135.995 606.833 126.77C606.834 117.545 599.351 110.067 590.125 110.067Z" fill="url(#paint0_linear_10076_465)"/>
    <path d="M392.071 49.0569C391.788 49.1839 391.579 49.5529 391.288 49.6739L454.178 143.744L500.425 102.208C496.729 98.3889 498.137 101.304 498.137 95.5759C498.137 83.8569 507.637 74.3579 519.36 74.3579C524.768 74.3579 529.689 76.3939 533.442 79.7229C531.541 69.9539 522.941 62.5779 512.609 62.5779C500.886 62.5779 491.388 72.0729 491.388 83.7929C491.388 89.5209 493.676 94.7139 497.373 98.5329L447.428 131.964L392.071 49.0569Z" fill="white"/>
    <path d="M363.49 37.299C363.49 23.1989 374.897 11.782 388.993 11.782C395.99 11.782 402.325 14.598 406.933 19.158C404.104 8.14796 394.136 0.00195312 382.241 0.00195312C368.147 0.00195312 356.739 11.4159 356.739 25.5129C356.739 32.5959 359.633 38.996 364.292 43.613C363.776 41.594 363.49 39.4809 363.49 37.299Z" fill="white"/>
    <path d="M516.474 154.34C516.499 159.489 517.788 163.488 519.808 166.582C545.943 163.394 571.366 155.349 585.738 150.2C582.791 147.193 580.965 143.094 580.965 138.554C580.965 129.329 588.453 121.851 597.678 121.851C601.377 121.851 604.784 123.07 607.555 125.103C606.713 116.66 599.59 110.067 590.927 110.067C581.702 110.067 574.217 117.545 574.217 126.77C574.217 131.311 576.04 135.409 578.987 138.41C565.245 143.339 541.39 150.903 516.474 154.34Z" fill="white"/>
    <path d="M261.766 152.628C261.146 139.435 261.179 126.239 261.364 116.645C260.556 116.731 255.922 105.161 254.501 104.858C254.49 112.396 254.621 132.348 255.019 140.848C255.303 146.862 253.949 151.397 251.704 154.834C231.373 152.38 211.491 146.977 196.866 142.265C196.161 145.345 194.626 148.107 192.481 150.271C206.912 155.435 232.333 163.464 258.452 166.621C260.699 163.18 262.053 158.642 261.766 152.628Z" fill="white"/>
    <path d="M274.158 110.312L323.896 143.613L373.808 67.4459C377.248 59.4939 375.017 52.1969 372.404 49.0569L317.149 131.827L267.405 98.5329C266.462 100.33 267.339 102.943 274.158 110.312Z" fill="white"/>
    <path d="M204.628 274.729L182.784 155.088C182.205 155.145 181.408 155.266 180.808 155.266C179.815 155.266 179.627 155.161 178.684 154.996L199.073 264.649V274.94C199.073 274.94 199.535 274.857 204.628 274.729Z" fill="white"/>
    <path d="M163.882 138.554C163.882 129.329 171.356 121.851 180.583 121.851C184.285 121.851 187.693 123.064 190.458 125.103C189.619 116.66 182.499 110.067 173.835 110.067C164.605 110.067 157.135 117.545 157.135 126.77C157.135 132.304 159.831 137.188 163.969 140.234C163.914 139.684 163.882 139.123 163.882 138.554Z" fill="white"/>
    <path d="M238.082 99.6429C237.827 98.3259 237.682 96.9669 237.682 95.5759C237.682 83.8569 247.192 74.3579 258.909 74.3579C264.315 74.3579 269.235 76.3939 272.985 79.7229C271.082 69.9539 262.485 62.5779 252.158 62.5779C240.445 62.5779 230.935 72.0729 230.935 83.7929C230.935 90.1029 233.706 95.7569 238.082 99.6429Z" fill="white"/>
    <path d="M300.518 223.133C296.911 211.31 93.7105 123.928 93.7105 123.928C82.3665 110.539 86.0595 136.243 89.9065 174.923C93.7555 213.6 95.2296 231.461 103.665 238.716C112.1 245.968 276.341 276.47 288.366 280.753C300.388 285.037 304.124 234.955 300.518 223.133Z" fill="url(#paint1_linear_10076_465)"/>
    <path opacity="0.42" d="M298.548 235.134C294.942 223.311 91.7405 135.931 91.7405 135.931C89.1525 132.877 87.3535 131.876 86.1565 132.58C85.8245 120.943 87.5446 116.648 93.7116 123.928C93.7116 123.928 296.913 211.31 300.519 223.133C302.679 230.208 302.204 250.982 298.899 265.608C300.299 253.319 300.157 240.414 298.548 235.134Z" fill="url(#paint2_linear_10076_465)"/>
    <path d="M300.999 285.01C295.844 273.006 72.1355 205.218 72.1355 205.218C58.3205 193.61 64.9705 220.844 73.0975 262.293C81.2265 303.738 84.6474 322.961 94.6474 328.624C104.647 334.283 279.812 350.235 293.457 351.65C307.101 353.067 306.156 297.013 300.999 285.01Z" fill="url(#paint3_linear_10076_465)"/>
    <path opacity="0.42" d="M300.045 298.736C294.89 286.732 71.1814 218.945 71.1814 218.945C68.0304 216.298 65.9524 215.69 64.7074 216.792C63.1684 204.096 64.6254 198.906 72.1364 205.217C72.1364 205.217 295.846 273.006 301 285.009C304.087 292.192 305.66 315.149 303.503 332.124C303.803 318.238 302.346 304.097 300.045 298.736Z" fill="url(#paint4_linear_10076_465)"/>
    <path d="M331.527 363.684C324.605 351.566 77.9746 307.309 77.9746 307.309C61.3846 297.877 71.4356 326.676 84.4976 371.023C97.5616 415.365 103.229 436.022 114.976 439.78C126.723 443.534 314.004 442.266 329.431 440.32C344.856 438.374 338.45 375.801 331.527 363.684Z" fill="url(#paint5_linear_10076_465)"/>
    <path opacity="0.42" d="M331.767 379.314C324.845 367.196 78.2146 322.941 78.2146 322.941C74.4306 320.79 72.0437 320.647 70.7537 322.204C67.8187 308.374 68.9556 302.18 77.9746 307.309C77.9746 307.309 324.605 351.567 331.527 363.684C335.672 370.935 339.624 396.255 338.827 415.837C337.84 400.196 334.857 384.726 331.767 379.314Z" fill="url(#paint6_linear_10076_465)"/>
    <path d="M463.371 223.133C466.977 211.31 670.178 123.928 670.178 123.928C681.522 110.539 677.829 136.243 673.982 174.923C670.133 213.6 668.659 231.461 660.224 238.716C651.789 245.968 487.547 276.47 475.523 280.753C463.5 285.037 459.764 234.955 463.371 223.133Z" fill="url(#paint7_linear_10076_465)"/>
    <path opacity="0.42" d="M465.342 235.134C468.948 223.311 672.149 135.931 672.149 135.931C674.737 132.877 676.536 131.876 677.733 132.58C678.065 120.943 676.345 116.648 670.178 123.928C670.178 123.928 466.977 211.31 463.371 223.133C461.211 230.208 461.686 250.982 464.991 265.608C463.59 253.319 463.732 240.414 465.342 235.134Z" fill="url(#paint8_linear_10076_465)"/>
    <path d="M462.888 285.01C468.043 273.006 691.752 205.218 691.752 205.218C705.567 193.61 698.917 220.844 690.79 262.293C682.661 303.738 679.24 322.961 669.24 328.624C659.24 334.283 484.076 350.235 470.431 351.65C456.788 353.067 457.733 297.013 462.888 285.01Z" fill="url(#paint9_linear_10076_465)"/>
    <path opacity="0.42" d="M463.843 298.736C468.998 286.732 692.707 218.945 692.707 218.945C695.858 216.298 697.936 215.69 699.181 216.792C700.72 204.096 699.263 198.906 691.752 205.217C691.752 205.217 468.042 273.006 462.888 285.009C459.801 292.192 458.228 315.149 460.385 332.124C460.084 318.238 461.542 304.097 463.843 298.736Z" fill="url(#paint10_linear_10076_465)"/>
    <path d="M432.361 363.684C439.283 351.566 685.913 307.309 685.913 307.309C702.503 297.877 692.452 326.676 679.39 371.023C666.326 415.365 660.659 436.022 648.912 439.78C637.165 443.534 449.884 442.266 434.457 440.32C419.032 438.374 425.438 375.801 432.361 363.684Z" fill="url(#paint11_linear_10076_465)"/>
    <path opacity="0.42" d="M432.121 379.314C439.043 367.196 685.673 322.941 685.673 322.941C689.457 320.79 691.844 320.647 693.134 322.204C696.069 308.374 694.932 302.18 685.913 307.309C685.913 307.309 439.282 351.567 432.361 363.684C428.216 370.935 424.264 396.255 425.061 415.837C426.049 400.196 429.031 384.726 432.121 379.314Z" fill="url(#paint12_linear_10076_465)"/>
    <path d="M700.705 431.716C718.793 439.328 746.459 422.799 756.813 391.898C764.661 368.532 763.867 345.421 763.867 345.421C763.867 345.421 727.356 350.507 708.847 380.724C703.265 389.822 700.324 398.05 698.915 405.139C700.995 383.039 700.414 360.656 696.767 338.799C696.436 336.821 696.056 334.843 695.675 332.863C697.388 334.807 698.593 335.727 698.593 335.727C718.122 334.349 735.711 307.032 731.556 274.642C728.407 250.154 717.641 229.817 717.641 229.817C717.641 229.817 687.152 250.879 683.699 286.343C683.545 287.92 683.445 289.444 683.377 290.928C681.302 285.749 679.036 280.656 676.585 275.649C671.71 265.756 666.114 256.222 659.802 247.212C658.365 245.155 656.87 243.134 655.344 241.141C655.589 241.068 655.725 241.014 655.725 241.014C665.294 223.599 652.494 193.629 623.641 179.438C601.833 168.718 579.242 166.765 579.242 166.765C579.242 166.765 579.84 204.327 607.053 226.68C622.83 239.641 636.668 242.384 645.526 242.409C648.081 245.866 650.528 249.432 652.871 253.057C658.598 261.952 663.668 271.272 668.004 280.923C669.93 285.234 671.71 289.611 673.346 294.036C667.659 287.403 660.229 281.436 651.226 277.025C629.418 266.293 606.831 264.349 606.831 264.349C606.831 264.349 607.42 301.904 634.628 324.258C661.832 346.614 683.318 338.583 683.318 338.583C683.726 337.824 684.088 337.031 684.428 336.22C684.723 338.069 685.026 339.915 685.275 341.766C687.894 360.905 688.107 380.32 686.181 399.513C682.112 389.436 674.917 379.423 664.659 371.385C645.461 356.345 623.731 349.736 623.731 349.736C623.731 349.736 616.812 386.623 638.95 414.175C654.786 433.858 670.862 437.745 678.75 438.361C676.027 447.572 672.665 456.58 668.623 465.275C663.462 476.473 657.237 487.14 650.236 497.248C653.086 482.398 650.735 464.124 641.36 446.959C627.966 422.46 608.238 405.571 608.238 405.571C608.238 405.571 584.695 440.863 595.642 479.766C604.205 510.269 621.473 521.075 628.537 524.324C616.448 537.418 603.023 549.253 588.687 559.74C582.996 563.915 577.128 567.825 571.138 571.532C577.477 560.676 581.537 546.82 581.496 531.433C581.414 503.389 572.144 478.883 572.144 478.883C572.144 478.883 534.818 498.149 525.919 537.593C519.68 565.239 526.997 582.538 531.941 590.404C531.764 590.454 531.583 590.508 531.411 590.551C530.414 590.791 529.046 591.011 527.759 591.274L520.02 592.783C514.845 593.812 505.095 594.881 499.952 595.968C489.667 598.161 474.814 600.436 464.542 602.819L460.247 603.827L461.239 608.247L462.916 615.605L463.908 619.996L468.222 618.986C478.729 616.557 493.881 614.163 504.42 611.902C509.698 610.758 519.594 609.661 524.864 608.601L532.789 607.033C535.721 606.501 538.548 605.633 541.203 604.72C546.771 602.727 552.096 600.386 557.288 597.826C553.613 603.639 552.616 607.842 552.616 607.842C562.725 628.032 598.579 634.577 629.901 615.671C653.566 601.401 669.593 580.837 669.593 580.837C669.593 580.837 639.068 560.846 604.288 567.917C617.088 557.874 629.082 546.757 640.015 534.632C639.788 536.163 639.766 537.049 639.766 537.049C653.835 554.591 690.223 553.238 716.911 528.012C737.074 508.946 748.469 485.373 748.469 485.373C748.469 485.373 709.276 470.439 674.818 490.495C673.332 491.365 671.914 492.258 670.55 493.143C674.882 485.701 678.805 478.025 682.249 470.101C689.961 452.476 695.23 433.704 697.831 414.624C697.551 425.382 700.705 431.716 700.705 431.716Z" fill="url(#paint13_linear_10076_465)"/>
    <path d="M679.443 386.826C676.528 382.586 673.033 378.512 668.937 374.762C673.307 380.132 676.697 385.87 679.027 391.642C679.188 390.038 679.312 388.432 679.443 386.826Z" fill="#5B6CB2"/>
    <path d="M640.026 415.171C650.802 428.077 661.589 433.834 669.759 436.328C670.396 434.39 671.019 432.448 671.597 430.49C665.079 429.981 652.969 427.211 640.026 415.171Z" fill="#5B6CB2"/>
    <path d="M619.515 518.426C620.137 517.766 620.77 517.117 621.385 516.451C618.711 515.222 614.573 512.904 610 508.85C613.241 512.936 616.522 516.063 619.515 518.426Z" fill="#5B6CB2"/>
    <path d="M632.613 529.177C632.613 529.177 632.635 528.291 632.861 526.759C621.927 538.884 609.935 550.001 597.135 560.044C603.36 558.778 609.443 558.391 615.245 558.589C623.708 551.258 631.758 543.433 639.306 535.126C636.737 533.479 634.475 531.498 632.613 529.177Z" fill="#5B6CB2"/>
    <path d="M724.401 266.77C728.556 299.16 710.966 326.477 691.438 327.855C691.438 327.855 690.234 326.936 688.521 324.991C688.902 326.971 689.282 328.949 689.613 330.926C693.26 352.783 693.839 375.166 691.76 397.266C693.022 390.916 695.53 383.647 700.048 375.662C699.86 363.212 698.813 350.785 696.767 338.524C696.436 336.546 696.057 334.568 695.676 332.588C697.389 334.532 698.594 335.452 698.594 335.452C718.123 334.075 735.712 306.757 731.557 274.367C728.408 249.88 717.641 229.543 717.641 229.543C717.641 229.543 716.597 230.265 714.881 231.659C718.237 239.915 722.585 252.647 724.401 266.77Z" fill="#5B6CB2"/>
    <path d="M693.55 423.843C693.55 423.843 690.396 417.509 690.677 406.752C688.076 425.832 682.807 444.604 675.095 462.23C671.651 470.154 667.727 477.83 663.396 485.272C664.76 484.387 666.179 483.494 667.665 482.624C671.331 480.49 675.05 478.774 678.771 477.372C679.973 474.879 681.145 472.371 682.25 469.828C688.558 455.411 693.203 440.22 696.119 424.727C695.245 424.476 694.385 424.194 693.55 423.843Z" fill="#5B6CB2"/>
    <path d="M650.968 477.179C649.941 467.244 646.874 456.775 641.363 446.684C632.464 430.407 620.775 417.497 613.927 410.659C620.296 417.838 627.945 427.63 634.208 439.086C643.582 456.253 645.933 474.525 643.083 489.376C645.839 485.398 648.47 481.329 650.968 477.179Z" fill="#5B6CB2"/>
    <path d="M578.331 554.165C580.355 547.07 581.52 539.34 581.498 531.158C581.416 503.114 572.146 478.608 572.146 478.608C572.146 478.608 570.617 479.402 568.13 480.97C570.828 490.685 574.293 506.459 574.343 523.561C574.384 538.948 570.324 552.804 563.985 563.66C568.86 560.644 573.648 557.484 578.331 554.165Z" fill="#5B6CB2"/>
    <path d="M622.749 607.798C597.543 623.012 569.412 621.736 554.115 610.139C565.888 628.272 599.958 633.47 629.904 615.395C653.569 601.124 669.595 580.56 669.595 580.56C669.595 580.56 666.149 578.308 660.27 575.585C655.141 581.576 641.291 596.618 622.749 607.798Z" fill="#5B6CB2"/>
    <path d="M709.758 520.14C686.858 541.786 656.828 545.84 639.873 535.475C639.782 536.301 639.768 536.774 639.768 536.774C653.836 554.316 690.225 552.964 716.912 527.737C737.075 508.67 748.47 485.098 748.47 485.098C748.47 485.098 744.801 483.705 738.741 482.341C734.322 490.228 724.332 506.358 709.758 520.14Z" fill="#5B6CB2"/>
    <path d="M763.866 345.145C763.866 345.145 761.016 345.543 756.51 346.773C756.01 355.65 754.439 369.785 749.656 384.026C740.26 412.068 716.608 428.272 698.794 425.342C699.632 429.272 700.703 431.441 700.703 431.441C718.791 439.053 746.457 422.524 756.81 391.622C764.659 368.255 763.866 345.145 763.866 345.145Z" fill="#5B6CB2"/>
    <path d="M648.571 233.143C648.571 233.143 648.434 233.197 648.189 233.27C649.716 235.264 651.212 237.284 652.649 239.342C658.961 248.351 664.556 257.885 669.432 267.779C671.883 272.785 674.149 277.878 676.224 283.057C676.292 281.573 676.392 280.049 676.546 278.471C676.629 277.619 676.741 276.783 676.854 275.947C676.762 275.758 676.679 275.564 676.587 275.375C671.712 265.482 666.115 255.948 659.803 246.938C658.367 244.881 656.871 242.86 655.345 240.866C655.59 240.793 655.727 240.739 655.727 240.739C663.242 227.063 656.955 205.648 639.939 190.209C651.418 204.535 654.916 221.597 648.571 233.143Z" fill="#5B6CB2"/>
    <path d="M599.898 218.809C599.083 218.139 598.294 217.455 597.526 216.758C600.273 220.16 603.419 223.42 607.052 226.405C621.758 238.486 634.774 241.687 643.648 242.086C641.936 239.531 640.19 237 638.37 234.537C629.513 234.514 615.675 231.77 599.898 218.809Z" fill="#5B6CB2"/>
    <path d="M627.474 316.386C626.661 315.717 625.874 315.034 625.107 314.34C627.852 317.74 630.997 321 634.628 323.983C654.364 340.203 671.082 340.426 678.778 339.327C678.573 337.515 678.368 335.701 678.12 333.894C677.871 332.043 677.567 330.196 677.273 328.348C676.933 329.159 676.571 329.952 676.163 330.711C676.163 330.711 654.678 338.742 627.474 316.386Z" fill="#5B6CB2"/>
    <path d="M545.464 599.969C545.464 599.969 546.461 595.766 550.135 589.954C544.942 592.513 539.619 594.854 534.05 596.848C531.395 597.761 528.567 598.629 525.635 599.161L517.712 600.728C512.442 601.788 502.546 602.885 497.267 604.029C487.003 606.231 472.377 608.56 461.915 610.924L462.918 615.331L463.911 619.721L468.224 618.711C478.731 616.282 493.883 613.888 504.422 611.627C509.7 610.483 519.596 609.387 524.866 608.327L532.792 606.759C535.724 606.227 538.55 605.359 541.205 604.446C543.097 603.769 544.952 603.038 546.792 602.286C546.314 601.532 545.863 600.765 545.464 599.969Z" fill="#5B6CB2"/>
    <path d="M671.008 470.755C675.05 462.056 677.483 454.738 680.211 445.529C680.405 441.875 681.118 438.918 678.753 438.363C676.406 445.459 671.779 458.503 668.625 465.277C664.805 473.548 654.728 490.515 649.876 498.201C650.075 503.473 647.991 503.136 651.358 503.136C658.353 493.025 665.838 481.951 671.008 470.755Z" fill="url(#paint14_linear_10076_465)"/>
    <path d="M627.963 356.781C627.963 356.781 649.698 363.394 668.891 378.435C674.872 383.118 679.783 388.491 683.666 394.146C679.416 385.927 673.1 377.984 664.658 371.387C645.46 356.347 623.73 349.738 623.73 349.738C623.73 349.738 617.486 383.118 635.941 410.086C622.748 384.689 627.963 356.781 627.963 356.781Z" fill="url(#paint15_linear_10076_465)"/>
    <path d="M688.656 343.276C687.492 341.001 686.504 333.444 686.078 334.21C686.078 334.21 684.841 335.03 684.483 336.584C688.085 358.287 687.944 380.929 686.291 398.246C687.89 400.99 689.281 403.774 690.405 406.569C692.335 387.371 692.131 367.949 689.499 348.815C689.254 346.969 688.955 345.12 688.656 343.276Z" fill="url(#paint16_linear_10076_465)"/>
    <path d="M708.847 380.725C707.066 383.625 700.546 394.857 699.282 403.412C699.223 411.112 707.501 396.883 713.083 387.773C727.691 363.924 753.504 355.741 763.735 353.353C763.966 348.425 763.866 345.421 763.866 345.421C763.866 345.421 727.356 350.508 708.847 380.725Z" fill="url(#paint17_linear_10076_465)"/>
    <path d="M681.938 486.868C676.85 489.881 672.921 491.376 671.009 492.853C672.373 491.96 678.508 491.779 680.212 491.5C721.475 484.542 733.078 487.098 745.824 490.356C747.573 487.248 748.47 485.374 748.47 485.374C748.47 485.374 714.46 472.432 681.938 486.868Z" fill="url(#paint18_linear_10076_465)"/>
    <path d="M664.04 254.265C666.088 257.201 668.041 260.21 669.944 263.25C666.899 257.929 663.637 252.725 660.143 247.709C660.079 247.834 660.021 247.954 659.957 248.071C659.957 248.071 659.816 248.118 659.581 248.196C661.109 250.189 662.604 252.203 664.04 254.265Z" fill="url(#paint19_linear_10076_465)"/>
    <path d="M583.475 173.822C583.475 173.822 606.071 175.773 627.888 186.502C639.043 191.987 647.802 199.848 653.783 208.421C648.119 197.189 637.825 186.41 623.643 179.441C601.835 168.721 579.244 166.768 579.244 166.768C579.244 166.768 579.638 191.009 593.906 212.132C583.787 193.017 583.475 173.822 583.475 173.822Z" fill="url(#paint20_linear_10076_465)"/>
    <path d="M687.609 297.985C687.682 296.503 687.786 294.981 687.935 293.4C691.066 261.176 716.526 240.845 721.147 237.395C719.131 232.624 717.64 229.819 717.64 229.819C717.64 229.819 687.151 250.881 683.698 286.345C683.63 287.074 683.571 287.788 683.526 288.497C684.949 291.627 686.327 294.786 687.609 297.985Z" fill="url(#paint21_linear_10076_465)"/>
    <path d="M673.347 294.038C667.66 287.405 660.23 281.438 651.227 277.027C629.419 266.295 606.832 264.351 606.832 264.351C606.832 264.351 607.231 288.587 621.49 309.72C611.368 290.606 611.068 271.406 611.068 271.406C611.068 271.406 633.655 273.347 655.458 284.077C664.461 288.497 671.901 294.457 677.583 301.089C675.938 296.667 674.168 292.296 672.229 287.981C668.264 279.132 663.637 270.559 658.481 262.336C661.943 268.38 665.141 274.574 668.005 280.927C669.929 285.236 671.711 289.614 673.347 294.038Z" fill="url(#paint22_linear_10076_465)"/>
    <path d="M465.479 615.298L464.486 610.876L468.782 609.879C479.044 607.491 493.902 605.216 504.178 603.023C509.334 601.931 519.085 600.871 524.25 599.833L532.004 598.32C533.286 598.061 534.646 597.856 535.661 597.604C535.82 597.57 536.005 597.506 536.182 597.461C531.239 589.598 523.917 572.296 530.161 544.655C537.922 510.183 567.401 491.124 574.723 486.858C573.264 481.833 572.149 478.883 572.149 478.883C572.149 478.883 534.822 498.149 525.923 537.593C519.684 565.239 527.002 582.538 531.946 590.404C531.769 590.454 531.588 590.508 531.416 590.551C530.419 590.791 529.051 591.011 527.764 591.274L520.025 592.783C514.85 593.812 505.1 594.881 499.957 595.968C489.672 598.161 474.819 600.436 464.547 602.819L460.251 603.827L461.244 608.247L462.921 615.605L463.912 619.996L466.418 619.407L465.479 615.298Z" fill="url(#paint23_linear_10076_465)"/>
    <path d="M595.644 479.767C598.657 490.496 602.749 498.784 607.089 505.172C604.38 500.027 601.892 493.971 599.876 486.817C588.943 447.914 612.468 412.638 612.468 412.638C612.468 412.638 627.914 425.855 640.741 445.859C627.375 421.956 608.24 405.572 608.24 405.572C608.24 405.572 584.697 440.864 595.644 479.767Z" fill="url(#paint24_linear_10076_465)"/>
    <path d="M618.911 566.411C612.065 566.411 606.551 567.362 604.29 567.918C622.246 570.8 655.957 578.65 666.899 584.064C668.652 582.05 669.594 580.838 669.594 580.838C669.594 580.838 647.189 566.187 618.911 566.411Z" fill="url(#paint25_linear_10076_465)"/>
    <path d="M571.14 571.533C569.477 576.537 588.684 565.624 594.375 561.456C608.711 550.967 620.686 540.36 632.771 527.265C630.986 526.443 631.322 526.318 628.54 524.325C617.186 536.25 601.947 550.047 588.689 559.741C586.355 561.456 573.533 569.9 571.14 571.533Z" fill="url(#paint26_linear_10076_465)"/>
    <path d="M647.878 360.374C652.431 363.179 656.047 365.256 656.047 365.256C656.047 365.256 652.386 362.936 647.878 360.374Z" fill="url(#paint27_linear_10076_465)"/>
    <path d="M63.1844 431.716C45.0964 439.328 17.4305 422.799 7.07746 391.898C-0.770538 368.532 0.0224083 345.421 0.0224083 345.421C0.0224083 345.421 36.5334 350.507 55.0424 380.724C60.6244 389.822 63.5654 398.05 64.9744 405.139C62.8944 383.039 63.4745 360.656 67.1225 338.799C67.4535 336.821 67.8344 334.843 68.2144 332.863C66.5014 334.807 65.2965 335.727 65.2965 335.727C45.7675 334.349 28.1784 307.032 32.3334 274.642C35.4824 250.154 46.2485 229.817 46.2485 229.817C46.2485 229.817 76.7375 250.879 80.1905 286.343C80.3445 287.92 80.4444 289.444 80.5124 290.928C82.5874 285.749 84.8535 280.656 87.3045 275.649C92.1795 265.756 97.7755 256.222 104.087 247.212C105.523 245.155 107.018 243.134 108.545 241.141C108.3 241.068 108.164 241.014 108.164 241.014C98.5955 223.599 111.395 193.629 140.248 179.438C162.056 168.718 184.647 166.765 184.647 166.765C184.647 166.765 184.049 204.327 156.837 226.68C141.06 239.641 127.221 242.384 118.363 242.409C115.808 245.866 113.362 249.432 111.019 253.057C105.292 261.952 100.221 271.272 95.8854 280.923C93.9594 285.234 92.1784 289.611 90.5434 294.036C96.2304 287.403 103.66 281.436 112.663 277.025C134.471 266.293 157.058 264.349 157.058 264.349C157.058 264.349 156.469 301.904 129.26 324.258C102.056 346.614 80.5705 338.583 80.5705 338.583C80.1625 337.824 79.8004 337.031 79.4604 336.22C79.1654 338.069 78.8625 339.915 78.6135 341.766C75.9945 360.905 75.7815 380.32 77.7075 399.513C81.7765 389.436 88.9714 379.423 99.2294 371.385C118.427 356.345 140.157 349.736 140.157 349.736C140.157 349.736 147.076 386.623 124.938 414.175C109.102 433.858 93.0265 437.745 85.1385 438.361C87.8615 447.572 91.2234 456.58 95.2654 465.275C100.426 476.473 106.651 487.14 113.652 497.248C110.802 482.398 113.154 464.124 122.529 446.959C135.923 422.46 155.65 405.571 155.65 405.571C155.65 405.571 179.193 440.863 168.246 479.766C159.683 510.269 142.416 521.075 135.352 524.324C147.441 537.418 160.865 549.253 175.201 559.74C180.892 563.915 186.759 567.825 192.749 571.532C186.41 560.676 182.35 546.82 182.391 531.433C182.473 503.389 191.743 478.883 191.743 478.883C191.743 478.883 229.069 498.149 237.968 537.593C244.207 565.239 236.89 582.538 231.946 590.404C232.123 590.454 232.305 590.508 232.477 590.551C233.474 590.791 234.841 591.011 236.128 591.274L243.868 592.783C249.042 593.812 258.792 594.881 263.935 595.968C274.22 598.161 289.073 600.436 299.345 602.819L303.64 603.827L302.648 608.247L300.972 615.605L299.98 619.996L295.666 618.986C285.159 616.557 270.007 614.163 259.468 611.902C254.189 610.758 244.294 609.661 239.024 608.601L231.099 607.033C228.167 606.501 225.34 605.633 222.686 604.72C217.117 602.727 211.792 600.386 206.6 597.826C210.275 603.639 211.271 607.842 211.271 607.842C201.162 628.032 165.309 634.577 133.986 615.671C110.321 601.401 94.2955 580.837 94.2955 580.837C94.2955 580.837 124.82 560.846 159.6 567.917C146.8 557.874 134.806 546.757 123.873 534.632C124.1 536.163 124.123 537.049 124.123 537.049C110.055 554.591 73.6655 553.238 46.9785 528.012C26.8155 508.946 15.4205 485.373 15.4205 485.373C15.4205 485.373 54.6135 470.439 89.0715 490.495C90.5575 491.365 91.9754 492.258 93.3394 493.143C89.0074 485.701 85.0844 478.025 81.6404 470.101C73.9285 452.476 68.6594 433.704 66.0584 414.624C66.3374 425.382 63.1844 431.716 63.1844 431.716Z" fill="url(#paint28_linear_10076_465)"/>
    <path d="M84.4456 386.826C87.3606 382.586 90.8555 378.512 94.9525 374.762C90.5825 380.132 87.1915 385.87 84.8605 391.642C84.6995 390.038 84.5766 388.432 84.4456 386.826Z" fill="#5B6CB2"/>
    <path d="M123.861 415.171C113.085 428.077 102.299 433.834 94.1285 436.328C93.4915 434.39 92.8685 432.448 92.2905 430.49C98.8095 429.981 110.918 427.211 123.861 415.171Z" fill="#5B6CB2"/>
    <path d="M144.374 518.426C143.752 517.766 143.119 517.117 142.504 516.451C145.178 515.222 149.316 512.904 153.888 508.85C150.646 512.936 147.367 516.063 144.374 518.426Z" fill="#5B6CB2"/>
    <path d="M131.276 529.177C131.276 529.177 131.252 528.291 131.026 526.759C141.959 538.884 153.954 550.001 166.754 560.044C160.529 558.778 154.444 558.391 148.642 558.589C140.179 551.258 132.131 543.433 124.583 535.126C127.152 533.479 129.415 531.498 131.276 529.177Z" fill="#5B6CB2"/>
    <path d="M39.4875 266.77C35.3325 299.16 52.9215 326.477 72.4505 327.855C72.4505 327.855 73.6555 326.936 75.3685 324.991C74.9885 326.971 74.6075 328.949 74.2765 330.926C70.6295 352.783 70.0495 375.166 72.1285 397.266C70.8665 390.916 68.3584 383.647 63.8404 375.662C64.0284 363.212 65.0754 350.785 67.1214 338.524C67.4524 336.546 67.8335 334.568 68.2135 332.588C66.5005 334.532 65.2955 335.452 65.2955 335.452C45.7665 334.075 28.1775 306.757 32.3325 274.367C35.4815 249.88 46.2475 229.543 46.2475 229.543C46.2475 229.543 47.2914 230.265 49.0074 231.659C45.6504 239.915 41.3035 252.647 39.4875 266.77Z" fill="#5B6CB2"/>
    <path d="M70.3385 423.843C70.3385 423.843 73.4925 417.509 73.2115 406.752C75.8125 425.832 81.0815 444.604 88.7935 462.23C92.2375 470.154 96.1616 477.83 100.493 485.272C99.1286 484.387 97.7105 483.494 96.2245 482.624C92.5585 480.49 88.8386 478.774 85.1176 477.372C83.9156 474.879 82.7435 472.371 81.6385 469.828C75.3305 455.411 70.6865 440.22 67.7705 424.727C68.6435 424.476 69.5045 424.194 70.3385 423.843Z" fill="#5B6CB2"/>
    <path d="M112.921 477.179C113.948 467.244 117.015 456.775 122.526 446.684C131.425 430.407 143.113 417.497 149.961 410.659C143.593 417.838 135.944 427.63 129.681 439.086C120.306 456.253 117.955 474.525 120.805 489.376C118.049 485.398 115.419 481.329 112.921 477.179Z" fill="#5B6CB2"/>
    <path d="M185.556 554.165C183.533 547.07 182.367 539.34 182.389 531.158C182.471 503.114 191.741 478.608 191.741 478.608C191.741 478.608 193.27 479.402 195.757 480.97C193.059 490.685 189.594 506.459 189.544 523.561C189.503 538.948 193.563 552.804 199.902 563.66C195.027 560.644 190.24 557.484 185.556 554.165Z" fill="#5B6CB2"/>
    <path d="M141.14 607.798C166.346 623.012 194.475 621.736 209.772 610.139C197.999 628.272 163.93 633.47 133.984 615.395C110.319 601.124 94.2935 580.56 94.2935 580.56C94.2935 580.56 97.7405 578.308 103.62 575.585C108.749 581.576 122.599 596.618 141.14 607.798Z" fill="#5B6CB2"/>
    <path d="M54.1313 520.14C77.0313 541.786 107.061 545.84 124.016 535.475C124.107 536.301 124.121 536.774 124.121 536.774C110.053 554.316 73.6644 552.964 46.9774 527.737C26.8144 508.67 15.4194 485.098 15.4194 485.098C15.4194 485.098 19.0884 483.705 25.1484 482.341C29.5674 490.228 39.5573 506.358 54.1313 520.14Z" fill="#5B6CB2"/>
    <path d="M0.0224053 345.145C0.0224053 345.145 2.87248 345.543 7.37848 346.773C7.87848 355.65 9.44949 369.785 14.2325 384.026C23.6275 412.068 47.2804 428.272 65.0944 425.342C64.2564 429.272 63.1855 431.441 63.1855 431.441C45.0975 439.053 17.4314 422.524 7.07844 391.622C-0.770565 368.255 0.0224053 345.145 0.0224053 345.145Z" fill="#5B6CB2"/>
    <path d="M115.318 233.143C115.318 233.143 115.454 233.197 115.699 233.27C114.172 235.264 112.677 237.284 111.24 239.342C104.928 248.351 99.3327 257.885 94.4567 267.779C92.0057 272.785 89.7397 277.878 87.6647 283.057C87.5967 281.573 87.4967 280.049 87.3427 278.471C87.2597 277.619 87.1477 276.783 87.0347 275.947C87.1267 275.758 87.2096 275.564 87.3016 275.375C92.1776 265.482 97.7726 255.948 104.085 246.938C105.521 244.881 107.016 242.86 108.543 240.866C108.298 240.793 108.162 240.739 108.162 240.739C100.647 227.063 106.933 205.648 123.949 190.209C112.471 204.535 108.974 221.597 115.318 233.143Z" fill="#5B6CB2"/>
    <path d="M163.99 218.809C164.805 218.139 165.593 217.455 166.361 216.758C163.614 220.16 160.468 223.42 156.835 226.405C142.129 238.486 129.114 241.687 120.24 242.086C121.952 239.531 123.697 237 125.517 234.537C134.375 234.514 148.213 231.77 163.99 218.809Z" fill="#5B6CB2"/>
    <path d="M136.414 316.386C137.227 315.717 138.014 315.034 138.781 314.34C136.036 317.74 132.891 321 129.26 323.983C109.524 340.203 92.8064 340.426 85.1104 339.327C85.3154 337.515 85.5203 335.701 85.7673 333.894C86.0173 332.043 86.3204 330.196 86.6144 328.348C86.9544 329.159 87.3164 329.952 87.7244 330.711C87.7244 330.711 109.21 338.742 136.414 316.386Z" fill="#5B6CB2"/>
    <path d="M218.424 599.969C218.424 599.969 217.428 595.766 213.753 589.954C218.946 592.513 224.27 594.854 229.838 596.848C232.493 597.761 235.32 598.629 238.252 599.161L246.177 600.728C251.446 601.788 261.342 602.885 266.621 604.029C276.885 606.231 291.512 608.56 301.974 610.924L300.97 615.331L299.978 619.721L295.664 618.711C285.157 616.282 270.005 613.888 259.466 611.627C254.187 610.483 244.292 609.387 239.022 608.327L231.097 606.759C228.165 606.227 225.338 605.359 222.683 604.446C220.791 603.769 218.936 603.038 217.096 602.286C217.573 601.532 218.026 600.765 218.424 599.969Z" fill="#5B6CB2"/>
    <path d="M92.8805 470.755C88.8385 462.056 86.4055 454.738 83.6775 445.529C83.4825 441.875 82.7715 438.918 85.1365 438.363C87.4835 445.459 92.1095 458.503 95.2635 465.277C99.0835 473.548 109.16 490.515 114.012 498.201C113.813 503.473 115.898 503.136 112.531 503.136C105.536 493.025 98.0505 481.951 92.8805 470.755Z" fill="url(#paint29_linear_10076_465)"/>
    <path d="M135.924 356.781C135.924 356.781 114.189 363.394 94.9962 378.435C89.0152 383.118 84.1032 388.491 80.2202 394.146C84.4702 385.927 90.7863 377.984 99.2283 371.387C118.426 356.347 140.156 349.738 140.156 349.738C140.156 349.738 146.4 383.118 127.945 410.086C141.139 384.689 135.924 356.781 135.924 356.781Z" fill="url(#paint30_linear_10076_465)"/>
    <path d="M75.2324 343.276C76.3974 341.001 77.3844 333.444 77.8104 334.21C77.8104 334.21 79.0473 335.03 79.4053 336.584C75.8033 358.287 75.9433 380.929 77.5973 398.246C75.9983 400.99 74.6073 403.774 73.4833 406.569C71.5533 387.371 71.7573 367.949 74.3893 348.815C74.6343 346.969 74.9324 345.12 75.2324 343.276Z" fill="url(#paint31_linear_10076_465)"/>
    <path d="M55.0424 380.725C56.8234 383.625 63.3435 394.857 64.6075 403.412C64.6665 411.112 56.3885 396.883 50.8065 387.773C36.1985 363.924 10.3855 355.741 0.154476 353.353C-0.0765241 348.425 0.0234945 345.421 0.0234945 345.421C0.0234945 345.421 36.5334 350.508 55.0424 380.725Z" fill="url(#paint32_linear_10076_465)"/>
    <path d="M81.9515 486.868C87.0405 489.881 90.9685 491.376 92.8805 492.853C91.5165 491.96 85.3815 491.779 83.6775 491.5C42.4135 484.542 30.8105 487.098 18.0645 490.356C16.3155 487.248 15.4185 485.374 15.4185 485.374C15.4185 485.374 49.4285 472.432 81.9515 486.868Z" fill="url(#paint33_linear_10076_465)"/>
    <path d="M99.8484 254.265C97.8004 257.201 95.8473 260.21 93.9443 263.25C96.9893 257.929 100.251 252.725 103.745 247.709C103.809 247.834 103.868 247.954 103.931 248.071C103.931 248.071 104.072 248.118 104.307 248.196C102.78 250.189 101.285 252.203 99.8484 254.265Z" fill="url(#paint34_linear_10076_465)"/>
    <path d="M180.415 173.822C180.415 173.822 157.818 175.773 136.001 186.502C124.846 191.987 116.087 199.848 110.106 208.421C115.77 197.189 126.064 186.41 140.246 179.441C162.054 168.721 184.646 166.768 184.646 166.768C184.646 166.768 184.252 191.009 169.984 212.132C180.102 193.017 180.415 173.822 180.415 173.822Z" fill="url(#paint35_linear_10076_465)"/>
    <path d="M76.2783 297.985C76.2063 296.503 76.1013 294.981 75.9523 293.4C72.8213 261.176 47.3612 240.845 42.7402 237.395C44.7562 232.624 46.2473 229.819 46.2473 229.819C46.2473 229.819 76.7362 250.881 80.1892 286.345C80.2572 287.074 80.3162 287.788 80.3612 288.497C78.9382 291.627 77.5613 294.786 76.2783 297.985Z" fill="url(#paint36_linear_10076_465)"/>
    <path d="M90.5424 294.038C96.2294 287.405 103.659 281.438 112.662 277.027C134.47 266.295 157.057 264.351 157.057 264.351C157.057 264.351 156.658 288.587 142.399 309.72C152.521 290.606 152.82 271.406 152.82 271.406C152.82 271.406 130.233 273.347 108.43 284.077C99.4274 288.497 91.9874 294.457 86.3054 301.089C87.9504 296.667 89.7214 292.296 91.6604 287.981C95.6254 279.132 100.251 270.559 105.407 262.336C101.945 268.38 98.7464 274.574 95.8834 280.927C93.9584 285.236 92.1774 289.614 90.5424 294.038Z" fill="url(#paint37_linear_10076_465)"/>
    <path d="M298.411 615.298L299.402 610.876L295.106 609.879C284.844 607.491 269.986 605.216 259.71 603.023C254.554 601.931 244.804 600.871 239.639 599.833L231.885 598.32C230.603 598.061 229.244 597.856 228.229 597.604C228.07 597.57 227.885 597.506 227.708 597.461C232.651 589.598 239.973 572.296 233.729 544.655C225.968 510.183 196.489 491.124 189.167 486.858C190.626 481.833 191.74 478.883 191.74 478.883C191.74 478.883 229.066 498.149 237.965 537.593C244.204 565.239 236.887 582.538 231.943 590.404C232.12 590.454 232.302 590.508 232.474 590.551C233.471 590.791 234.838 591.011 236.125 591.274L243.865 592.783C249.039 593.812 258.789 594.881 263.932 595.968C274.217 598.161 289.071 600.436 299.343 602.819L303.637 603.827L302.646 608.247L300.969 615.605L299.978 619.996L297.472 619.407L298.411 615.298Z" fill="url(#paint38_linear_10076_465)"/>
    <path d="M168.245 479.767C165.232 490.496 161.14 498.784 156.8 505.172C159.509 500.027 161.996 493.971 164.012 486.817C174.945 447.914 151.421 412.638 151.421 412.638C151.421 412.638 135.974 425.855 123.147 445.859C136.513 421.956 155.649 405.572 155.649 405.572C155.649 405.572 179.191 440.864 168.245 479.767Z" fill="url(#paint39_linear_10076_465)"/>
    <path d="M144.978 566.411C151.824 566.411 157.338 567.362 159.599 567.918C141.643 570.8 107.932 578.65 96.9895 584.064C95.2365 582.05 94.2935 580.838 94.2935 580.838C94.2935 580.838 116.7 566.187 144.978 566.411Z" fill="url(#paint40_linear_10076_465)"/>
    <path d="M192.747 571.533C194.41 576.537 175.203 565.624 169.512 561.456C155.176 550.967 143.2 540.36 131.116 527.265C132.901 526.443 132.566 526.318 135.348 524.325C146.702 536.25 161.94 550.047 175.198 559.741C177.532 561.456 190.355 569.9 192.747 571.533Z" fill="url(#paint41_linear_10076_465)"/>
    <path d="M116.01 360.374C111.457 363.179 107.842 365.256 107.842 365.256C107.842 365.256 111.502 362.936 116.01 360.374Z" fill="url(#paint42_linear_10076_465)"/>
    <path d="M392.203 589.936L470.795 585.634L467.589 578.53C467.589 578.53 431.327 572.249 419.658 539.989C407.99 507.729 419.658 485.663 419.658 485.663H392.203H376.76H349.303C349.303 485.663 360.972 507.729 349.303 539.989C337.634 572.249 301.374 578.53 301.374 578.53L298.167 585.634L376.759 589.936V590.782L384.48 590.359L392.203 590.782L392.203 589.936Z" fill="url(#paint43_linear_10076_465)"/>
    <path opacity="0.5" d="M467.609 578.53C467.609 578.53 431.347 572.249 419.678 539.989C408.009 507.729 419.678 485.663 419.678 485.663H392.223H376.779H349.323C349.323 485.663 353.013 492.643 354.167 504.492C360.096 505.564 366.915 508.234 378.094 510.601C397.542 514.719 400.421 542.289 417.923 559.106C428.601 569.365 451.545 575.659 467.824 579.012L467.609 578.53Z" fill="#A2B2E7"/>
    <path opacity="0.42" d="M359.333 511.517C359.333 511.517 355.443 540.803 346.063 552.014C336.683 563.225 344.69 570.089 378.094 570.775C411.499 571.462 378.552 503.509 359.333 511.517Z" fill="url(#paint44_linear_10076_465)"/>
    <path d="M368.142 516.436C361.948 513.339 362.308 538.286 355.787 550.069C349.266 561.852 349.496 566.085 361.05 561.28C372.604 556.476 369.972 517.351 368.142 516.436Z" fill="white"/>
    <path d="M293.581 612.334H382.014H428.133H475.383C484.443 612.334 482.796 604.921 482.796 595.861V594.443C482.796 585.383 475.383 577.97 466.323 577.97H382.015H302.642C293.582 577.97 286.169 585.383 286.169 594.443V595.861C286.168 604.92 284.52 612.334 293.581 612.334Z" fill="url(#paint45_linear_10076_465)"/>
    <path opacity="0.42" d="M379.62 580.151C381.531 583.677 384.376 591.787 373.171 592.845C369.609 593.181 305.573 595.152 300.557 591.354C295.541 587.556 296.735 578.917 306.767 578.917C316.8 578.918 378.268 577.655 379.62 580.151Z" fill="url(#paint46_linear_10076_465)"/>
    <path opacity="0.5" d="M428.133 612.334H475.383C484.443 612.334 482.796 604.921 482.796 595.861V594.443C482.796 585.383 475.383 577.97 466.323 577.97H465.041C466.677 582.622 466.721 588.205 459.089 590.403C445.018 594.456 412.415 595.152 412.415 595.152H286.168V595.861C286.168 604.921 284.52 612.334 293.581 612.334H382.014H428.133Z" fill="#A2B2E7"/>
    <path d="M272.989 632.558H361.422H407.541H495.974C505.035 632.558 503.387 625.145 503.387 616.085V614.667C503.387 605.607 495.973 598.194 486.913 598.194H407.541H361.422H282.048C272.988 598.194 265.576 605.607 265.576 614.667V616.085C265.576 625.145 263.929 632.558 272.989 632.558Z" fill="url(#paint47_linear_10076_465)"/>
    <path opacity="0.42" d="M376.607 604.313C380.748 609.059 383.22 623.011 368.715 623.42C364.233 623.547 283.598 622.904 278.569 621.132C270.106 618.15 273.113 602.226 285.639 602.226C298.167 602.226 371.918 598.939 376.607 604.313Z" fill="url(#paint48_linear_10076_465)"/>
    <path opacity="0.5" d="M503.365 614.667C503.365 605.607 495.951 598.194 486.891 598.194H480.479C483.631 602.22 482.913 612.334 476.792 618.847C463.609 632.871 270.103 630.035 265.481 624.651C265.703 629.378 267.043 632.558 272.967 632.558H361.4H407.519H495.952C505.012 632.558 503.365 625.145 503.365 616.085V614.667Z" fill="#A2B2E7"/>
    <path d="M319.981 580.156C314.725 580.416 311.625 588.343 312.431 590.782C313.237 593.222 330.277 592.969 333.366 587.02C336.455 581.071 329.248 579.698 319.981 580.156Z" fill="white"/>
    <path d="M305.989 602.235C297.624 602.648 292.691 615.264 293.973 619.147C295.255 623.03 322.375 622.627 327.291 613.16C332.207 603.691 320.736 601.506 305.989 602.235Z" fill="white"/>
    <path opacity="0.5" d="M503.386 616.084V614.666C503.386 605.606 495.973 598.193 486.913 598.193H482.827C482.81 597.429 482.796 596.654 482.796 595.86V594.442C482.796 585.382 475.383 577.968 466.323 577.968H465.087C456.672 575.865 429.489 567.108 419.68 539.988C408.012 507.728 419.68 485.662 419.68 485.662H419.66H392.224H392.203H384.481C384.481 485.662 396.285 512.746 396.285 535.425C396.285 570.088 384.481 577.984 384.481 577.984C384.587 577.98 384.691 577.967 384.798 577.967H424.757C429.482 577.967 433.349 581.833 433.349 586.558C433.349 591.283 429.482 595.149 424.757 595.149H384.798C384.691 595.149 384.587 595.137 384.481 595.133V598.191H435.408C444.468 598.191 451.881 605.604 451.881 614.664V616.082C451.881 625.142 444.468 632.555 435.408 632.555H495.974C505.034 632.558 503.386 625.145 503.386 616.084Z" fill="#A2B2E7"/>
    <path d="M285.966 441.08C285.575 440.909 285.18 440.773 284.775 440.715C261.028 437.308 219.515 427.193 198.028 397.423C176.861 368.095 175.46 343.251 177.799 332.598H209.233C209.237 332.598 209.24 332.598 209.243 332.598C209.246 332.598 209.25 332.598 209.253 332.598H209.471V332.587C218.804 332.463 226.402 324.8 226.402 315.439V282.492C226.402 273.054 218.68 265.332 209.242 265.332C199.804 265.332 192.082 273.054 192.082 282.492V291.415H168.973C158.145 291.415 148.537 298.059 142.612 309.643C130.487 333.346 132.594 377.135 164.631 421.525C191.847 459.234 236.789 474.038 267.613 479.85V491.126C267.613 500.563 275.335 508.285 284.772 508.285C294.21 508.285 301.932 500.563 301.932 491.126V458.178C301.935 449.143 294.852 441.699 285.966 441.08Z" fill="url(#paint49_linear_10076_465)"/>
    <path opacity="0.5" d="M287.001 441.098C291.034 444.108 293.669 448.9 293.669 454.29V488.609C293.669 497.669 286.256 505.082 277.196 505.082H275.823C275.303 505.082 274.791 505.051 274.283 505.004C277.03 507.054 280.418 508.285 284.089 508.285H285.462C294.522 508.285 301.935 500.872 301.935 491.812V457.493C301.935 448.952 295.346 441.881 287.001 441.098Z" fill="#A2B2E7"/>
    <path d="M177.092 337.641C177.232 335.723 177.475 334.029 177.79 332.599H209.235H209.463V332.587C218.796 332.462 226.394 324.8 226.394 315.439V307.889C226.394 317.25 218.795 324.912 209.463 325.037V325.049H209.235H177.79C177.112 328.133 176.753 332.413 177.092 337.641Z" fill="url(#paint50_linear_10076_465)"/>
    <path opacity="0.5" d="M267.605 472.3C236.781 466.488 191.839 451.683 164.623 413.974C145.105 386.931 136.711 360.12 135.861 337.928C134.9 361.432 142.835 391.335 164.623 421.524C191.839 459.233 236.781 474.038 267.605 479.85V472.3Z" fill="#A2B2E7"/>
    <path opacity="0.42" d="M149.68 324.876C155.605 313.292 165.214 306.648 176.042 306.648H199.151V297.725C199.151 288.287 206.873 280.565 216.311 280.565C219.867 280.565 223.179 281.663 225.926 283.535V282.493C225.926 273.055 218.204 265.333 208.766 265.333C199.328 265.333 191.606 273.055 191.606 282.493V291.416H168.497C157.669 291.416 148.061 298.06 142.135 309.644C131.534 330.369 131.814 366.448 153.466 404.86C139.491 372.319 140.494 342.833 149.68 324.876Z" fill="url(#paint51_linear_10076_465)"/>
    <path opacity="0.5" d="M197.549 397.423C194.902 393.756 192.564 390.158 190.504 386.65C193.749 394.676 198.445 403.444 205.093 412.655C226.58 442.425 268.093 452.539 291.84 455.947C292.218 456.001 292.588 456.12 292.954 456.273C296.081 456.354 298.989 457.33 301.456 458.933V457.493C301.456 448.577 294.273 441.272 285.41 441.042C285.044 440.889 284.674 440.77 284.296 440.716C260.549 437.307 219.036 427.193 197.549 397.423Z" fill="#A2B2E7"/>
    <path d="M193.114 294.161C193.114 294.161 171.836 292.273 161.025 296.907C150.214 301.54 144.38 310.806 141.12 325.907C137.86 341.007 149.714 308.416 161.54 303.943C176.962 298.109 194.271 303.604 195.644 299.829C197.017 296.053 193.114 294.161 193.114 294.161Z" fill="white"/>
    <path d="M206.67 269.108C193.903 270.422 197.232 278.203 200.493 280.948C203.753 283.694 218.339 267.907 206.67 269.108Z" fill="white"/>
    <path d="M626.341 309.643C620.416 298.059 610.808 291.415 599.979 291.415H576.87V282.492C576.87 273.054 569.148 265.332 559.71 265.332C550.272 265.332 542.55 273.054 542.55 282.492V315.439C542.55 324.799 550.149 332.462 559.481 332.587V332.598H559.699C559.702 332.598 559.706 332.598 559.709 332.598C559.712 332.598 559.716 332.598 559.719 332.598H591.154C593.493 343.251 592.092 368.095 570.926 397.423C549.439 427.193 507.925 437.308 484.178 440.715C483.773 440.773 483.378 440.909 482.987 441.08C474.101 441.699 467.018 449.143 467.018 458.179V491.126C467.018 500.563 474.74 508.285 484.178 508.285C493.616 508.285 501.337 500.563 501.337 491.126V479.85C532.162 474.038 577.103 459.234 604.32 421.525C636.359 377.135 638.465 333.347 626.341 309.643Z" fill="url(#paint52_linear_10076_465)"/>
    <path opacity="0.5" d="M481.953 441.098C477.92 444.108 475.285 448.9 475.285 454.29V488.609C475.285 497.669 482.697 505.082 491.757 505.082H493.13C493.649 505.082 494.163 505.051 494.671 505.004C491.925 507.054 488.535 508.285 484.865 508.285H483.493C474.433 508.285 467.02 500.872 467.02 491.812V457.493C467.02 448.952 473.609 441.881 481.953 441.098Z" fill="#A2B2E7"/>
    <g opacity="0.5">
        <path d="M591.863 337.641C591.722 335.723 591.479 334.029 591.165 332.599H559.719H559.491V332.587C550.158 332.462 542.561 324.8 542.561 315.439V307.889C542.561 317.25 550.159 324.912 559.491 325.037V325.049H559.719H591.165C591.843 328.133 592.202 332.413 591.863 337.641Z" fill="#A2B2E7"/>
        <path d="M501.35 472.3C532.174 466.488 577.116 451.683 604.332 413.974C623.85 386.931 632.244 360.12 633.094 337.928C634.055 361.432 626.12 391.335 604.332 421.524C577.116 459.233 532.174 474.038 501.35 479.85V472.3Z" fill="#A2B2E7"/>
    </g>
    <path opacity="0.42" d="M619.275 324.876C613.349 313.292 603.741 306.648 592.913 306.648H569.805V297.725C569.805 288.287 562.083 280.565 552.645 280.565C549.089 280.565 545.778 281.663 543.03 283.535V282.493C543.03 273.055 550.751 265.333 560.188 265.333C569.626 265.333 577.349 273.055 577.349 282.493V291.416H600.458C611.286 291.416 620.893 298.06 626.819 309.644C637.42 330.369 637.141 366.448 615.489 404.86C629.464 372.319 628.461 342.833 619.275 324.876Z" fill="url(#paint53_linear_10076_465)"/>
    <path opacity="0.5" d="M571.406 397.423C574.053 393.756 576.391 390.158 578.451 386.65C575.206 394.676 570.509 403.444 563.861 412.655C542.374 442.425 500.862 452.539 477.115 455.947C476.737 456.001 476.366 456.12 476 456.273C472.873 456.354 469.966 457.33 467.499 458.933V457.493C467.499 448.577 474.682 441.272 483.545 441.042C483.911 440.889 484.28 440.77 484.658 440.716C508.404 437.307 549.919 427.193 571.406 397.423Z" fill="#A2B2E7"/>
    <path d="M575.841 294.161C575.841 294.161 597.119 292.273 607.93 296.907C618.741 301.54 624.575 310.806 627.835 325.907C631.095 341.007 619.241 308.416 607.415 303.943C591.993 298.109 574.684 303.604 573.311 299.829C571.938 296.053 575.841 294.161 575.841 294.161Z" fill="white"/>
    <path d="M562.285 269.108C575.052 270.422 571.723 278.203 568.462 280.948C565.202 283.694 550.616 267.907 562.285 269.108Z" fill="white"/>
    <path d="M384.482 499.199C471.919 499.199 542.801 412.779 542.801 306.173V262.359H226.164V306.173C226.163 412.778 297.045 499.199 384.482 499.199Z" fill="url(#paint54_linear_10076_465)"/>
    <path opacity="0.5" d="M226.163 262.358V274.527C271.083 274.369 426.344 273.89 483.799 274.572C532.876 275.155 530.417 296.229 530.417 296.229C530.417 402.834 459.564 485.82 372.127 485.82C334.766 485.82 300.435 470.032 273.357 443.643C301.94 477.992 341.177 499.199 384.482 499.199C471.919 499.199 542.801 412.779 542.801 306.173V262.358H226.163Z" fill="#A2B2E7"/>
    <path d="M550.886 211.522H462.453H306.512H218.079C209.019 211.522 210.666 218.935 210.666 227.995V229.413C210.666 238.473 218.079 265.333 227.139 265.333H306.512H462.453H541.826C550.886 265.333 558.299 238.474 558.299 229.413V227.995C558.298 218.935 559.946 211.522 550.886 211.522Z" fill="url(#paint55_linear_10076_465)"/>
    <path opacity="0.5" d="M550.886 211.522H549.177C549.143 212.894 549.099 214.329 549.099 215.816V217.234C549.099 226.295 541.686 253.154 532.626 253.154H453.253H297.312H217.939C217.403 253.154 216.873 253.053 216.349 252.874C219.245 259.779 223.02 265.334 227.138 265.334H306.511H462.452H541.825C550.885 265.334 558.298 238.475 558.298 229.414V227.996C558.298 218.935 559.946 211.522 550.886 211.522Z" fill="#A2B2E7"/>
    <path opacity="0.42" d="M239.835 281.269C227.159 284.979 239.012 363.941 254.826 395.06C276.104 436.93 319.799 483.452 367.416 461.64C440.173 428.311 425.457 329.871 413.102 298.966C401.575 270.135 253.906 277.151 239.835 281.269Z" fill="url(#paint56_linear_10076_465)"/>
    <path opacity="0.42" d="M387.382 293.781C411.766 299.865 323.242 468.285 279.042 409.714C253.477 375.836 188.323 244.115 387.382 293.781Z" fill="url(#paint57_linear_10076_465)"/>
    <path opacity="0.42" d="M232.753 251.948C232.753 251.948 219.883 257.372 216.451 243.678C213.019 229.984 216.451 215.708 228.806 215.708C241.161 215.708 536.308 215.708 536.308 215.708C536.308 215.708 587.101 222.229 474.19 221.199C361.279 220.169 262.44 224.288 254.203 232.524C245.966 240.761 239.935 248.056 232.753 251.948Z" fill="url(#paint58_linear_10076_465)"/>
    <path d="M237.113 218.796C226.869 213.042 214.211 231.158 222.285 243.196C229.982 254.673 246.278 223.944 237.113 218.796Z" fill="white"/>
    <path d="M276.167 219.838C260.003 219.838 247.564 224.288 259.694 226.004C271.823 227.719 324.74 219.838 276.167 219.838Z" fill="white"/>
    <path opacity="0.5" d="M550.885 211.522H462.452H384.481C384.481 211.522 399.328 215.954 399.328 231.72C399.328 243.933 392.163 257.388 388.932 262.835C388.902 262.886 388.869 262.942 388.839 262.992C388.744 263.152 388.655 263.299 388.567 263.444C388.538 263.492 388.506 263.547 388.478 263.593C388.387 263.743 388.304 263.878 388.223 264.009C388.204 264.04 388.181 264.076 388.162 264.107C387.672 264.899 387.381 265.333 387.381 265.333C387.381 265.333 439.182 278.396 439.182 354.574C439.182 430.702 387.45 499.064 387.382 499.154C473.479 497.265 542.8 411.595 542.8 306.173V265.22C551.411 263.403 558.297 238.146 558.297 229.413V227.995C558.297 218.935 559.946 211.522 550.885 211.522Z" fill="#A2B2E7"/>
    <path opacity="0.7" d="M188.537 175.545C196.728 189.876 227.129 230.035 227.129 230.035C227.129 230.035 272.926 275.412 274.663 276.919C276.396 278.429 235.768 223.906 235.768 223.906L188.537 175.545Z" fill="white"/>
    <path opacity="0.7" d="M188.861 274.157C201.187 262.373 237.516 226.247 237.516 226.247C237.516 226.247 267.813 177.965 268.551 176.597C268.763 176.18 229.816 222.033 229.816 222.033L188.861 274.157Z" fill="white"/>
    <path d="M240.9 217.604C229.671 210.19 231.735 189.288 231.63 183.396C231.63 185.095 231.63 187.001 231.63 189.042C231.602 188.138 231.546 187.172 231.546 186.959C231.546 185.703 231.546 184.509 231.546 183.396C231.515 185.095 231.376 187.769 230.944 190.869C230.944 190.869 227.63 211.81 221.734 216.171C208.399 226.064 174.844 224.196 187.73 224.43C231.16 225.198 231.16 261.235 231.547 273.034C231.547 271.441 231.547 269.411 231.547 267.071C231.575 267.508 231.61 267.86 231.631 268.093C231.631 270.008 231.631 271.683 231.631 273.034C232.543 245.069 232.424 227.382 270.349 225.015C282.872 224.203 253.977 226.247 240.9 217.604Z" fill="white"/>
    <path opacity="0.7" d="M100.893 315.919C113.624 315.866 152.128 310.717 152.128 310.717C152.128 310.717 199.984 297.217 201.655 296.624C203.327 296.034 151.297 302.59 151.297 302.59L100.893 315.919Z" fill="white"/>
    <path opacity="0.7" d="M167.204 353.165C163.977 340.415 153.532 302.307 153.532 302.307C153.532 302.307 132.636 263.629 131.998 262.614C131.799 262.313 147.779 305.874 147.779 305.874L167.204 353.165Z" fill="white"/>
    <path d="M149.016 296.753C139.774 301.473 126.527 292.147 122.533 289.979C123.673 290.625 124.952 291.349 126.323 292.124C125.705 291.799 125.037 291.47 124.894 291.389C124.051 290.912 123.249 290.458 122.501 290.035C123.63 290.701 125.371 291.811 127.288 293.278C127.288 293.278 140.085 303.458 140.772 309.073C142.346 321.782 128.344 343.594 133.397 335.034C150.412 306.176 174.601 319.867 182.667 324.09C181.598 323.485 180.235 322.714 178.665 321.825C178.969 321.972 179.217 322.083 179.382 322.157C180.667 322.884 181.792 323.521 182.698 324.034C164.275 312.798 152.358 306.158 165.177 279.804C169.389 271.088 159.785 291.259 149.016 296.753Z" fill="white"/>
    <path d="M381.946 545.513L312.334 588.649L381.946 631.785L451.555 588.649L381.946 545.513Z" fill="url(#paint59_linear_10076_465)"/>
    <path opacity="0.49" d="M381.946 549.612L448.248 590.698L451.555 588.649L381.946 545.513L312.334 588.649L315.641 590.698L381.946 549.612Z" fill="white"/>
    <path opacity="0.5" d="M381.427 631.51L450.597 588.649L381.427 545.785V631.51Z" fill="#A2B2E7"/>
    <path opacity="0.49" d="M381.99 630.906L380.677 578.771L381.946 545.513L314.479 587.32L359.088 599.219L381.99 630.906Z" fill="white"/>
    <path opacity="0.41" d="M381.946 546.333L312.334 588.649L381.946 585.916L451.555 588.649L381.946 546.333Z" fill="white"/>
    <path d="M381.984 563.468C368.06 563.468 356.77 574.445 356.77 587.978C356.77 601.52 368.061 612.495 381.984 612.495C395.911 612.495 407.197 601.52 407.197 587.978C407.197 574.445 395.911 563.468 381.984 563.468Z" fill="url(#paint60_linear_10076_465)"/>
    <g opacity="0.35">
        <path d="M381.946 614.128C367.265 614.128 355.322 602.501 355.322 588.209C355.322 573.918 367.265 562.291 381.946 562.291C396.625 562.291 408.568 573.918 408.568 588.209C408.568 602.501 396.625 614.128 381.946 614.128ZM381.946 564.645C368.564 564.645 357.676 575.216 357.676 588.209C357.676 601.204 368.564 611.775 381.946 611.775C395.328 611.775 406.215 601.204 406.215 588.209C406.215 575.215 395.328 564.645 381.946 564.645Z" fill="white"/>
    </g>
    <path opacity="0.5" d="M381.985 563.468C374.591 563.468 367.941 566.562 363.329 571.494C367.829 567.43 373.855 564.943 380.485 564.943C394.407 564.943 405.693 575.915 405.693 589.455C405.693 595.805 403.212 601.592 399.139 605.945C404.097 601.468 407.196 595.078 407.196 587.979C407.197 574.445 395.912 563.468 381.985 563.468Z" fill="#A2B2E7"/>
    <path opacity="0.5" d="M366.281 602.481C366.281 586.661 377.573 577.969 391.493 577.969C397.182 577.969 402.431 579.801 406.647 582.892C404.237 571.795 394.111 563.468 381.98 563.468C368.058 563.468 356.771 574.445 356.771 587.978C356.771 595.992 360.722 603.1 366.83 607.574C366.476 605.933 366.281 604.23 366.281 602.481Z" fill="#A2B2E7"/>
    <defs>
        <linearGradient id="paint0_linear_10076_465" x1="381.584" y1="-4.5096" x2="381.584" y2="333.2" gradientUnits="userSpaceOnUse">
            <stop offset="0.0593" stop-color="#E5F1DC"/>
            <stop offset="0.5" stop-color="#BF7DDC"/>
            <stop offset="1" stop-color="#6679DC"/>
        </linearGradient>
        <linearGradient id="paint1_linear_10076_465" x1="78.7301" y1="187.1" x2="305.624" y2="214.965" gradientUnits="userSpaceOnUse">
            <stop stop-color="#DCD6DC"/>
            <stop offset="0.4485" stop-color="#BF7DDC"/>
            <stop offset="1" stop-color="#6679DC"/>
        </linearGradient>
        <linearGradient id="paint2_linear_10076_465" x1="86.1161" y1="192.979" x2="301.832" y2="192.979" gradientUnits="userSpaceOnUse">
            <stop stop-color="white"/>
            <stop offset="1" stop-color="white"/>
        </linearGradient>
        <linearGradient id="paint3_linear_10076_465" x1="66.1125" y1="280.283" x2="303.427" y2="273.683" gradientUnits="userSpaceOnUse">
            <stop stop-color="#DCD6DC"/>
            <stop offset="0.4485" stop-color="#BF7DDC"/>
            <stop offset="1" stop-color="#6679DC"/>
        </linearGradient>
        <linearGradient id="paint4_linear_10076_465" x1="64.1576" y1="267.328" x2="304.5" y2="267.328" gradientUnits="userSpaceOnUse">
            <stop stop-color="white"/>
            <stop offset="1" stop-color="white"/>
        </linearGradient>
        <linearGradient id="paint5_linear_10076_465" x1="82.5753" y1="392.891" x2="331.307" y2="350.939" gradientUnits="userSpaceOnUse">
            <stop stop-color="#DCD6DC"/>
            <stop offset="0.4485" stop-color="#BF7DDC"/>
            <stop offset="1" stop-color="#6679DC"/>
        </linearGradient>
        <linearGradient id="paint6_linear_10076_465" x1="69.3113" y1="360.679" x2="338.93" y2="360.679" gradientUnits="userSpaceOnUse">
            <stop stop-color="white"/>
            <stop offset="1" stop-color="white"/>
        </linearGradient>
        <linearGradient id="paint7_linear_10076_465" x1="685.158" y1="187.1" x2="458.265" y2="214.965" gradientUnits="userSpaceOnUse">
            <stop stop-color="#DCD6DC"/>
            <stop offset="0.4485" stop-color="#BF7DDC"/>
            <stop offset="1" stop-color="#6679DC"/>
        </linearGradient>
        <linearGradient id="paint8_linear_10076_465" x1="462.057" y1="192.979" x2="677.773" y2="192.979" gradientUnits="userSpaceOnUse">
            <stop stop-color="white"/>
            <stop offset="1" stop-color="white"/>
        </linearGradient>
        <linearGradient id="paint9_linear_10076_465" x1="697.776" y1="280.283" x2="460.462" y2="273.683" gradientUnits="userSpaceOnUse">
            <stop stop-color="#DCD6DC"/>
            <stop offset="0.4485" stop-color="#BF7DDC"/>
            <stop offset="1" stop-color="#6679DC"/>
        </linearGradient>
        <linearGradient id="paint10_linear_10076_465" x1="459.388" y1="267.328" x2="699.731" y2="267.328" gradientUnits="userSpaceOnUse">
            <stop stop-color="white"/>
            <stop offset="1" stop-color="white"/>
        </linearGradient>
        <linearGradient id="paint11_linear_10076_465" x1="681.313" y1="392.891" x2="432.581" y2="350.939" gradientUnits="userSpaceOnUse">
            <stop stop-color="#DCD6DC"/>
            <stop offset="0.4485" stop-color="#BF7DDC"/>
            <stop offset="1" stop-color="#6679DC"/>
        </linearGradient>
        <linearGradient id="paint12_linear_10076_465" x1="424.959" y1="360.679" x2="694.577" y2="360.679" gradientUnits="userSpaceOnUse">
            <stop stop-color="white"/>
            <stop offset="1" stop-color="white"/>
        </linearGradient>
        <linearGradient id="paint13_linear_10076_465" x1="646.54" y1="244.549" x2="596.504" y2="600.482" gradientUnits="userSpaceOnUse">
            <stop offset="0.0593" stop-color="#E5F1DC"/>
            <stop offset="0.5" stop-color="#BF7DDC"/>
            <stop offset="1" stop-color="#6679DC"/>
        </linearGradient>
        <linearGradient id="paint14_linear_10076_465" x1="649.419" y1="470.752" x2="680.463" y2="470.752" gradientUnits="userSpaceOnUse">
            <stop stop-color="white"/>
            <stop offset="1" stop-color="white"/>
        </linearGradient>
        <linearGradient id="paint15_linear_10076_465" x1="622.715" y1="379.911" x2="683.668" y2="379.911" gradientUnits="userSpaceOnUse">
            <stop stop-color="white"/>
            <stop offset="1" stop-color="white"/>
        </linearGradient>
        <linearGradient id="paint16_linear_10076_465" x1="684.483" y1="370.362" x2="691.689" y2="370.362" gradientUnits="userSpaceOnUse">
            <stop stop-color="white"/>
            <stop offset="1" stop-color="white"/>
        </linearGradient>
        <linearGradient id="paint17_linear_10076_465" x1="699.282" y1="375.519" x2="763.888" y2="375.519" gradientUnits="userSpaceOnUse">
            <stop stop-color="white"/>
            <stop offset="1" stop-color="white"/>
        </linearGradient>
        <linearGradient id="paint18_linear_10076_465" x1="671.008" y1="486.447" x2="748.47" y2="486.447" gradientUnits="userSpaceOnUse">
            <stop stop-color="white"/>
            <stop offset="1" stop-color="white"/>
        </linearGradient>
        <linearGradient id="paint19_linear_10076_465" x1="659.581" y1="255.479" x2="669.944" y2="255.479" gradientUnits="userSpaceOnUse">
            <stop stop-color="white"/>
            <stop offset="1" stop-color="white"/>
        </linearGradient>
        <linearGradient id="paint20_linear_10076_465" x1="579.242" y1="189.449" x2="653.782" y2="189.449" gradientUnits="userSpaceOnUse">
            <stop stop-color="white"/>
            <stop offset="1" stop-color="white"/>
        </linearGradient>
        <linearGradient id="paint21_linear_10076_465" x1="683.527" y1="263.901" x2="721.148" y2="263.901" gradientUnits="userSpaceOnUse">
            <stop stop-color="white"/>
            <stop offset="1" stop-color="white"/>
        </linearGradient>
        <linearGradient id="paint22_linear_10076_465" x1="606.831" y1="286.027" x2="677.583" y2="286.027" gradientUnits="userSpaceOnUse">
            <stop stop-color="white"/>
            <stop offset="1" stop-color="white"/>
        </linearGradient>
        <linearGradient id="paint23_linear_10076_465" x1="460.25" y1="549.44" x2="574.72" y2="549.44" gradientUnits="userSpaceOnUse">
            <stop stop-color="white"/>
            <stop offset="1" stop-color="white"/>
        </linearGradient>
        <linearGradient id="paint24_linear_10076_465" x1="592.742" y1="455.373" x2="640.741" y2="455.373" gradientUnits="userSpaceOnUse">
            <stop stop-color="white"/>
            <stop offset="1" stop-color="white"/>
        </linearGradient>
        <linearGradient id="paint25_linear_10076_465" x1="604.29" y1="575.236" x2="669.595" y2="575.236" gradientUnits="userSpaceOnUse">
            <stop stop-color="white"/>
            <stop offset="1" stop-color="white"/>
        </linearGradient>
        <linearGradient id="paint26_linear_10076_465" x1="571.039" y1="548.573" x2="632.771" y2="548.573" gradientUnits="userSpaceOnUse">
            <stop stop-color="white"/>
            <stop offset="1" stop-color="white"/>
        </linearGradient>
        <linearGradient id="paint27_linear_10076_465" x1="647.878" y1="362.815" x2="656.047" y2="362.815" gradientUnits="userSpaceOnUse">
            <stop stop-color="white"/>
            <stop offset="1" stop-color="white"/>
        </linearGradient>
        <linearGradient id="paint28_linear_10076_465" x1="142.445" y1="268.47" x2="157.228" y2="597.112" gradientUnits="userSpaceOnUse">
            <stop offset="0.0593" stop-color="#E5F1DC"/>
            <stop offset="0.5" stop-color="#BF7DDC"/>
            <stop offset="1" stop-color="#6679DC"/>
        </linearGradient>
        <linearGradient id="paint29_linear_10076_465" x1="83.4253" y1="470.752" x2="114.47" y2="470.752" gradientUnits="userSpaceOnUse">
            <stop stop-color="white"/>
            <stop offset="1" stop-color="white"/>
        </linearGradient>
        <linearGradient id="paint30_linear_10076_465" x1="80.2204" y1="379.911" x2="141.173" y2="379.911" gradientUnits="userSpaceOnUse">
            <stop stop-color="white"/>
            <stop offset="1" stop-color="white"/>
        </linearGradient>
        <linearGradient id="paint31_linear_10076_465" x1="72.1997" y1="370.362" x2="79.4049" y2="370.362" gradientUnits="userSpaceOnUse">
            <stop stop-color="white"/>
            <stop offset="1" stop-color="white"/>
        </linearGradient>
        <linearGradient id="paint32_linear_10076_465" x1="0.00098617" y1="375.519" x2="64.6071" y2="375.519" gradientUnits="userSpaceOnUse">
            <stop stop-color="white"/>
            <stop offset="1" stop-color="white"/>
        </linearGradient>
        <linearGradient id="paint33_linear_10076_465" x1="15.4186" y1="486.447" x2="92.8802" y2="486.447" gradientUnits="userSpaceOnUse">
            <stop stop-color="white"/>
            <stop offset="1" stop-color="white"/>
        </linearGradient>
        <linearGradient id="paint34_linear_10076_465" x1="93.9447" y1="255.479" x2="104.307" y2="255.479" gradientUnits="userSpaceOnUse">
            <stop stop-color="white"/>
            <stop offset="1" stop-color="white"/>
        </linearGradient>
        <linearGradient id="paint35_linear_10076_465" x1="110.107" y1="189.449" x2="184.646" y2="189.449" gradientUnits="userSpaceOnUse">
            <stop stop-color="white"/>
            <stop offset="1" stop-color="white"/>
        </linearGradient>
        <linearGradient id="paint36_linear_10076_465" x1="42.7402" y1="263.901" x2="80.3609" y2="263.901" gradientUnits="userSpaceOnUse">
            <stop stop-color="white"/>
            <stop offset="1" stop-color="white"/>
        </linearGradient>
        <linearGradient id="paint37_linear_10076_465" x1="86.3058" y1="286.027" x2="157.057" y2="286.027" gradientUnits="userSpaceOnUse">
            <stop stop-color="white"/>
            <stop offset="1" stop-color="white"/>
        </linearGradient>
        <linearGradient id="paint38_linear_10076_465" x1="189.168" y1="549.44" x2="303.639" y2="549.44" gradientUnits="userSpaceOnUse">
            <stop stop-color="white"/>
            <stop offset="1" stop-color="white"/>
        </linearGradient>
        <linearGradient id="paint39_linear_10076_465" x1="123.147" y1="455.373" x2="171.147" y2="455.373" gradientUnits="userSpaceOnUse">
            <stop stop-color="white"/>
            <stop offset="1" stop-color="white"/>
        </linearGradient>
        <linearGradient id="paint40_linear_10076_465" x1="94.2939" y1="575.236" x2="159.599" y2="575.236" gradientUnits="userSpaceOnUse">
            <stop stop-color="white"/>
            <stop offset="1" stop-color="white"/>
        </linearGradient>
        <linearGradient id="paint41_linear_10076_465" x1="131.117" y1="548.573" x2="192.849" y2="548.573" gradientUnits="userSpaceOnUse">
            <stop stop-color="white"/>
            <stop offset="1" stop-color="white"/>
        </linearGradient>
        <linearGradient id="paint42_linear_10076_465" x1="107.842" y1="362.815" x2="116.011" y2="362.815" gradientUnits="userSpaceOnUse">
            <stop stop-color="white"/>
            <stop offset="1" stop-color="white"/>
        </linearGradient>
        <linearGradient id="paint43_linear_10076_465" x1="287.237" y1="200.432" x2="433.998" y2="781.778" gradientUnits="userSpaceOnUse">
            <stop offset="0.0593" stop-color="#E5F1DC"/>
            <stop offset="0.5" stop-color="#BF7DDC"/>
            <stop offset="1" stop-color="#6679DC"/>
        </linearGradient>
        <linearGradient id="paint44_linear_10076_465" x1="344.356" y1="524.609" x2="380.048" y2="562.132" gradientUnits="userSpaceOnUse">
            <stop stop-color="white"/>
            <stop offset="1" stop-color="white"/>
        </linearGradient>
        <linearGradient id="paint45_linear_10076_465" x1="283.985" y1="201.253" x2="430.746" y2="782.599" gradientUnits="userSpaceOnUse">
            <stop offset="0.0593" stop-color="#E5F1DC"/>
            <stop offset="0.5" stop-color="#BF7DDC"/>
            <stop offset="1" stop-color="#6679DC"/>
        </linearGradient>
        <linearGradient id="paint46_linear_10076_465" x1="337.794" y1="579.045" x2="345.523" y2="609.05" gradientUnits="userSpaceOnUse">
            <stop stop-color="white"/>
            <stop offset="1" stop-color="white"/>
        </linearGradient>
        <linearGradient id="paint47_linear_10076_465" x1="279.185" y1="202.465" x2="425.946" y2="783.811" gradientUnits="userSpaceOnUse">
            <stop offset="0.0593" stop-color="#E5F1DC"/>
            <stop offset="0.5" stop-color="#BF7DDC"/>
            <stop offset="1" stop-color="#6679DC"/>
        </linearGradient>
        <linearGradient id="paint48_linear_10076_465" x1="324.294" y1="603.615" x2="334.885" y2="644.732" gradientUnits="userSpaceOnUse">
            <stop stop-color="white"/>
            <stop offset="1" stop-color="white"/>
        </linearGradient>
        <linearGradient id="paint49_linear_10076_465" x1="174.295" y1="228.943" x2="321.056" y2="810.291" gradientUnits="userSpaceOnUse">
            <stop offset="0.0593" stop-color="#E5F1DC"/>
            <stop offset="0.5" stop-color="#BF7DDC"/>
            <stop offset="1" stop-color="#6679DC"/>
        </linearGradient>
        <linearGradient id="paint50_linear_10076_465" x1="177.832" y1="228.05" x2="324.594" y2="809.399" gradientUnits="userSpaceOnUse">
            <stop offset="0.0593" stop-color="#E5F1DC"/>
            <stop offset="0.5" stop-color="#BF7DDC"/>
            <stop offset="1" stop-color="#6679DC"/>
        </linearGradient>
        <linearGradient id="paint51_linear_10076_465" x1="135.306" y1="335.096" x2="225.925" y2="335.096" gradientUnits="userSpaceOnUse">
            <stop stop-color="white"/>
            <stop offset="1" stop-color="white"/>
        </linearGradient>
        <linearGradient id="paint52_linear_10076_465" x1="484.099" y1="150.733" x2="630.86" y2="732.081" gradientUnits="userSpaceOnUse">
            <stop offset="0.0593" stop-color="#E5F1DC"/>
            <stop offset="0.5" stop-color="#BF7DDC"/>
            <stop offset="1" stop-color="#6679DC"/>
        </linearGradient>
        <linearGradient id="paint53_linear_10076_465" x1="767.036" y1="-46.2996" x2="595.431" y2="308.645" gradientUnits="userSpaceOnUse">
            <stop stop-color="white"/>
            <stop offset="1" stop-color="white"/>
        </linearGradient>
        <linearGradient id="paint54_linear_10076_465" x1="355.293" y1="183.25" x2="502.054" y2="764.597" gradientUnits="userSpaceOnUse">
            <stop offset="0.0593" stop-color="#E5F1DC"/>
            <stop offset="0.5" stop-color="#BF7DDC"/>
            <stop offset="1" stop-color="#6679DC"/>
        </linearGradient>
        <linearGradient id="paint55_linear_10076_465" x1="372.654" y1="178.867" x2="519.415" y2="760.214" gradientUnits="userSpaceOnUse">
            <stop offset="0.0593" stop-color="#E5F1DC"/>
            <stop offset="0.5" stop-color="#BF7DDC"/>
            <stop offset="1" stop-color="#6679DC"/>
        </linearGradient>
        <linearGradient id="paint56_linear_10076_465" x1="234.492" y1="372.309" x2="423.311" y2="372.309" gradientUnits="userSpaceOnUse">
            <stop stop-color="white"/>
            <stop offset="1" stop-color="white"/>
        </linearGradient>
        <linearGradient id="paint57_linear_10076_465" x1="248.162" y1="352.392" x2="391.556" y2="352.392" gradientUnits="userSpaceOnUse">
            <stop stop-color="white"/>
            <stop offset="1" stop-color="white"/>
        </linearGradient>
        <linearGradient id="paint58_linear_10076_465" x1="215.195" y1="234.358" x2="547.7" y2="234.358" gradientUnits="userSpaceOnUse">
            <stop stop-color="white"/>
            <stop offset="1" stop-color="white"/>
        </linearGradient>
        <linearGradient id="paint59_linear_10076_465" x1="381.309" y1="556.326" x2="384.497" y2="718.468" gradientUnits="userSpaceOnUse">
            <stop stop-color="#6679DC"/>
            <stop offset="1" stop-color="#BF7DDC"/>
        </linearGradient>
        <linearGradient id="paint60_linear_10076_465" x1="386.31" y1="609.456" x2="379.532" y2="575.814" gradientUnits="userSpaceOnUse">
            <stop stop-color="#D6FFD4"/>
            <stop offset="1" stop-color="#A2B2E7"/>
        </linearGradient>
    </defs>
</svg>
