<svg width="533" height="632" viewBox="0 0 533 632" fill="none" xmlns="http://www.w3.org/2000/svg">
    <path d="M291.31 573.06L369.901 567.111L366.695 557.287C366.695 557.287 330.434 548.601 318.765 503.989C307.096 459.376 318.765 428.862 318.765 428.862H291.31H275.866H248.41C248.41 428.862 260.079 459.376 248.41 503.989C236.742 548.601 200.48 557.287 200.48 557.287L197.274 567.111L275.865 573.06V574.23L283.587 573.645L291.309 574.23V573.06H291.31Z" fill="url(#paint0_linear_10076_75)"/>
    <path opacity="0.45" d="M366.716 557.285C366.716 557.285 330.455 548.599 318.786 503.987C307.117 459.375 318.786 428.86 318.786 428.86H291.33H275.886H248.43C248.43 428.86 252.121 438.513 253.275 454.899C259.205 456.381 266.022 460.073 277.201 463.347C296.649 469.041 299.528 507.168 317.031 530.424C327.709 544.611 350.653 553.315 366.932 557.952L366.716 557.285Z" fill="#771919"/>
    <path opacity="0.42" d="M258.441 464.614C258.441 464.614 254.552 505.113 245.171 520.617C235.791 536.12 243.798 545.612 277.203 546.561C310.606 547.511 277.66 453.539 258.441 464.614Z" fill="url(#paint1_linear_10076_75)"/>
    <path d="M267.25 471.416C261.055 467.133 261.416 501.632 254.895 517.927C248.374 534.222 248.603 540.075 260.157 533.431C271.711 526.787 269.08 472.681 267.25 471.416Z" fill="#FFF6CC"/>
    <path d="M192.687 604.032H281.12H327.239H374.489C383.549 604.032 381.902 593.781 381.902 581.252V579.291C381.902 566.762 374.489 556.511 365.429 556.511H281.121H201.748C192.688 556.511 185.275 566.762 185.275 579.291V581.252C185.274 593.781 183.627 604.032 192.687 604.032Z" fill="url(#paint2_linear_10076_75)"/>
    <path opacity="0.42" d="M278.728 559.527C280.639 564.403 283.484 575.618 272.279 577.082C268.717 577.546 204.681 580.272 199.665 575.02C194.649 569.767 195.843 557.821 205.875 557.821C215.908 557.822 277.375 556.075 278.728 559.527Z" fill="url(#paint3_linear_10076_75)"/>
    <path opacity="0.45" d="M327.239 604.032H374.489C383.549 604.032 381.902 593.781 381.902 581.252V579.291C381.902 566.762 374.489 556.511 365.429 556.511H364.147C365.783 562.944 365.827 570.666 358.195 573.704C344.124 579.309 311.521 580.272 311.521 580.272H185.274V581.251C185.274 593.78 183.627 604.031 192.687 604.031H281.121L327.239 604.032Z" fill="#771919"/>
    <path d="M172.096 632H260.529H306.648H395.082C404.142 632 402.495 621.749 402.495 609.22V607.259C402.495 594.728 395.082 584.479 386.022 584.479H306.649H260.529H181.156C172.096 584.479 164.683 594.73 164.683 607.259V609.22C164.683 621.749 163.035 632 172.096 632Z" fill="url(#paint4_linear_10076_75)"/>
    <path opacity="0.42" d="M275.713 592.94C279.854 599.504 282.327 618.798 267.821 619.363C263.339 619.539 182.704 618.65 177.675 616.199C169.212 612.076 172.219 590.054 184.745 590.054C197.273 590.056 271.025 585.51 275.713 592.94Z" fill="url(#paint5_linear_10076_75)"/>
    <path opacity="0.45" d="M402.472 607.259C402.472 594.73 395.059 584.479 385.999 584.479H379.586C382.738 590.046 382.02 604.033 375.899 613.038C362.717 632.432 169.211 628.51 164.589 621.064C164.811 627.601 166.15 632 172.074 632H260.508H306.627H395.059C404.119 632 402.472 621.749 402.472 609.22V607.259Z" fill="#771919"/>
    <path d="M219.088 559.534C213.832 559.893 210.732 570.855 211.538 574.228C212.344 577.603 229.384 577.253 232.473 569.026C235.561 560.799 228.354 558.9 219.088 559.534Z" fill="#FFF6CC"/>
    <path d="M205.097 590.067C196.732 590.638 191.799 608.084 193.081 613.454C194.363 618.824 221.483 618.266 226.399 605.175C231.314 592.08 219.844 589.06 205.097 590.067Z" fill="#FFF6CC"/>
    <path opacity="0.45" d="M402.494 609.218V607.257C402.494 594.728 395.081 584.477 386.021 584.477H381.934C381.917 583.42 381.903 582.349 381.903 581.251V579.29C381.903 566.761 374.49 556.509 365.43 556.509H364.194C355.779 553.601 328.596 541.49 318.787 503.987C307.118 459.375 318.787 428.86 318.787 428.86H318.767H291.331H291.311H283.589C283.589 428.86 295.392 466.314 295.392 497.677C295.392 545.612 283.589 556.531 283.589 556.531C283.695 556.526 283.799 556.509 283.907 556.509H323.866C328.591 556.509 332.457 561.856 332.457 568.39C332.457 574.924 328.591 580.27 323.866 580.27H283.907C283.8 580.27 283.696 580.254 283.589 580.248V584.477H334.516C343.576 584.477 350.989 594.728 350.989 607.257V609.218C350.989 621.747 343.576 631.999 334.516 631.999H395.082C404.142 632 402.494 621.749 402.494 609.218Z" fill="#771919"/>
    <path d="M185.073 367.207C184.682 366.97 184.287 366.782 183.882 366.702C160.135 361.99 118.622 348.002 97.135 306.834C75.968 266.277 74.567 231.921 76.906 217.188H108.34C108.344 217.188 108.347 217.188 108.35 217.188C108.353 217.188 108.357 217.188 108.36 217.188H108.578V217.172C117.91 217.001 125.509 206.404 125.509 193.46V147.898C125.509 134.846 117.787 124.167 108.349 124.167C98.911 124.167 91.189 134.846 91.189 147.898V160.237H68.08C57.252 160.237 47.644 169.425 41.719 185.445C29.594 218.223 31.701 278.779 63.738 340.165C90.954 392.313 135.896 412.785 166.72 420.823V436.416C166.72 449.467 174.442 460.145 183.88 460.145C193.318 460.145 201.04 449.467 201.04 436.416V390.853C201.042 378.357 193.959 368.063 185.073 367.207Z" fill="url(#paint6_linear_10076_75)"/>
    <path opacity="0.45" d="M186.108 367.231C190.141 371.394 192.776 378.021 192.776 385.474V432.934C192.776 445.463 185.363 455.714 176.303 455.714H174.93C174.41 455.714 173.898 455.673 173.39 455.606C176.137 458.441 179.525 460.144 183.196 460.144H184.569C193.629 460.144 201.042 449.892 201.042 437.363V389.904C201.042 378.092 194.453 368.314 186.108 367.231Z" fill="#771919"/>
    <path d="M76.1991 224.161C76.3391 221.509 76.5821 219.166 76.8961 217.189H108.341H108.569V217.172C117.902 216.999 125.5 206.404 125.5 193.458V183.018C125.5 195.963 117.901 206.559 108.569 206.731V206.748H108.341H76.8961C76.2191 211.013 75.8591 216.932 76.1991 224.161Z" fill="url(#paint7_linear_10076_75)"/>
    <path opacity="0.45" d="M166.712 410.38C135.888 402.343 90.946 381.869 63.73 329.722C44.212 292.324 35.818 255.248 34.968 224.558C34.007 257.062 41.942 298.415 63.73 340.163C90.946 392.31 135.888 412.784 166.712 420.821V410.38Z" fill="#771919"/>
    <path opacity="0.42" d="M48.7861 206.509C54.7111 190.489 64.3191 181.301 75.1481 181.301H98.2571V168.962C98.2571 155.91 105.979 145.231 115.417 145.231C118.973 145.231 122.285 146.75 125.032 149.339V147.898C125.032 134.846 117.31 124.167 107.873 124.167C98.4351 124.167 90.7131 134.846 90.7131 147.898V160.237H67.6041C56.7761 160.237 47.1681 169.425 41.2431 185.445C30.6421 214.105 30.9221 264 52.5741 317.118C38.5971 272.119 39.6011 231.341 48.7861 206.509Z" fill="url(#paint8_linear_10076_75)"/>
    <path opacity="0.45" d="M96.6561 306.835C94.0091 301.763 91.6711 296.788 89.6111 291.937C92.8561 303.036 97.5521 315.162 104.2 327.899C125.687 369.068 167.201 383.055 190.947 387.768C191.325 387.842 191.695 388.007 192.061 388.218C195.188 388.33 198.096 389.68 200.563 391.897V389.906C200.563 377.576 193.38 367.474 184.517 367.156C184.151 366.944 183.781 366.779 183.403 366.705C159.656 361.989 118.143 348.004 96.6561 306.835Z" fill="#771919"/>
    <path d="M92.221 164.033C92.221 164.033 70.9431 161.423 60.132 167.831C49.321 174.238 43.4871 187.052 40.2271 207.935C36.9671 228.818 48.821 183.747 60.647 177.561C76.069 169.493 93.3781 177.092 94.7511 171.872C96.1241 166.65 92.221 164.033 92.221 164.033Z" fill="#FFF6CC"/>
    <path d="M105.777 129.388C93.01 131.205 96.339 141.965 99.599 145.761C102.86 149.559 117.445 127.727 105.777 129.388Z" fill="#FFF6CC"/>
    <path d="M525.448 185.443C519.523 169.424 509.915 160.236 499.086 160.236H475.977V147.896C475.977 134.845 468.255 124.166 458.818 124.166C449.38 124.166 441.658 134.845 441.658 147.896V193.459C441.658 206.402 449.256 217 458.589 217.171V217.186H458.807C458.81 217.186 458.814 217.186 458.817 217.186C458.82 217.186 458.824 217.186 458.827 217.186H490.261C492.6 231.918 491.199 266.275 470.033 306.832C448.546 348.001 407.032 361.989 383.285 366.701C382.88 366.781 382.485 366.969 382.094 367.205C373.208 368.061 366.125 378.356 366.125 390.853V436.415C366.125 449.465 373.847 460.144 383.285 460.144C392.723 460.144 400.444 449.465 400.444 436.415V420.821C431.269 412.784 476.21 392.312 503.427 340.164C535.466 278.778 537.572 218.223 525.448 185.443Z" fill="url(#paint9_linear_10076_75)"/>
    <path opacity="0.45" d="M381.06 367.231C377.027 371.394 374.392 378.021 374.392 385.474V432.934C374.392 445.463 381.805 455.714 390.865 455.714H392.238C392.758 455.714 393.27 455.673 393.778 455.606C391.031 458.441 387.643 460.144 383.972 460.144H382.599C373.539 460.144 366.126 449.892 366.126 437.363V389.904C366.127 378.092 372.715 368.314 381.06 367.231Z" fill="#771919"/>
    <g opacity="0.45">
        <path d="M490.97 224.161C490.83 221.509 490.587 219.166 490.272 217.189H458.827H458.599V217.172C449.266 216.999 441.668 206.404 441.668 193.458V183.018C441.668 195.963 449.267 206.559 458.599 206.731V206.748H458.827H490.272C490.95 211.013 491.309 216.932 490.97 224.161Z" fill="#771919"/>
        <path d="M400.456 410.38C431.28 402.343 476.222 381.869 503.438 329.722C522.956 292.324 531.35 255.248 532.2 224.558C533.161 257.062 525.226 298.415 503.438 340.163C476.222 392.31 431.28 412.784 400.456 420.821V410.38Z" fill="#771919"/>
    </g>
    <path opacity="0.42" d="M518.382 206.509C512.456 190.489 502.848 181.301 492.02 181.301H468.911V168.962C468.911 155.91 461.189 145.231 451.751 145.231C448.195 145.231 444.883 146.75 442.136 149.339V147.898C442.136 134.846 449.858 124.167 459.295 124.167C468.733 124.167 476.455 134.846 476.455 147.898V160.237H499.563C510.391 160.237 519.999 169.425 525.925 185.445C536.526 214.105 536.246 264 514.594 317.118C528.571 272.119 527.567 231.341 518.382 206.509Z" fill="url(#paint10_linear_10076_75)"/>
    <path opacity="0.45" d="M470.513 306.835C473.16 301.763 475.498 296.788 477.558 291.937C474.313 303.036 469.617 315.162 462.969 327.899C441.482 369.068 399.968 383.055 376.222 387.768C375.844 387.842 375.474 388.007 375.108 388.218C371.981 388.33 369.073 389.68 366.606 391.897V389.906C366.606 377.576 373.789 367.474 382.652 367.156C383.018 366.944 383.388 366.779 383.766 366.705C407.512 361.989 449.026 348.004 470.513 306.835Z" fill="#771919"/>
    <path d="M474.948 164.033C474.948 164.033 496.226 161.423 507.037 167.831C517.848 174.238 523.682 187.052 526.942 207.935C530.202 228.818 518.348 183.747 506.522 177.561C491.1 169.493 473.791 177.092 472.418 171.872C471.045 166.65 474.948 164.033 474.948 164.033Z" fill="#FFF6CC"/>
    <path d="M461.391 129.388C474.158 131.205 470.829 141.965 467.568 145.761C464.309 149.559 449.723 127.727 461.391 129.388Z" fill="#FFF6CC"/>
    <path d="M283.588 447.579C371.025 447.579 441.907 328.068 441.907 180.645V120.054H125.27V180.645C125.27 328.068 196.152 447.579 283.588 447.579Z" fill="url(#paint11_linear_10076_75)"/>
    <path opacity="0.45" d="M125.27 120.053V136.881C170.19 136.663 325.451 136 382.906 136.944C431.983 137.75 429.524 166.893 429.524 166.893C429.524 314.316 358.671 429.077 271.234 429.077C233.873 429.077 199.542 407.244 172.464 370.751C201.047 418.253 240.284 447.579 283.589 447.579C371.026 447.579 441.908 328.068 441.908 180.644V120.053H125.27Z" fill="#771919"/>
    <path d="M449.992 49.7524H361.559H205.618H117.185C108.125 49.7524 109.772 60.0038 109.772 72.5328V74.4938C109.772 87.0228 117.185 124.167 126.245 124.167H205.618H361.559H440.932C449.992 124.167 457.405 87.0242 457.405 74.4938V72.5328C457.405 60.0038 459.053 49.7524 449.992 49.7524Z" fill="url(#paint12_linear_10076_75)"/>
    <path opacity="0.45" d="M449.992 49.7524H448.282C448.248 51.6498 448.204 53.6342 448.204 55.6906V57.6515C448.204 70.1819 440.791 107.325 431.731 107.325H352.359H196.418H117.045C116.509 107.325 115.979 107.185 115.455 106.938C118.351 116.487 122.126 124.169 126.245 124.169H205.618H361.559H440.932C449.992 124.169 457.405 87.0242 457.405 74.4952V72.5342C457.405 60.0038 459.053 49.7524 449.992 49.7524Z" fill="#771919"/>
    <path opacity="0.42" d="M138.941 146.206C126.265 151.337 138.118 260.533 153.932 303.566C175.21 361.467 218.905 425.802 266.522 395.639C339.279 349.548 324.563 213.416 312.208 170.678C300.682 130.808 153.012 140.51 138.941 146.206Z" fill="url(#paint13_linear_10076_75)"/>
    <path opacity="0.42" d="M286.489 163.508C310.873 171.921 222.349 404.828 178.149 323.831C152.584 276.981 87.43 94.8265 286.489 163.508Z" fill="url(#paint14_linear_10076_75)"/>
    <path opacity="0.42" d="M131.86 105.657C131.86 105.657 118.99 113.158 115.558 94.2208C112.126 75.2834 115.558 55.5413 127.913 55.5413C140.268 55.5413 435.415 55.5413 435.415 55.5413C435.415 55.5413 486.208 64.5591 373.297 63.1347C260.386 61.7103 161.546 67.4065 153.31 78.796C145.073 90.1869 139.042 100.275 131.86 105.657Z" fill="url(#paint15_linear_10076_75)"/>
    <path d="M136.22 59.8131C125.976 51.8559 113.318 76.9084 121.392 93.5557C129.09 109.426 145.386 66.9308 136.22 59.8131Z" fill="#FFF6CC"/>
    <path d="M175.274 61.2524C159.11 61.2524 146.671 67.4063 158.801 69.7793C170.93 72.1524 223.847 61.2524 175.274 61.2524Z" fill="#FFF6CC"/>
    <path d="M449.992 49.7524H361.558H283.588C283.588 49.7524 298.434 55.8814 298.434 77.6841C298.434 94.5734 291.269 113.18 288.038 120.713C288.008 120.783 287.975 120.861 287.945 120.93C287.85 121.151 287.761 121.354 287.673 121.555C287.644 121.621 287.612 121.697 287.584 121.761C287.493 121.969 287.41 122.155 287.329 122.336C287.31 122.379 287.288 122.429 287.269 122.472C286.779 123.567 286.488 124.167 286.488 124.167H286.489C286.489 124.167 338.29 142.232 338.29 247.578C338.29 352.855 286.558 447.392 286.49 447.517C372.587 444.904 441.907 326.432 441.907 180.645V124.011C450.518 121.498 457.405 86.5706 457.405 74.4938V72.5328C457.405 60.0038 459.052 49.7524 449.992 49.7524Z" fill="url(#paint16_linear_10076_75)"/>
    <path opacity="0.7" d="M87.644 0C95.835 19.8182 126.236 75.3538 126.236 75.3538C126.236 75.3538 172.033 138.105 173.77 140.189C175.503 142.278 134.875 66.8781 134.875 66.8781L87.644 0Z" fill="white"/>
    <path opacity="0.7" d="M87.968 136.37C100.294 120.074 136.623 70.1152 136.623 70.1152C136.623 70.1152 166.92 3.34639 167.658 1.45459C167.87 0.877927 128.923 64.2877 128.923 64.2877L87.968 136.37Z" fill="white"/>
    <path d="M140.007 58.1646C128.778 47.9119 130.842 19.0066 130.737 10.8586C130.737 13.2082 130.737 15.844 130.737 18.6665C130.709 17.4163 130.653 16.0805 130.653 15.7859C130.653 14.049 130.653 12.3978 130.653 10.8586C130.622 13.2082 130.482 16.906 130.051 21.193C130.051 21.193 126.737 50.1522 120.841 56.1829C107.506 69.8639 73.9501 67.2807 86.8371 67.6043C130.267 68.6663 130.267 118.502 130.654 134.818C130.654 132.615 130.654 129.808 130.654 126.572C130.682 127.177 130.717 127.663 130.738 127.986C130.738 130.634 130.738 132.95 130.738 134.818C131.65 96.1458 131.531 71.6866 169.455 68.4132C181.979 67.289 153.084 70.1156 140.007 58.1646Z" fill="white"/>
    <path opacity="0.7" d="M0 194.122C12.731 194.049 51.235 186.928 51.235 186.928C51.235 186.928 99.091 168.259 100.762 167.439C102.434 166.623 50.404 175.689 50.404 175.689L0 194.122Z" fill="white"/>
    <path opacity="0.7" d="M66.3109 245.629C63.0839 227.997 52.6389 175.298 52.6389 175.298C52.6389 175.298 31.7429 121.811 31.1049 120.407C30.9059 119.991 46.8859 180.231 46.8859 180.231L66.3109 245.629Z" fill="white"/>
    <path d="M48.1229 167.618C38.8809 174.145 25.6349 161.248 21.6409 158.25C22.7809 159.142 24.0599 160.145 25.4309 161.216C24.8139 160.767 24.1439 160.312 24.0009 160.2C23.1579 159.54 22.3569 158.912 21.6089 158.327C22.7369 159.248 24.4789 160.783 26.3959 162.812C26.3959 162.812 39.1929 176.89 39.8799 184.655C41.4539 202.23 27.4519 232.394 32.5049 220.556C49.5199 180.649 73.7079 199.581 81.7739 205.422C80.7049 204.585 79.3419 203.519 77.7719 202.29C78.0759 202.493 78.3249 202.646 78.4899 202.749C79.7749 203.755 80.8999 204.635 81.8059 205.344C63.3829 189.806 51.4659 180.624 64.2849 144.179C68.4969 132.126 58.8919 160.02 48.1229 167.618Z" fill="white"/>
    <defs>
        <linearGradient id="paint0_linear_10076_75" x1="197.275" y1="501.545" x2="369.902" y2="501.545" gradientUnits="userSpaceOnUse">
            <stop offset="0.0615" stop-color="#E38250"/>
            <stop offset="0.4467" stop-color="#BD6E50"/>
            <stop offset="1" stop-color="#572600"/>
        </linearGradient>
        <linearGradient id="paint1_linear_10076_75" x1="243.463" y1="482.719" x2="291.082" y2="518.919" gradientUnits="userSpaceOnUse">
            <stop stop-color="white"/>
            <stop offset="1" stop-color="white"/>
        </linearGradient>
        <linearGradient id="paint2_linear_10076_75" x1="276.649" y1="520.614" x2="298.116" y2="626.795" gradientUnits="userSpaceOnUse">
            <stop offset="0.0615" stop-color="#E38250"/>
            <stop offset="0.4467" stop-color="#BD6E50"/>
            <stop offset="1" stop-color="#572600"/>
        </linearGradient>
        <linearGradient id="paint3_linear_10076_75" x1="236.902" y1="557.998" x2="250.888" y2="597.263" gradientUnits="userSpaceOnUse">
            <stop stop-color="white"/>
            <stop offset="1" stop-color="white"/>
        </linearGradient>
        <linearGradient id="paint4_linear_10076_75" x1="279.728" y1="489.308" x2="290.211" y2="668.096" gradientUnits="userSpaceOnUse">
            <stop offset="0.0615" stop-color="#E38250"/>
            <stop offset="0.4467" stop-color="#BD6E50"/>
            <stop offset="1" stop-color="#572600"/>
        </linearGradient>
        <linearGradient id="paint5_linear_10076_75" x1="223.402" y1="591.975" x2="242.567" y2="645.781" gradientUnits="userSpaceOnUse">
            <stop stop-color="white"/>
            <stop offset="1" stop-color="white"/>
        </linearGradient>
        <linearGradient id="paint6_linear_10076_75" x1="113.581" y1="123.524" x2="132.977" y2="557.594" gradientUnits="userSpaceOnUse">
            <stop offset="0.0615" stop-color="#E38250"/>
            <stop offset="0.4467" stop-color="#BD6E50"/>
            <stop offset="1" stop-color="#572600"/>
        </linearGradient>
        <linearGradient id="paint7_linear_10076_75" x1="76.0691" y1="203.589" x2="125.5" y2="203.589" gradientUnits="userSpaceOnUse">
            <stop offset="0.0615" stop-color="#E38250"/>
            <stop offset="0.4467" stop-color="#BD6E50"/>
            <stop offset="1" stop-color="#572600"/>
        </linearGradient>
        <linearGradient id="paint8_linear_10076_75" x1="34.4127" y1="220.643" x2="125.032" y2="220.643" gradientUnits="userSpaceOnUse">
            <stop stop-color="white"/>
            <stop offset="1" stop-color="white"/>
        </linearGradient>
        <linearGradient id="paint9_linear_10076_75" x1="443.98" y1="108.76" x2="463.377" y2="542.83" gradientUnits="userSpaceOnUse">
            <stop offset="0.0615" stop-color="#E38250"/>
            <stop offset="0.4467" stop-color="#BD6E50"/>
            <stop offset="1" stop-color="#572600"/>
        </linearGradient>
        <linearGradient id="paint10_linear_10076_75" x1="666.143" y1="-306.787" x2="386.335" y2="111.72" gradientUnits="userSpaceOnUse">
            <stop stop-color="white"/>
            <stop offset="1" stop-color="white"/>
        </linearGradient>
        <linearGradient id="paint11_linear_10076_75" x1="125.27" y1="283.816" x2="441.907" y2="283.816" gradientUnits="userSpaceOnUse">
            <stop offset="0.0615" stop-color="#E38250"/>
            <stop offset="0.4467" stop-color="#BD6E50"/>
            <stop offset="1" stop-color="#572600"/>
        </linearGradient>
        <linearGradient id="paint12_linear_10076_75" x1="109.655" y1="86.9599" x2="457.522" y2="86.9599" gradientUnits="userSpaceOnUse">
            <stop offset="0.0615" stop-color="#E38250"/>
            <stop offset="0.4467" stop-color="#BD6E50"/>
            <stop offset="1" stop-color="#572600"/>
        </linearGradient>
        <linearGradient id="paint13_linear_10076_75" x1="133.599" y1="272.103" x2="322.418" y2="272.103" gradientUnits="userSpaceOnUse">
            <stop stop-color="white"/>
            <stop offset="1" stop-color="white"/>
        </linearGradient>
        <linearGradient id="paint14_linear_10076_75" x1="147.269" y1="244.561" x2="290.663" y2="244.561" gradientUnits="userSpaceOnUse">
            <stop stop-color="white"/>
            <stop offset="1" stop-color="white"/>
        </linearGradient>
        <linearGradient id="paint15_linear_10076_75" x1="114.302" y1="81.3321" x2="446.807" y2="81.3321" gradientUnits="userSpaceOnUse">
            <stop stop-color="white"/>
            <stop offset="1" stop-color="white"/>
        </linearGradient>
        <linearGradient id="paint16_linear_10076_75" x1="105.774" y1="241.997" x2="464.476" y2="246.739" gradientUnits="userSpaceOnUse">
            <stop offset="0.2469" stop-color="#F7E436"/>
            <stop offset="1" stop-color="#D58D21"/>
        </linearGradient>
    </defs>
</svg>
