<svg width="636" height="633" viewBox="0 0 636 633" fill="none" xmlns="http://www.w3.org/2000/svg">
    <path d="M525.972 110.067C516.747 110.067 509.262 117.545 509.262 126.77C509.262 131.311 511.085 135.409 514.032 138.41C499.663 143.565 474.238 151.61 448.103 154.801C445.861 151.364 444.511 146.84 444.798 140.847C445.428 127.645 445.385 114.458 445.204 104.857C446.019 104.949 446.83 105.013 447.659 105.013C459.38 105.013 468.885 95.515 468.885 83.791C468.885 72.071 459.38 62.576 447.659 62.576C435.933 62.576 426.436 72.071 426.436 83.791C426.436 89.519 428.722 94.712 432.415 98.531L382.473 131.962L327.119 49.0551C336.333 45.2011 342.81 36.117 342.81 25.511C342.81 11.414 331.383 0 317.288 0C303.193 0 291.785 11.414 291.785 25.511C291.785 36.117 298.245 45.2021 307.452 49.0551L252.195 131.825L202.454 98.531C206.142 94.712 208.428 89.519 208.428 83.791C208.428 72.071 198.925 62.576 187.206 62.576C175.49 62.576 165.979 72.071 165.979 83.791C165.979 95.514 175.489 105.013 187.206 105.013C188.032 105.013 188.85 104.95 189.658 104.857C189.475 114.457 189.443 127.644 190.065 140.847C190.35 146.861 188.992 151.396 186.751 154.833C160.63 151.68 135.209 143.651 120.779 138.493C123.753 135.48 125.587 131.343 125.587 126.77C125.587 117.545 118.111 110.067 108.881 110.067C99.6527 110.067 92.1807 117.545 92.1807 126.77C92.1807 135.995 99.6527 143.479 108.881 143.479C109.479 143.479 110.055 143.364 110.634 143.301L132.336 264.648V274.939C132.336 274.939 150.881 273.755 310.976 273.755C313.137 273.755 321.451 273.755 323.607 273.755C483.696 273.755 502.243 274.939 502.243 274.939V264.648L523.95 143.272C524.625 143.358 525.28 143.479 525.971 143.479C535.197 143.479 542.68 135.995 542.68 126.77C542.681 117.545 535.198 110.067 525.972 110.067Z" fill="url(#paint0_linear_10076_317)"/>
    <path d="M327.918 49.0569C327.635 49.1839 327.426 49.5529 327.135 49.6739L390.025 143.744L436.272 102.208C432.576 98.3889 433.984 101.304 433.984 95.5759C433.984 83.8569 443.484 74.3579 455.207 74.3579C460.615 74.3579 465.536 76.3939 469.289 79.7229C467.388 69.9539 458.788 62.5779 448.456 62.5779C436.733 62.5779 427.235 72.0729 427.235 83.7929C427.235 89.5209 429.523 94.7139 433.22 98.5329L383.275 131.964L327.918 49.0569Z" fill="white"/>
    <path d="M299.338 37.299C299.338 23.1989 310.744 11.782 324.839 11.782C331.836 11.782 338.172 14.598 342.78 19.158C339.951 8.14796 329.983 0.00195312 318.088 0.00195312C303.994 0.00195312 292.585 11.4159 292.585 25.5129C292.585 32.5959 295.479 38.996 300.138 43.613C299.623 41.594 299.338 39.4809 299.338 37.299Z" fill="white"/>
    <path d="M452.322 154.34C452.347 159.489 453.636 163.488 455.655 166.582C481.79 163.394 507.213 155.349 521.585 150.2C518.638 147.193 516.811 143.094 516.811 138.554C516.811 129.329 524.299 121.851 533.523 121.851C537.222 121.851 540.629 123.07 543.401 125.103C542.559 116.66 535.436 110.067 526.773 110.067C517.548 110.067 510.063 117.545 510.063 126.77C510.063 131.311 511.887 135.409 514.833 138.41C501.092 143.339 477.238 150.903 452.322 154.34Z" fill="white"/>
    <path d="M197.613 152.628C196.993 139.435 197.026 126.239 197.211 116.645C196.403 116.731 191.77 105.161 190.349 104.858C190.338 112.396 190.468 132.348 190.866 140.848C191.15 146.862 189.797 151.397 187.552 154.834C167.221 152.38 147.339 146.977 132.715 142.265C132.01 145.345 130.475 148.107 128.33 150.271C142.761 155.435 168.181 163.464 194.3 166.621C196.546 163.18 197.9 158.642 197.613 152.628Z" fill="white"/>
    <path d="M210.007 110.312L259.745 143.613L309.657 67.4459C313.097 59.4939 310.865 52.1969 308.252 49.0569L252.998 131.827L203.255 98.5329C202.311 100.33 203.187 102.943 210.007 110.312Z" fill="white"/>
    <path d="M140.476 274.729L118.632 155.088C118.053 155.145 117.256 155.266 116.656 155.266C115.663 155.266 115.475 155.161 114.532 154.996L134.921 264.649V274.94C134.921 274.94 135.383 274.857 140.476 274.729Z" fill="white"/>
    <path d="M99.7297 138.554C99.7297 129.329 107.204 121.851 116.432 121.851C120.134 121.851 123.541 123.064 126.306 125.103C125.467 116.66 118.348 110.067 109.684 110.067C100.454 110.067 92.9817 117.545 92.9817 126.77C92.9817 132.304 95.6787 137.188 99.8167 140.234C99.7617 139.684 99.7297 139.123 99.7297 138.554Z" fill="white"/>
    <path d="M173.929 99.6429C173.674 98.3259 173.529 96.9669 173.529 95.5759C173.529 83.8569 183.039 74.3579 194.756 74.3579C200.162 74.3579 205.082 76.3939 208.832 79.7229C206.929 69.9539 198.332 62.5779 188.005 62.5779C176.292 62.5779 166.782 72.0729 166.782 83.7929C166.782 90.1029 169.554 95.7569 173.929 99.6429Z" fill="white"/>
    <path d="M236.365 223.133C232.759 211.31 29.5577 123.928 29.5577 123.928C18.2137 110.539 21.9067 136.243 25.7537 174.923C29.6027 213.6 31.0767 231.461 39.5117 238.716C47.9467 245.968 212.188 276.47 224.213 280.753C236.236 285.037 239.972 234.955 236.365 223.133Z" fill="url(#paint1_linear_10076_317)"/>
    <path opacity="0.42" d="M234.395 235.134C230.789 223.311 27.5877 135.931 27.5877 135.931C24.9997 132.877 23.2007 131.876 22.0027 132.58C21.6707 120.943 23.3907 116.648 29.5577 123.928C29.5577 123.928 232.759 211.31 236.365 223.133C238.525 230.208 238.05 250.982 234.745 265.608C236.147 253.319 236.004 240.414 234.395 235.134Z" fill="url(#paint2_linear_10076_317)"/>
    <path d="M236.848 285.01C231.693 273.006 7.98363 205.218 7.98363 205.218C-5.83137 193.61 0.818668 220.844 8.94567 262.293C17.0747 303.738 20.4957 322.961 30.4957 328.624C40.4957 334.283 215.66 350.235 229.305 351.65C242.948 353.067 242.003 297.013 236.848 285.01Z" fill="url(#paint3_linear_10076_317)"/>
    <path opacity="0.42" d="M235.893 298.736C230.738 286.732 7.02861 218.945 7.02861 218.945C3.87761 216.298 1.79962 215.69 0.554615 216.792C-0.984385 204.096 0.47257 198.906 7.98357 205.217C7.98357 205.217 231.694 273.006 236.848 285.009C239.935 292.192 241.508 315.149 239.351 332.124C239.652 318.238 238.194 304.097 235.893 298.736Z" fill="url(#paint4_linear_10076_317)"/>
    <path d="M267.375 363.684C260.453 351.566 13.8228 307.309 13.8228 307.309C-2.76724 297.877 7.28371 326.676 20.3457 371.023C33.4097 415.365 39.0767 436.022 50.8237 439.78C62.5707 443.534 249.852 442.266 265.279 440.32C280.704 438.374 274.298 375.801 267.375 363.684Z" fill="url(#paint5_linear_10076_317)"/>
    <path opacity="0.42" d="M267.614 379.314C260.692 367.196 14.0616 322.941 14.0616 322.941C10.2776 320.79 7.89057 320.647 6.60057 322.204C3.66557 308.374 4.80258 302.18 13.8216 307.309C13.8216 307.309 260.453 351.567 267.374 363.684C271.519 370.935 275.471 396.255 274.674 415.837C273.687 400.196 270.705 384.726 267.614 379.314Z" fill="url(#paint6_linear_10076_317)"/>
    <path d="M399.219 223.133C402.825 211.31 606.026 123.928 606.026 123.928C617.37 110.539 613.677 136.243 609.83 174.923C605.981 213.6 604.507 231.461 596.072 238.716C587.637 245.968 423.396 276.47 411.371 280.753C399.348 285.037 395.612 234.955 399.219 223.133Z" fill="url(#paint7_linear_10076_317)"/>
    <path opacity="0.42" d="M401.189 235.134C404.795 223.311 607.996 135.931 607.996 135.931C610.584 132.877 612.383 131.876 613.58 132.58C613.912 120.943 612.192 116.648 606.025 123.928C606.025 123.928 402.824 211.31 399.218 223.133C397.058 230.208 397.533 250.982 400.838 265.608C399.438 253.319 399.58 240.414 401.189 235.134Z" fill="url(#paint8_linear_10076_317)"/>
    <path d="M398.737 285.01C403.892 273.006 627.601 205.218 627.601 205.218C641.416 193.61 634.766 220.844 626.639 262.293C618.51 303.738 615.089 322.961 605.089 328.624C595.089 334.283 419.925 350.235 406.28 351.65C392.636 353.067 393.581 297.013 398.737 285.01Z" fill="url(#paint9_linear_10076_317)"/>
    <path opacity="0.42" d="M399.691 298.736C404.846 286.732 628.555 218.945 628.555 218.945C631.706 216.298 633.784 215.69 635.029 216.792C636.568 204.096 635.111 198.906 627.6 205.217C627.6 205.217 403.89 273.006 398.736 285.009C395.649 292.192 394.076 315.149 396.233 332.124C395.932 318.238 397.39 304.097 399.691 298.736Z" fill="url(#paint10_linear_10076_317)"/>
    <path d="M368.209 363.684C375.131 351.566 621.761 307.309 621.761 307.309C638.351 297.877 628.3 326.676 615.238 371.023C602.174 415.365 596.507 436.022 584.76 439.78C573.013 443.534 385.732 442.266 370.305 440.32C354.88 438.374 361.287 375.801 368.209 363.684Z" fill="url(#paint11_linear_10076_317)"/>
    <path opacity="0.42" d="M367.97 379.314C374.892 367.196 621.522 322.941 621.522 322.941C625.306 320.79 627.693 320.647 628.983 322.204C631.919 308.374 630.781 302.18 621.762 307.309C621.762 307.309 375.132 351.567 368.21 363.684C364.065 370.935 360.113 396.255 360.91 415.837C361.897 400.196 364.88 384.726 367.97 379.314Z" fill="url(#paint12_linear_10076_317)"/>
    <path d="M328.051 589.936L406.643 585.634L403.437 578.53C403.437 578.53 367.176 572.249 355.507 539.989C343.838 507.729 355.507 485.663 355.507 485.663H328.051H312.607H285.151C285.151 485.663 296.82 507.729 285.151 539.989C273.482 572.249 237.221 578.53 237.221 578.53L234.015 585.634L312.606 589.936V590.782L320.328 590.359L328.05 590.782L328.051 589.936Z" fill="url(#paint13_linear_10076_317)"/>
    <path opacity="0.5" d="M403.456 578.53C403.456 578.53 367.195 572.249 355.526 539.989C343.857 507.729 355.526 485.663 355.526 485.663H328.07H312.627H285.171C285.171 485.663 288.862 492.643 290.016 504.492C295.945 505.564 302.763 508.234 313.942 510.601C333.39 514.719 336.269 542.289 353.772 559.106C364.45 569.365 387.394 575.659 403.673 579.012L403.456 578.53Z" fill="#A2B2E7"/>
    <path opacity="0.42" d="M295.181 511.517C295.181 511.517 291.291 540.803 281.911 552.014C272.53 563.225 280.538 570.089 313.942 570.775C347.347 571.462 314.4 503.509 295.181 511.517Z" fill="url(#paint14_linear_10076_317)"/>
    <path d="M303.99 516.436C297.796 513.339 298.156 538.286 291.635 550.069C285.114 561.852 285.343 566.085 296.897 561.28C308.452 556.476 305.82 517.351 303.99 516.436Z" fill="white"/>
    <path d="M229.428 612.334H317.861H363.98H411.23C420.29 612.334 418.643 604.921 418.643 595.861V594.443C418.643 585.383 411.23 577.97 402.17 577.97H317.862H238.489C229.429 577.97 222.016 585.383 222.016 594.443V595.861C222.015 604.92 220.368 612.334 229.428 612.334Z" fill="url(#paint15_linear_10076_317)"/>
    <path opacity="0.42" d="M315.469 580.151C317.38 583.677 320.225 591.787 309.02 592.845C305.458 593.181 241.422 595.152 236.406 591.354C231.39 587.556 232.584 578.917 242.616 578.917C252.648 578.918 314.116 577.655 315.469 580.151Z" fill="url(#paint16_linear_10076_317)"/>
    <path opacity="0.5" d="M363.98 612.334H411.23C420.29 612.334 418.643 604.921 418.643 595.861V594.443C418.643 585.383 411.23 577.97 402.17 577.97H400.888C402.524 582.622 402.568 588.205 394.936 590.403C380.865 594.456 348.262 595.152 348.262 595.152H222.015V595.861C222.015 604.921 220.367 612.334 229.428 612.334H317.861H363.98Z" fill="#A2B2E7"/>
    <path d="M208.836 632.558H297.269H343.388H431.821C440.881 632.558 439.234 625.145 439.234 616.085V614.667C439.234 605.607 431.821 598.194 422.761 598.194H343.388H297.269H217.897C208.836 598.194 201.424 605.607 201.424 614.667V616.085C201.423 625.145 199.776 632.558 208.836 632.558Z" fill="url(#paint17_linear_10076_317)"/>
    <path opacity="0.42" d="M312.454 604.313C316.595 609.059 319.068 623.011 304.562 623.42C300.08 623.547 219.445 622.904 214.416 621.132C205.953 618.15 208.96 602.226 221.486 602.226C234.014 602.226 307.765 598.939 312.454 604.313Z" fill="url(#paint18_linear_10076_317)"/>
    <path opacity="0.5" d="M439.212 614.667C439.212 605.607 431.799 598.194 422.739 598.194H416.326C419.478 602.22 418.76 612.334 412.639 618.847C399.457 632.871 205.951 630.035 201.329 624.651C201.551 629.378 202.889 632.558 208.814 632.558H297.247H343.366H431.799C440.859 632.558 439.212 625.145 439.212 616.085V614.667Z" fill="#A2B2E7"/>
    <path d="M255.829 580.156C250.573 580.416 247.473 588.343 248.279 590.782C249.084 593.222 266.125 592.969 269.214 587.02C272.302 581.071 265.095 579.698 255.829 580.156Z" fill="white"/>
    <path d="M241.837 602.235C233.472 602.648 228.538 615.264 229.82 619.147C231.102 623.03 258.223 622.627 263.139 613.16C268.055 603.691 256.585 601.506 241.837 602.235Z" fill="white"/>
    <path opacity="0.5" d="M439.235 616.084V614.666C439.235 605.606 431.822 598.193 422.762 598.193H418.675C418.658 597.429 418.644 596.654 418.644 595.86V594.442C418.644 585.382 411.231 577.968 402.171 577.968H400.935C392.519 575.865 365.337 567.108 355.528 539.988C343.859 507.728 355.528 485.662 355.528 485.662H355.508H328.072H328.052H320.33C320.33 485.662 332.133 512.746 332.133 535.425C332.133 570.088 320.33 577.984 320.33 577.984C320.436 577.98 320.54 577.967 320.648 577.967H360.607C365.332 577.967 369.198 581.833 369.198 586.558C369.198 591.283 365.332 595.149 360.607 595.149H320.647C320.54 595.149 320.436 595.137 320.329 595.133V598.191H371.256C380.316 598.191 387.729 605.604 387.729 614.664V616.082C387.729 625.142 380.316 632.555 371.256 632.555H431.822C440.882 632.558 439.235 625.145 439.235 616.084Z" fill="#A2B2E7"/>
    <path d="M221.814 441.08C221.423 440.909 221.028 440.773 220.623 440.715C196.876 437.308 155.363 427.193 133.876 397.423C112.709 368.095 111.308 343.251 113.647 332.598H145.082C145.086 332.598 145.089 332.598 145.092 332.598C145.095 332.598 145.099 332.598 145.102 332.598H145.32V332.587C154.652 332.463 162.251 324.8 162.251 315.439V282.492C162.251 273.054 154.529 265.332 145.092 265.332C135.654 265.332 127.932 273.054 127.932 282.492V291.415H104.823C93.9947 291.415 84.3867 298.059 78.4607 309.643C66.3357 333.346 68.4427 377.135 100.48 421.525C127.696 459.234 172.638 474.038 203.462 479.85V491.126C203.462 500.563 211.184 508.285 220.622 508.285C230.06 508.285 237.782 500.563 237.782 491.126V458.178C237.782 449.143 230.699 441.699 221.814 441.08Z" fill="url(#paint19_linear_10076_317)"/>
    <path opacity="0.5" d="M222.849 441.098C226.882 444.108 229.517 448.9 229.517 454.29V488.609C229.517 497.669 222.104 505.082 213.044 505.082H211.671C211.151 505.082 210.639 505.051 210.131 505.004C212.878 507.054 216.266 508.285 219.937 508.285H221.31C230.37 508.285 237.783 500.872 237.783 491.812V457.493C237.782 448.952 231.194 441.881 222.849 441.098Z" fill="#A2B2E7"/>
    <path d="M112.939 337.641C113.079 335.723 113.322 334.029 113.637 332.599H145.082H145.31V332.587C154.643 332.462 162.241 324.8 162.241 315.439V307.889C162.241 317.25 154.642 324.912 145.31 325.037V325.049H145.082H113.637C112.959 328.133 112.6 332.413 112.939 337.641Z" fill="url(#paint20_linear_10076_317)"/>
    <path opacity="0.5" d="M203.453 472.3C172.629 466.488 127.687 451.683 100.471 413.974C80.9529 386.931 72.5589 360.12 71.7089 337.928C70.7479 361.432 78.6829 391.335 100.471 421.524C127.687 459.233 172.629 474.038 203.453 479.85V472.3Z" fill="#A2B2E7"/>
    <path opacity="0.42" d="M85.5268 324.876C91.4518 313.292 101.06 306.648 111.889 306.648H134.998V297.725C134.998 288.287 142.72 280.565 152.158 280.565C155.714 280.565 159.026 281.663 161.773 283.535V282.493C161.773 273.055 154.051 265.333 144.614 265.333C135.176 265.333 127.454 273.055 127.454 282.493V291.416H104.345C93.5168 291.416 83.9088 298.06 77.9828 309.644C67.3818 330.369 67.6618 366.448 89.3138 404.86C75.3378 372.319 76.3418 342.833 85.5268 324.876Z" fill="url(#paint21_linear_10076_317)"/>
    <path opacity="0.5" d="M133.396 397.423C130.749 393.756 128.411 390.158 126.351 386.65C129.596 394.676 134.292 403.444 140.94 412.655C162.427 442.425 203.94 452.539 227.687 455.947C228.065 456.001 228.435 456.12 228.801 456.273C231.928 456.354 234.836 457.33 237.303 458.933V457.493C237.303 448.577 230.12 441.272 221.257 441.042C220.891 440.889 220.521 440.77 220.143 440.716C196.397 437.307 154.883 427.193 133.396 397.423Z" fill="#A2B2E7"/>
    <path d="M128.961 294.161C128.961 294.161 107.683 292.273 96.8718 296.907C86.0608 301.54 80.2268 310.806 76.9668 325.907C73.7068 341.007 85.5608 308.416 97.3868 303.943C112.809 298.109 130.118 303.604 131.491 299.829C132.864 296.053 128.961 294.161 128.961 294.161Z" fill="white"/>
    <path d="M142.517 269.108C129.75 270.422 133.079 278.203 136.339 280.948C139.6 283.694 154.186 267.907 142.517 269.108Z" fill="white"/>
    <path d="M562.188 309.643C556.263 298.059 546.655 291.415 535.827 291.415H512.718V282.492C512.718 273.054 504.996 265.332 495.558 265.332C486.12 265.332 478.398 273.054 478.398 282.492V315.439C478.398 324.799 485.997 332.462 495.329 332.587V332.598H495.547C495.55 332.598 495.554 332.598 495.557 332.598C495.56 332.598 495.564 332.598 495.567 332.598H527.002C529.341 343.251 527.94 368.095 506.774 397.423C485.287 427.193 443.773 437.308 420.026 440.715C419.621 440.773 419.225 440.909 418.835 441.08C409.949 441.699 402.866 449.143 402.866 458.179V491.126C402.866 500.563 410.588 508.285 420.026 508.285C429.464 508.285 437.185 500.563 437.185 491.126V479.85C468.01 474.038 512.951 459.234 540.168 421.525C572.207 377.135 574.313 333.347 562.188 309.643Z" fill="url(#paint22_linear_10076_317)"/>
    <path opacity="0.5" d="M417.801 441.098C413.768 444.108 411.133 448.9 411.133 454.29V488.609C411.133 497.669 418.546 505.082 427.606 505.082H428.979C429.499 505.082 430.011 505.051 430.519 505.004C427.772 507.054 424.384 508.285 420.714 508.285H419.341C410.281 508.285 402.868 500.872 402.868 491.812V457.493C402.867 448.952 409.456 441.881 417.801 441.098Z" fill="#A2B2E7"/>
    <g opacity="0.5">
        <path d="M527.711 337.641C527.57 335.723 527.328 334.029 527.014 332.599H495.569H495.341V332.587C486.008 332.462 478.41 324.8 478.41 315.439V307.889C478.41 317.25 486.009 324.912 495.341 325.037V325.049H495.569H527.014C527.691 328.133 528.049 332.413 527.711 337.641Z" fill="#A2B2E7"/>
        <path d="M437.197 472.3C468.021 466.488 512.963 451.683 540.179 413.974C559.697 386.931 568.091 360.12 568.941 337.928C569.901 361.432 561.967 391.335 540.179 421.524C512.963 459.233 468.021 474.038 437.197 479.85V472.3Z" fill="#A2B2E7"/>
    </g>
    <path opacity="0.42" d="M555.123 324.876C549.198 313.292 539.59 306.648 528.762 306.648H505.653V297.725C505.653 288.287 497.931 280.565 488.493 280.565C484.937 280.565 481.625 281.663 478.878 283.535V282.493C478.878 273.055 486.6 265.333 496.037 265.333C505.475 265.333 513.197 273.055 513.197 282.493V291.416H536.306C547.134 291.416 556.742 298.06 562.668 309.644C573.269 330.369 572.989 366.448 551.337 404.86C565.312 372.319 564.308 342.833 555.123 324.876Z" fill="url(#paint23_linear_10076_317)"/>
    <path opacity="0.5" d="M507.253 397.423C509.9 393.756 512.238 390.158 514.298 386.65C511.053 394.676 506.357 403.444 499.709 412.655C478.222 442.425 436.709 452.539 412.962 455.947C412.584 456.001 412.214 456.12 411.848 456.273C408.721 456.354 405.813 457.33 403.346 458.933V457.493C403.346 448.577 410.529 441.272 419.392 441.042C419.758 440.889 420.128 440.77 420.506 440.716C444.253 437.307 485.766 427.193 507.253 397.423Z" fill="#A2B2E7"/>
    <path d="M511.688 294.161C511.688 294.161 532.966 292.273 543.777 296.907C554.587 301.54 560.422 310.806 563.682 325.907C566.942 341.007 555.088 308.416 543.262 303.943C527.84 298.109 510.531 303.604 509.158 299.829C507.785 296.054 511.688 294.161 511.688 294.161Z" fill="white"/>
    <path d="M498.132 269.108C510.899 270.422 507.57 278.203 504.309 280.948C501.049 283.694 486.463 267.907 498.132 269.108Z" fill="white"/>
    <path d="M320.329 499.199C407.766 499.199 478.648 412.779 478.648 306.173V262.359H162.011V306.173C162.011 412.778 232.892 499.199 320.329 499.199Z" fill="url(#paint24_linear_10076_317)"/>
    <path opacity="0.5" d="M162.011 262.358V274.527C206.931 274.369 362.192 273.89 419.647 274.572C468.724 275.155 466.265 296.229 466.265 296.229C466.265 402.834 395.412 485.82 307.975 485.82C270.614 485.82 236.283 470.032 209.205 443.643C237.788 477.992 277.025 499.199 320.33 499.199C407.767 499.199 478.649 412.779 478.649 306.173V262.358H162.011Z" fill="#A2B2E7"/>
    <path d="M486.733 211.522H398.3H242.359H153.926C144.866 211.522 146.513 218.935 146.513 227.995V229.413C146.513 238.473 153.926 265.333 162.986 265.333H242.359H398.3H477.673C486.733 265.333 494.146 238.474 494.146 229.413V227.995C494.146 218.935 495.793 211.522 486.733 211.522Z" fill="url(#paint25_linear_10076_317)"/>
    <path opacity="0.5" d="M486.733 211.522H485.023C484.989 212.894 484.945 214.329 484.945 215.816V217.234C484.945 226.295 477.532 253.154 468.472 253.154H389.099H233.159H153.786C153.25 253.154 152.72 253.053 152.196 252.874C155.092 259.779 158.867 265.334 162.985 265.334H242.358H398.299H477.672C486.732 265.334 494.145 238.475 494.145 229.414V227.996C494.146 218.935 495.793 211.522 486.733 211.522Z" fill="#A2B2E7"/>
    <path opacity="0.42" d="M175.682 281.269C163.006 284.979 174.859 363.941 190.673 395.06C211.951 436.93 255.646 483.452 303.263 461.64C376.02 428.311 361.304 329.871 348.949 298.966C337.423 270.135 189.753 277.151 175.682 281.269Z" fill="url(#paint26_linear_10076_317)"/>
    <path opacity="0.42" d="M323.23 293.781C347.614 299.865 259.09 468.285 214.89 409.714C189.324 375.836 124.171 244.115 323.23 293.781Z" fill="url(#paint27_linear_10076_317)"/>
    <path opacity="0.42" d="M168.6 251.948C168.6 251.948 155.73 257.372 152.298 243.678C148.866 229.984 152.298 215.708 164.653 215.708C177.008 215.708 472.155 215.708 472.155 215.708C472.155 215.708 522.948 222.229 410.037 221.199C297.126 220.169 198.287 224.288 190.05 232.524C181.813 240.761 175.783 248.056 168.6 251.948Z" fill="url(#paint28_linear_10076_317)"/>
    <path d="M172.961 218.796C162.717 213.042 150.059 231.158 158.133 243.196C165.83 254.673 182.126 223.944 172.961 218.796Z" fill="white"/>
    <path d="M212.014 219.838C195.85 219.838 183.411 224.288 195.541 226.004C207.67 227.719 260.587 219.838 212.014 219.838Z" fill="white"/>
    <path opacity="0.5" d="M486.733 211.522H398.3H320.33C320.33 211.522 335.176 215.954 335.176 231.72C335.176 243.933 328.011 257.388 324.78 262.835C324.75 262.886 324.717 262.942 324.687 262.992C324.591 263.152 324.503 263.299 324.415 263.444C324.386 263.492 324.354 263.547 324.326 263.593C324.235 263.743 324.152 263.878 324.071 264.009C324.052 264.04 324.03 264.076 324.011 264.107C323.521 264.899 323.23 265.333 323.23 265.333C323.23 265.333 375.031 278.396 375.031 354.574C375.031 430.702 323.299 499.064 323.231 499.154C409.328 497.265 478.648 411.595 478.648 306.173V265.22C487.259 263.403 494.146 238.146 494.146 229.413V227.995C494.145 218.935 495.793 211.522 486.733 211.522Z" fill="#A2B2E7"/>
    <path opacity="0.7" d="M124.385 175.545C132.576 189.876 162.977 230.035 162.977 230.035C162.977 230.035 208.774 275.412 210.511 276.919C212.244 278.429 171.616 223.906 171.616 223.906L124.385 175.545Z" fill="white"/>
    <path opacity="0.7" d="M124.709 274.157C137.035 262.373 173.364 226.247 173.364 226.247C173.364 226.247 203.661 177.965 204.4 176.597C204.612 176.18 165.665 222.033 165.665 222.033L124.709 274.157Z" fill="white"/>
    <path d="M176.747 217.604C165.518 210.19 167.582 189.288 167.477 183.396C167.477 185.095 167.477 187.001 167.477 189.042C167.449 188.138 167.393 187.172 167.393 186.959C167.393 185.703 167.393 184.509 167.393 183.396C167.362 185.095 167.223 187.769 166.791 190.869C166.791 190.869 163.477 211.81 157.581 216.171C144.246 226.064 110.691 224.196 123.577 224.43C167.007 225.198 167.007 261.235 167.394 273.034C167.394 271.441 167.394 269.411 167.394 267.071C167.422 267.508 167.457 267.86 167.478 268.093C167.478 270.008 167.478 271.683 167.478 273.034C168.39 245.069 168.271 227.382 206.195 225.015C218.719 224.203 189.825 226.247 176.747 217.604Z" fill="white"/>
    <path opacity="0.7" d="M36.7407 315.919C49.4717 315.866 87.9757 310.717 87.9757 310.717C87.9757 310.717 135.832 297.217 137.503 296.624C139.175 296.034 87.1447 302.59 87.1447 302.59L36.7407 315.919Z" fill="white"/>
    <path opacity="0.7" d="M103.051 353.165C99.8236 340.415 89.3786 302.307 89.3786 302.307C89.3786 302.307 68.4826 263.629 67.8446 262.614C67.6456 262.313 83.6256 305.874 83.6256 305.874L103.051 353.165Z" fill="white"/>
    <path d="M84.8626 296.753C75.6206 301.473 62.3756 292.147 58.3806 289.979C59.5206 290.625 60.7996 291.349 62.1706 292.124C61.5526 291.799 60.8836 291.47 60.7406 291.389C59.8976 290.912 59.0966 290.458 58.3486 290.035C59.4776 290.701 61.2186 291.811 63.1356 293.278C63.1356 293.278 75.9326 303.458 76.6196 309.073C78.1936 321.782 64.1916 343.594 69.2446 335.034C86.2596 306.176 110.448 319.867 118.514 324.09C117.445 323.485 116.083 322.714 114.512 321.825C114.816 321.972 115.065 322.083 115.23 322.157C116.515 322.884 117.64 323.521 118.546 324.034C100.123 312.798 88.2056 306.158 101.025 279.804C105.238 271.088 95.6326 291.259 84.8626 296.753Z" fill="white"/>
    <path d="M317.793 545.513L248.182 588.649L317.793 631.785L387.402 588.649L317.793 545.513Z" fill="url(#paint29_linear_10076_317)"/>
    <path opacity="0.49" d="M317.793 549.612L384.095 590.698L387.402 588.649L317.793 545.513L248.182 588.649L251.489 590.698L317.793 549.612Z" fill="white"/>
    <path opacity="0.5" d="M317.275 631.51L386.444 588.649L317.275 545.785V631.51Z" fill="#A2B2E7"/>
    <path opacity="0.49" d="M317.837 630.906L316.524 578.771L317.793 545.513L250.327 587.32L294.935 599.219L317.837 630.906Z" fill="white"/>
    <path opacity="0.41" d="M317.793 546.333L248.182 588.649L317.793 585.916L387.402 588.649L317.793 546.333Z" fill="white"/>
    <path d="M317.832 563.468C303.908 563.468 292.617 574.445 292.617 587.978C292.617 601.52 303.909 612.495 317.832 612.495C331.759 612.495 343.044 601.52 343.044 587.978C343.044 574.445 331.759 563.468 317.832 563.468Z" fill="url(#paint30_linear_10076_317)"/>
    <g opacity="0.35">
        <path d="M317.793 614.128C303.112 614.128 291.169 602.501 291.169 588.209C291.169 573.918 303.112 562.291 317.793 562.291C332.472 562.291 344.415 573.918 344.415 588.209C344.415 602.501 332.472 614.128 317.793 614.128ZM317.793 564.645C304.411 564.645 293.523 575.216 293.523 588.209C293.523 601.204 304.411 611.775 317.793 611.775C331.175 611.775 342.063 601.204 342.063 588.209C342.063 575.215 331.175 564.645 317.793 564.645Z" fill="white"/>
    </g>
    <path opacity="0.5" d="M317.832 563.468C310.438 563.468 303.788 566.562 299.176 571.494C303.676 567.43 309.702 564.943 316.332 564.943C330.254 564.943 341.541 575.915 341.541 589.455C341.541 595.805 339.06 601.592 334.987 605.945C339.945 601.468 343.044 595.078 343.044 587.979C343.044 574.445 331.759 563.468 317.832 563.468Z" fill="#A2B2E7"/>
    <path opacity="0.5" d="M302.128 602.481C302.128 586.661 313.42 577.969 327.34 577.969C333.029 577.969 338.279 579.801 342.495 582.892C340.085 571.795 329.959 563.468 317.828 563.468C303.906 563.468 292.618 574.445 292.618 587.978C292.618 595.992 296.57 603.1 302.678 607.574C302.324 605.933 302.128 604.23 302.128 602.481Z" fill="#A2B2E7"/>
    <defs>
        <linearGradient id="paint0_linear_10076_317" x1="317.431" y1="-4.5096" x2="317.431" y2="333.2" gradientUnits="userSpaceOnUse">
            <stop stop-color="#D6FFD4"/>
            <stop offset="1" stop-color="#A2B2E7"/>
        </linearGradient>
        <linearGradient id="paint1_linear_10076_317" x1="14.5776" y1="187.1" x2="241.471" y2="214.965" gradientUnits="userSpaceOnUse">
            <stop stop-color="#D6FFD4"/>
            <stop offset="1" stop-color="#A2B2E7"/>
        </linearGradient>
        <linearGradient id="paint2_linear_10076_317" x1="21.9637" y1="192.979" x2="237.679" y2="192.979" gradientUnits="userSpaceOnUse">
            <stop stop-color="white"/>
            <stop offset="1" stop-color="white"/>
        </linearGradient>
        <linearGradient id="paint3_linear_10076_317" x1="1.95984" y1="280.283" x2="239.274" y2="273.683" gradientUnits="userSpaceOnUse">
            <stop stop-color="#D6FFD4"/>
            <stop offset="1" stop-color="#A2B2E7"/>
        </linearGradient>
        <linearGradient id="paint4_linear_10076_317" x1="0.00510938" y1="267.328" x2="240.347" y2="267.328" gradientUnits="userSpaceOnUse">
            <stop stop-color="white"/>
            <stop offset="1" stop-color="white"/>
        </linearGradient>
        <linearGradient id="paint5_linear_10076_317" x1="18.4223" y1="392.891" x2="267.155" y2="350.939" gradientUnits="userSpaceOnUse">
            <stop stop-color="#D6FFD4"/>
            <stop offset="1" stop-color="#A2B2E7"/>
        </linearGradient>
        <linearGradient id="paint6_linear_10076_317" x1="5.15837" y1="360.679" x2="274.777" y2="360.679" gradientUnits="userSpaceOnUse">
            <stop stop-color="white"/>
            <stop offset="1" stop-color="white"/>
        </linearGradient>
        <linearGradient id="paint7_linear_10076_317" x1="621.006" y1="187.1" x2="394.112" y2="214.965" gradientUnits="userSpaceOnUse">
            <stop stop-color="#D6FFD4"/>
            <stop offset="1" stop-color="#A2B2E7"/>
        </linearGradient>
        <linearGradient id="paint8_linear_10076_317" x1="397.904" y1="192.979" x2="613.62" y2="192.979" gradientUnits="userSpaceOnUse">
            <stop stop-color="white"/>
            <stop offset="1" stop-color="white"/>
        </linearGradient>
        <linearGradient id="paint9_linear_10076_317" x1="633.623" y1="280.283" x2="396.309" y2="273.683" gradientUnits="userSpaceOnUse">
            <stop stop-color="#D6FFD4"/>
            <stop offset="1" stop-color="#A2B2E7"/>
        </linearGradient>
        <linearGradient id="paint10_linear_10076_317" x1="395.236" y1="267.328" x2="635.578" y2="267.328" gradientUnits="userSpaceOnUse">
            <stop stop-color="white"/>
            <stop offset="1" stop-color="white"/>
        </linearGradient>
        <linearGradient id="paint11_linear_10076_317" x1="617.161" y1="392.891" x2="368.429" y2="350.939" gradientUnits="userSpaceOnUse">
            <stop stop-color="#D6FFD4"/>
            <stop offset="1" stop-color="#A2B2E7"/>
        </linearGradient>
        <linearGradient id="paint12_linear_10076_317" x1="360.806" y1="360.679" x2="630.425" y2="360.679" gradientUnits="userSpaceOnUse">
            <stop stop-color="white"/>
            <stop offset="1" stop-color="white"/>
        </linearGradient>
        <linearGradient id="paint13_linear_10076_317" x1="234.016" y1="538.223" x2="406.642" y2="538.223" gradientUnits="userSpaceOnUse">
            <stop stop-color="#D6FFD4"/>
            <stop offset="1" stop-color="#A2B2E7"/>
        </linearGradient>
        <linearGradient id="paint14_linear_10076_317" x1="280.203" y1="524.609" x2="315.895" y2="562.132" gradientUnits="userSpaceOnUse">
            <stop stop-color="white"/>
            <stop offset="1" stop-color="white"/>
        </linearGradient>
        <linearGradient id="paint15_linear_10076_317" x1="313.389" y1="552.012" x2="324.829" y2="630.261" gradientUnits="userSpaceOnUse">
            <stop stop-color="#D6FFD4"/>
            <stop offset="1" stop-color="#A2B2E7"/>
        </linearGradient>
        <linearGradient id="paint16_linear_10076_317" x1="273.642" y1="579.045" x2="281.371" y2="609.05" gradientUnits="userSpaceOnUse">
            <stop stop-color="white"/>
            <stop offset="1" stop-color="white"/>
        </linearGradient>
        <linearGradient id="paint17_linear_10076_317" x1="316.468" y1="529.374" x2="321.959" y2="658.872" gradientUnits="userSpaceOnUse">
            <stop stop-color="#D6FFD4"/>
            <stop offset="1" stop-color="#A2B2E7"/>
        </linearGradient>
        <linearGradient id="paint18_linear_10076_317" x1="260.142" y1="603.615" x2="270.733" y2="644.732" gradientUnits="userSpaceOnUse">
            <stop stop-color="white"/>
            <stop offset="1" stop-color="white"/>
        </linearGradient>
        <linearGradient id="paint19_linear_10076_317" x1="154.707" y1="259.671" x2="154.707" y2="463.295" gradientUnits="userSpaceOnUse">
            <stop stop-color="#D6FFD4"/>
            <stop offset="1" stop-color="#A2B2E7"/>
        </linearGradient>
        <linearGradient id="paint20_linear_10076_317" x1="112.809" y1="322.765" x2="162.241" y2="322.765" gradientUnits="userSpaceOnUse">
            <stop stop-color="#D6FFD4"/>
            <stop offset="1" stop-color="#A2B2E7"/>
        </linearGradient>
        <linearGradient id="paint21_linear_10076_317" x1="71.153" y1="335.097" x2="161.772" y2="335.097" gradientUnits="userSpaceOnUse">
            <stop stop-color="white"/>
            <stop offset="1" stop-color="white"/>
        </linearGradient>
        <linearGradient id="paint22_linear_10076_317" x1="485.942" y1="259.671" x2="485.942" y2="463.295" gradientUnits="userSpaceOnUse">
            <stop stop-color="#D6FFD4"/>
            <stop offset="1" stop-color="#A2B2E7"/>
        </linearGradient>
        <linearGradient id="paint23_linear_10076_317" x1="702.883" y1="-46.2993" x2="531.278" y2="308.645" gradientUnits="userSpaceOnUse">
            <stop stop-color="white"/>
            <stop offset="1" stop-color="white"/>
        </linearGradient>
        <linearGradient id="paint24_linear_10076_317" x1="162.01" y1="380.779" x2="478.647" y2="380.779" gradientUnits="userSpaceOnUse">
            <stop stop-color="#D6FFD4"/>
            <stop offset="1" stop-color="#A2B2E7"/>
        </linearGradient>
        <linearGradient id="paint25_linear_10076_317" x1="146.395" y1="238.428" x2="494.263" y2="238.428" gradientUnits="userSpaceOnUse">
            <stop stop-color="#D6FFD4"/>
            <stop offset="1" stop-color="#A2B2E7"/>
        </linearGradient>
        <linearGradient id="paint26_linear_10076_317" x1="170.339" y1="372.309" x2="359.159" y2="372.309" gradientUnits="userSpaceOnUse">
            <stop stop-color="white"/>
            <stop offset="1" stop-color="white"/>
        </linearGradient>
        <linearGradient id="paint27_linear_10076_317" x1="184.009" y1="352.393" x2="327.403" y2="352.393" gradientUnits="userSpaceOnUse">
            <stop stop-color="white"/>
            <stop offset="1" stop-color="white"/>
        </linearGradient>
        <linearGradient id="paint28_linear_10076_317" x1="151.042" y1="234.358" x2="483.547" y2="234.358" gradientUnits="userSpaceOnUse">
            <stop stop-color="white"/>
            <stop offset="1" stop-color="white"/>
        </linearGradient>
        <linearGradient id="paint29_linear_10076_317" x1="317.156" y1="556.326" x2="320.344" y2="718.468" gradientUnits="userSpaceOnUse">
            <stop stop-color="#D6FFD4"/>
            <stop offset="1" stop-color="#A2B2E7"/>
        </linearGradient>
        <linearGradient id="paint30_linear_10076_317" x1="322.157" y1="609.456" x2="315.38" y2="575.814" gradientUnits="userSpaceOnUse">
            <stop stop-color="#D6FFD4"/>
            <stop offset="1" stop-color="#A2B2E7"/>
        </linearGradient>
    </defs>
</svg>
