<svg width="33" height="32" viewBox="0 0 33 32" fill="none" xmlns="http://www.w3.org/2000/svg">
    <path d="M16.5 0C25.3366 0 32.5 7.16344 32.5 16C32.5 24.8366 25.3366 32 16.5 32C7.66344 32 0.5 24.8366 0.5 16C0.5 7.16344 7.66344 0 16.5 0Z" fill="#FEE2E2" fill-opacity="0.3"/>
    <path d="M16.5 0C25.3366 0 32.5 7.16344 32.5 16C32.5 24.8366 25.3366 32 16.5 32C7.66344 32 0.5 24.8366 0.5 16C0.5 7.16344 7.66344 0 16.5 0Z" />
    <path d="M23.5 26H9.5V6H23.5V26Z" />
    <g clip-path="url(#clip0_772_6113)">
        <path d="M13.875 16.0016C13.875 16.234 13.782 16.4555 13.618 16.6195L12.8852 17.3523C12.5488 17.6887 11.9965 17.6641 11.5344 17.5492C11.4086 17.5164 11.2773 17.5 11.1406 17.5C10.2355 17.5 9.5 18.2355 9.5 19.1406C9.5 20.0457 10.2355 20.7812 11.1406 20.7812C11.3129 20.7812 11.4688 20.9371 11.4688 21.1094C11.4688 22.0145 12.2043 22.75 13.1094 22.75C14.0145 22.75 14.75 22.0145 14.75 21.1094C14.75 20.9727 14.7336 20.8414 14.7008 20.7129C14.5859 20.2508 14.5586 19.6984 14.8977 19.3621L15.6305 18.6293C15.7945 18.4652 16.016 18.3723 16.2484 18.3723H18.6875C18.8598 18.3723 19.0266 18.3641 19.1934 18.3449C19.5188 18.3121 19.6418 17.9211 19.4887 17.634C19.2562 17.202 19.125 16.7098 19.125 16.1848C19.125 14.4922 20.4949 13.1223 22.1875 13.1223C22.4062 13.1223 22.6168 13.1441 22.8219 13.1879C23.1418 13.2562 23.4809 13.0266 23.4234 12.7066C23.0215 10.459 21.0527 8.75 18.6875 8.75C16.0297 8.75 13.875 10.9047 13.875 13.5625V16.0016Z" fill="#DC2626"/>
    </g>
    <defs>
        <clipPath id="clip0_772_6113">
            <path d="M9.5 8.75H23.5V22.75H9.5V8.75Z" fill="white"/>
        </clipPath>
    </defs>
</svg>
