<svg width="32" height="32" viewBox="0 0 32 32" fill="none" xmlns="http://www.w3.org/2000/svg">
    <path d="M16 0C24.8366 0 32 7.16344 32 16C32 24.8366 24.8366 32 16 32C7.16344 32 0 24.8366 0 16C0 7.16344 7.16344 0 16 0Z" fill="#C7BDFC" fill-opacity="0.9886"/>
    <path d="M16 0C24.8366 0 32 7.16344 32 16C32 24.8366 24.8366 32 16 32C7.16344 32 0 24.8366 0 16C0 7.16344 7.16344 0 16 0Z" />
    <path d="M23 26H9V6H23V26Z" />
    <g clip-path="url(#clip0_772_6103)">
        <path d="M22.8086 9.87066C23.0657 9.61362 23.0657 9.198 22.8086 8.9437C22.5516 8.68941 22.136 8.68667 21.8817 8.9437L19.4727 11.3472C19.2157 11.6042 19.2157 12.0199 19.4727 12.2742C19.7297 12.5285 20.1454 12.5312 20.3997 12.2742L22.8059 9.86792L22.8086 9.87066ZM17.3536 9.49605C17.184 9.32652 16.9051 9.32652 16.7356 9.49605L16.4239 9.80503C15.3985 10.8304 15.3985 12.4929 16.4239 13.5183L16.7083 13.8027L15.8743 14.6367C15.7813 13.8902 15.4504 13.1656 14.8762 12.5914L14.5672 12.2824C14.3977 12.1128 14.1188 12.1128 13.9493 12.2824L13.6403 12.5914C12.6149 13.6167 12.6149 15.2792 13.6403 16.3046L13.9247 16.589L13.0907 17.423C12.9977 16.6765 12.6668 15.9519 12.0926 15.3777L11.7836 15.066C11.6141 14.8964 11.3352 14.8964 11.1657 15.066L10.8567 15.375C9.8313 16.4003 9.8313 18.0628 10.8567 19.0882L11.1411 19.3726L9.25708 21.2566C8.91528 21.5984 8.91528 22.1535 9.25708 22.4953C9.59888 22.8371 10.154 22.8371 10.4958 22.4953L12.3797 20.6113L12.7133 20.9449C13.7387 21.9703 15.4012 21.9703 16.4266 20.9449L16.7356 20.6359C16.9051 20.4664 16.9051 20.1875 16.7356 20.0179L16.4266 19.7089C15.8305 19.1128 15.0704 18.7765 14.2911 18.7L15.1633 17.8277L15.4969 18.1613C16.5223 19.1867 18.1848 19.1867 19.2102 18.1613L19.5192 17.8523C19.6887 17.6828 19.6887 17.4039 19.5192 17.2343L19.2102 16.9253C18.6141 16.3292 17.854 15.9929 17.0747 15.9164L17.9469 15.0441L18.2805 15.3777C19.3059 16.4031 20.9684 16.4031 21.9938 15.3777L22.3028 15.066C22.4723 14.8964 22.4723 14.6175 22.3028 14.448L21.9938 14.1363C21.8516 13.9941 21.704 13.8683 21.5454 13.7562L22.8086 12.4957C23.0657 12.2386 23.0657 11.823 22.8086 11.5687C22.5516 11.3144 22.136 11.3117 21.8817 11.5687L20.2575 13.1929C19.6942 13.0726 19.109 13.0917 18.554 13.2503C18.7208 12.6679 18.7344 12.0527 18.5922 11.4648L20.1836 9.87066C20.4407 9.61362 20.4407 9.198 20.1836 8.9437C19.9266 8.68941 19.511 8.68667 19.2567 8.9437L17.9989 10.196C17.8977 10.0593 17.7856 9.92808 17.6598 9.80503L17.3536 9.49605Z" fill="#896CFE"/>
    </g>
    <defs>
        <clipPath id="clip0_772_6103">
            <path d="M9 8.75H23V22.75H9V8.75Z" fill="white"/>
        </clipPath>
    </defs>
</svg>
