<svg width="19" height="19" viewBox="0 0 19 19" fill="none" xmlns="http://www.w3.org/2000/svg">
    <g clip-path="url(#clip0_476_10933)">
        <path d="M11.6211 1.47317C11.2168 1.65247 10.9531 2.05676 10.9531 2.49973V4.74973H7.01562C3.59844 4.74973 0.828125 7.52004 0.828125 10.9372C0.828125 14.9204 3.69336 16.6993 4.35078 17.0579C4.43867 17.1072 4.53711 17.1247 4.63555 17.1247C5.01875 17.1247 5.32812 16.8118 5.32812 16.4322C5.32812 16.1685 5.17695 15.9259 4.98359 15.7466C4.65312 15.4337 4.20312 14.8185 4.20312 13.7497C4.20312 11.8864 5.71484 10.3747 7.57812 10.3747H10.9531V12.6247C10.9531 13.0677 11.2133 13.472 11.6211 13.6513C12.0289 13.8306 12.5 13.7568 12.8305 13.4614L18.4555 8.39895C18.691 8.1845 18.8281 7.88215 18.8281 7.56223C18.8281 7.24231 18.6945 6.93997 18.4555 6.72551L12.8305 1.66301C12.5 1.36418 12.0254 1.29036 11.6211 1.47317Z" fill="#374151"/>
    </g>
    <defs>
        <clipPath id="clip0_476_10933">
            <path d="M0.828125 0.25H18.8281V18.25H0.828125V0.25Z" fill="white"/>
        </clipPath>
    </defs>
</svg>
