<svg width="148" height="346" viewBox="0 0 148 346" fill="none" xmlns="http://www.w3.org/2000/svg">
    <g filter="url(#filter0_i_0_1)">
        <ellipse cx="74" cy="10.5" rx="74" ry="10.5" transform="matrix(1 0 0 -1 0 346)" fill="url(#paint0_radial_0_1)" fill-opacity="0.03"/>
    </g>
    <path d="M135.998 182.772C135.799 179.838 133.3 175.786 131.68 173.43C130.274 164.569 129.811 159.69 129.418 151.558C128.971 144.918 128.411 138.105 125.59 131.978C125.342 127.677 126.075 123.219 124.895 118.908C123.539 103.465 128.024 80.7832 108.985 74.5156C104.694 73.2567 100.176 72.9379 95.9549 71.4251C85.7194 67.0702 85.574 66.7244 86.4409 54.4323C88.9284 52.5412 89.4076 49.3318 89.973 46.4519C92.4443 48.1323 93.3866 41.346 95.3142 40.1411C96.9995 38.5418 95.3895 33.5223 92.8212 35.4512C93.4027 34.5759 94.1404 33.8249 94.3881 32.7551C94.2912 33.1333 95.0773 34.8407 94.905 33.6358C95.5565 27.9247 100.031 22.3109 97.3871 16.5404C97.6563 16.6917 97.9632 16.7997 98.2432 16.924C98.2594 16.9834 98.3186 17.0105 98.3671 16.978C98.8947 17.3076 98.647 16.8538 98.3509 16.7079C97.3602 12.715 95.7288 8.5546 91.8198 6.6419C92.4443 6.33933 93.1066 5.69096 93.8443 6.04216C93.9896 6.04216 93.7958 5.86926 93.7473 5.84224C92.6651 5.34516 91.0067 4.9021 89.7145 5.11823C89.9622 4.69138 93.4297 3.81608 91.8682 4.0214C90.5814 3.46488 88.2877 3.6756 87.4585 4.91831C87.55 3.23795 86.9739 1.2442 85.6332 0.52019C85.994 1.43331 86.5539 2.29241 86.5001 3.3298C84.3141 0.73091 80.8466 0.158182 77.7237 0.125763C75.4623 -0.430756 79.409 0.963244 79.942 2.2762C77.9552 0.920019 75.5538 1.19558 73.3409 0.865988C73.0663 1.16316 74.8485 1.2388 75.0746 1.73589C69.8788 0.12036 64.6883 3.76205 59.5571 2.22757C60.8063 2.95699 62.5723 3.99438 64.1984 4.11325C62.4862 4.41042 60.6286 5.0642 59.191 6.02055C59.0187 6.13401 58.3941 6.25288 58.4264 6.43658C59.7832 6.03135 61.1562 6.06917 62.5508 5.97732C61.3447 6.59327 59.9932 7.23084 58.8248 7.76034C57.9041 7.99808 60.0148 7.87921 60.3432 7.80897C59.6917 8.07913 59.1748 8.61403 58.561 8.97604C58.6364 8.93822 58.7118 8.9058 58.7872 8.86798C57.0103 10.2998 55.2927 11.9045 54.6843 14.19C54.189 14.9357 53.7851 15.7948 53.5536 16.6701V16.6322C53.0583 18.7286 53.3759 20.9385 53.3383 23.0457C53.5105 22.7648 53.6505 22.4622 53.8605 22.2028C52.4714 25.4123 55.212 27.7194 56.0412 30.5614C56.2619 30.221 56.1865 29.6483 56.3104 29.2431C56.0735 31.1396 56.4235 32.9064 58.0226 33.8951C56.1973 34.5111 55.1797 37.0722 56.165 38.7579C57.7911 40.1519 57.7211 48.3106 60.6878 45.5226C60.5586 48.8509 62.3623 51.7308 64.5376 54.0811C64.7368 57.0204 65.1191 64.266 64.3114 65.7788C58.7225 71.987 49.6608 72.711 42.0151 74.5156C22.9762 80.794 27.4775 103.455 26.1045 118.908C24.9307 123.219 25.6576 127.677 25.41 131.978C21.7702 140.001 21.824 148.976 21.2371 157.599C20.7741 163.537 20.4241 166.358 19.3203 173.43C17.6996 175.786 15.2067 179.838 15.0021 182.772C14.9644 190.807 15.4059 192.12 18.2058 196.323C18.2058 196.323 20.1872 204.482 21.7702 204.439C21.7702 204.439 23.337 204.395 23.0732 202.034C23.0624 201.953 23.0516 201.867 23.0355 201.78C23.2562 202.088 23.4555 202.283 23.617 202.288C25.2861 202.569 25.7276 200.451 24.4569 197.831C26.1045 197.755 25.7545 195.804 24.8931 194.486C26.3145 193.06 24.2146 190.763 22.594 188.332C23.6224 185.425 25.8461 181.292 25.733 186.835C25.5015 187.743 26.1368 192.406 28.3013 193.119C31.2842 194.546 28.2798 189.58 29.6635 186.36C32.9856 177.223 31.688 180.362 29.6097 172.776C30.4389 170.345 31.6234 168.032 32.4203 165.59C35.4463 156.027 39.9637 146.685 39.7214 136.462C39.1237 132.448 41.4067 129.4 42.8497 125.872C43.8996 123.678 44.158 121.171 45.1918 119.037C45.2618 119.091 45.1918 119.259 45.278 119.221C48.767 128.984 46.8179 139.947 48.347 150.083C48.2232 154.471 46.1233 156.87 48.8316 161.565C47.5286 162.532 47.1409 165.752 46.9848 167.157C46.3494 172.814 45.7033 178.493 45.1541 184.15C43.5012 198.733 46.0372 213.143 49.4293 227.256C50.7376 233.253 49.0739 239.359 50.0861 245.399C49.327 251.672 48.7616 258.118 49.5369 264.467C52.4606 288.921 54.0921 306.627 53.236 315.337C52.4068 317.358 40.8898 325.646 35.5647 330.677C33.0503 333.049 32.6626 333.162 31.4673 333.616C30.1804 334.086 27.8383 335.966 28.8505 337.139C27.569 338.479 28.969 339.154 28.969 339.154C29.5774 340.753 31.0365 340.445 31.0365 340.445C31.7203 341.526 33.411 341.866 34.014 341.105C36.4531 345.081 40.3621 341.737 43.2642 340.489C49.79 340.57 51.7768 334.94 56.2135 331.655C65.889 327.667 64.7906 325.192 64.123 318.179C64.8768 317.833 65.0706 316.31 64.9091 315.418C63.9399 310.988 65.8298 304.715 66.0236 297.215C66.659 289.754 67.0143 281.308 70.1265 274.625C71.2356 272.237 71.8817 269.524 71.9679 266.812C72.5009 260.047 69.5503 253.445 69.1681 246.961C72.3394 240.634 69.5073 233.297 71.2356 226.553C73.454 214.775 74.5631 202.85 75.3008 190.893C75.3977 190.893 75.4946 190.893 75.5969 190.893C76.3292 202.85 77.4437 214.775 79.662 226.553C81.3904 233.297 78.5529 240.634 81.7296 246.961C81.3473 253.445 78.3967 260.047 78.9298 266.812C78.8759 271.48 81.4281 275.322 82.5642 279.661C85.0248 290.116 84.8202 301.316 86.2847 311.868C86.5432 313.576 85.1002 317.077 86.7747 318.179C86.0586 325.463 85.2132 327.667 94.4096 331.509C99.0885 334.637 100.887 340.553 107.536 340.472C110.466 341.596 114.337 345.162 116.905 341.121C117.228 341.742 119.188 341.645 119.861 340.445C120.265 340.689 121.848 340.002 121.929 339.154C122.144 339.17 123.14 338.149 122.079 337.139C123.011 335.891 120.61 333.956 119.425 333.616C118.235 333.162 117.847 333.049 115.333 330.677C110.008 325.646 99.347 316.888 98.5232 314.867C95.971 305.579 98.7009 290.78 101.398 264.467C102.524 252.499 99.7831 239.132 101.501 227.256C104.898 213.143 107.434 198.727 105.776 184.15C105.227 178.493 104.581 172.814 103.945 167.157C103.794 165.774 103.412 162.613 102.152 161.603C104.92 156.735 102.771 154.573 102.653 150.083C104.182 139.953 102.233 128.99 105.722 119.226C105.808 119.253 105.744 119.08 105.808 119.037C106.847 121.166 107.106 123.684 108.15 125.872C108.829 128.422 110.972 130.546 111.236 133.161C111.332 138.677 111.262 144.264 113.179 149.527C114.956 154.887 116.733 160.252 118.585 165.59C119.22 168.443 121.633 171.101 121.304 174.052C120.303 176.294 118.849 177.92 119.42 180.362C119.797 182.351 120.787 184.355 121.336 186.36C122.736 189.602 119.705 194.518 122.704 193.119C124.869 192.406 125.504 187.743 125.267 186.835C125.159 181.259 127.394 185.474 128.406 188.332C126.796 190.774 124.675 193.06 126.112 194.486C125.24 195.804 124.895 197.766 126.548 197.831C125.278 200.456 125.719 202.569 127.383 202.288C127.545 202.288 127.744 202.088 127.964 201.775C127.485 203.887 129.16 204.617 129.235 204.439C130.813 204.482 132.8 196.323 132.8 196.323C135.599 192.109 136.036 190.828 135.998 182.772Z" fill="#E3E7EE"/>
    <defs>
        <filter id="filter0_i_0_1" x="0" y="325" width="148" height="25" filterUnits="userSpaceOnUse" color-interpolation-filters="sRGB">
            <feFlood flood-opacity="0" result="BackgroundImageFix"/>
            <feBlend mode="normal" in="SourceGraphic" in2="BackgroundImageFix" result="shape"/>
            <feColorMatrix in="SourceAlpha" type="matrix" values="0 0 0 0 0 0 0 0 0 0 0 0 0 0 0 0 0 0 127 0" result="hardAlpha"/>
            <feOffset dy="4"/>
            <feGaussianBlur stdDeviation="14.5"/>
            <feComposite in2="hardAlpha" operator="arithmetic" k2="-1" k3="1"/>
            <feColorMatrix type="matrix" values="0 0 0 0 0 0 0 0 0 0 0 0 0 0 0 0 0 0 0.25 0"/>
            <feBlend mode="normal" in2="shape" result="effect1_innerShadow_0_1"/>
        </filter>
        <radialGradient id="paint0_radial_0_1" cx="0" cy="0" r="1" gradientUnits="userSpaceOnUse" gradientTransform="translate(74 10.5) rotate(180) scale(74 10.5)">
            <stop stop-color="#BBBBBB"/>
            <stop offset="1" stop-color="#0E0E0E"/>
        </radialGradient>
    </defs>
</svg>
