<svg width="636" height="632" viewBox="0 0 636 632" fill="none" xmlns="http://www.w3.org/2000/svg">
    <path d="M236.366 126.826C232.76 112.238 29.5586 4.42106 29.5586 4.42106C18.2146 -12.0991 21.9077 19.6161 25.7547 67.3418C29.6037 115.064 31.0776 137.102 39.5126 146.054C47.9476 155.002 212.189 192.637 224.214 197.921C236.237 203.208 239.974 141.414 236.366 126.826Z" fill="url(#paint0_linear_10076_220)"/>
    <path opacity="0.42" d="M234.396 141.634C230.79 127.046 27.5887 19.2309 27.5887 19.2309C25.0007 15.4627 23.2017 14.2276 22.0037 15.0963C21.6717 0.737821 23.3916 -4.56161 29.5586 4.41966C29.5586 4.41966 232.76 112.237 236.366 126.825C238.526 135.554 238.051 161.187 234.746 179.233C236.148 164.071 236.006 148.148 234.396 141.634Z" fill="url(#paint1_linear_10076_220)"/>
    <path d="M236.849 203.174C231.694 188.362 7.98368 104.721 7.98368 104.721C-5.83132 90.3988 0.818592 124.002 8.94559 175.144C17.0746 226.282 20.4956 250 30.4956 256.987C40.4956 263.971 215.66 283.652 229.305 285.398C242.95 287.147 242.005 217.985 236.849 203.174Z" fill="url(#paint2_linear_10076_220)"/>
    <path opacity="0.42" d="M235.895 220.11C230.74 205.299 7.03057 121.66 7.03057 121.66C3.87957 118.394 1.80157 117.644 0.556569 119.004C-0.982431 103.338 0.474524 96.9347 7.98552 104.722C7.98552 104.722 231.696 188.364 236.851 203.174C239.938 212.037 241.511 240.362 239.354 261.307C239.653 244.173 238.196 226.725 235.895 220.11Z" fill="url(#paint3_linear_10076_220)"/>
    <path d="M267.376 300.247C260.454 285.295 13.8237 230.688 13.8237 230.688C-2.76627 219.05 7.28468 254.584 20.3467 309.302C33.4107 364.014 39.0777 389.502 50.8247 394.139C62.5717 398.771 249.853 397.206 265.28 394.805C280.705 392.404 274.299 315.197 267.376 300.247Z" fill="url(#paint4_linear_10076_220)"/>
    <path opacity="0.42" d="M267.616 319.532C260.694 304.58 14.0637 249.976 14.0637 249.976C10.2797 247.322 7.89274 247.145 6.60274 249.066C3.66674 232.002 4.80468 224.359 13.8237 230.688C13.8237 230.688 260.455 285.296 267.376 300.247C271.521 309.194 275.473 340.435 274.676 364.596C273.689 345.298 270.706 326.21 267.616 319.532Z" fill="url(#paint5_linear_10076_220)"/>
    <path d="M399.221 126.826C402.827 112.238 606.028 4.42106 606.028 4.42106C617.372 -12.0991 613.679 19.6161 609.832 67.3418C605.983 115.064 604.509 137.102 596.074 146.054C587.639 155.002 423.397 192.637 411.373 197.921C399.35 203.208 395.614 141.414 399.221 126.826Z" fill="url(#paint6_linear_10076_220)"/>
    <path opacity="0.42" d="M401.191 141.634C404.797 127.046 607.997 19.2309 607.997 19.2309C610.585 15.4627 612.384 14.2276 613.581 15.0963C613.914 0.737821 612.194 -4.56161 606.027 4.41966C606.027 4.41966 402.826 112.237 399.22 126.825C397.06 135.554 397.535 161.187 400.84 179.233C399.439 164.071 399.581 148.148 401.191 141.634Z" fill="url(#paint7_linear_10076_220)"/>
    <path d="M398.738 203.174C403.893 188.362 627.602 104.721 627.602 104.721C641.417 90.3988 634.767 124.002 626.64 175.144C618.511 226.282 615.09 250 605.09 256.987C595.09 263.971 419.926 283.652 406.281 285.398C392.637 287.147 393.582 217.985 398.738 203.174Z" fill="url(#paint8_linear_10076_220)"/>
    <path opacity="0.42" d="M399.693 220.11C404.848 205.299 628.557 121.66 628.557 121.66C631.709 118.394 633.785 117.644 635.03 119.004C636.569 103.338 635.113 96.9347 627.602 104.722C627.602 104.722 403.891 188.364 398.737 203.174C395.65 212.037 394.078 240.362 396.235 261.307C395.934 244.173 397.392 226.725 399.693 220.11Z" fill="url(#paint9_linear_10076_220)"/>
    <path d="M368.211 300.247C375.133 285.295 621.763 230.688 621.763 230.688C638.353 219.05 628.302 254.584 615.24 309.302C602.176 364.014 596.509 389.502 584.762 394.139C573.015 398.771 385.734 397.206 370.307 394.805C354.882 392.404 361.288 315.197 368.211 300.247Z" fill="url(#paint10_linear_10076_220)"/>
    <path opacity="0.42" d="M367.971 319.532C374.893 304.58 621.523 249.976 621.523 249.976C625.307 247.322 627.694 247.145 628.984 249.066C631.919 232.002 630.782 224.359 621.763 230.688C621.763 230.688 375.133 285.296 368.211 300.247C364.066 309.194 360.114 340.435 360.911 364.596C361.899 345.298 364.881 326.21 367.971 319.532Z" fill="url(#paint11_linear_10076_220)"/>
    <path d="M328.052 579.412L406.644 574.104L403.438 565.338C403.438 565.338 367.177 557.589 355.508 517.784C343.84 477.98 355.508 450.753 355.508 450.753H328.052H312.608H285.152C285.152 450.753 296.821 477.98 285.152 517.784C273.483 557.589 237.222 565.338 237.222 565.338L234.016 574.104L312.607 579.412V580.456L320.329 579.934L328.051 580.456L328.052 579.412Z" fill="url(#paint12_linear_10076_220)"/>
    <path d="M403.458 565.337C403.458 565.337 367.197 557.587 355.528 517.783C343.86 477.979 355.528 450.752 355.528 450.752H328.073H312.629H285.174C285.174 450.752 288.865 459.365 290.019 473.985C295.948 475.307 302.766 478.602 313.945 481.522C333.393 486.603 336.273 520.621 353.775 541.371C364.453 554.029 387.397 561.795 403.676 565.932L403.458 565.337Z" fill="#D58D21"/>
    <path opacity="0.42" d="M295.183 482.653C295.183 482.653 291.293 518.787 281.913 532.62C272.533 546.453 280.54 554.922 313.944 555.769C347.348 556.615 314.402 472.772 295.183 482.653Z" fill="url(#paint13_linear_10076_220)"/>
    <path d="M303.992 488.722C297.798 484.901 298.158 515.682 291.637 530.22C285.116 544.759 285.345 549.982 296.899 544.053C308.453 538.126 305.822 489.851 303.992 488.722Z" fill="white"/>
    <path d="M229.429 607.047H317.862H363.981H411.231C420.292 607.047 418.644 597.9 418.644 586.721V584.972C418.644 573.793 411.231 564.646 402.171 564.646H317.862H238.489C229.429 564.646 222.016 573.793 222.016 584.972V586.721C222.017 597.9 220.369 607.047 229.429 607.047Z" fill="url(#paint14_linear_10076_220)"/>
    <path opacity="0.42" d="M315.47 567.337C317.381 571.688 320.225 581.694 309.02 583C305.458 583.414 241.423 585.846 236.407 581.16C231.391 576.474 232.585 565.815 242.617 565.815C252.649 565.815 314.118 564.257 315.47 567.337Z" fill="url(#paint15_linear_10076_220)"/>
    <path d="M363.981 607.047H411.231C420.292 607.047 418.644 597.9 418.644 586.721V584.972C418.644 573.793 411.231 564.646 402.171 564.646H400.889C402.525 570.386 402.569 577.276 394.937 579.987C380.866 584.988 348.263 585.846 348.263 585.846H222.016V586.72C222.016 597.899 220.368 607.045 229.429 607.045H317.862L363.981 607.047Z" fill="#D58D21"/>
    <path d="M208.838 632H297.271H343.39H431.824C440.884 632 439.237 622.854 439.237 611.675V609.925C439.237 598.745 431.824 589.6 422.764 589.6H343.391H297.272H217.899C208.838 589.6 201.426 598.746 201.426 609.925V611.675C201.425 622.854 199.777 632 208.838 632Z" fill="url(#paint16_linear_10076_220)"/>
    <path opacity="0.42" d="M312.455 597.15C316.596 603.006 319.069 620.221 304.563 620.725C300.081 620.882 219.446 620.089 214.417 617.902C205.954 614.223 208.961 594.575 221.487 594.575C234.015 594.576 307.767 590.52 312.455 597.15Z" fill="url(#paint17_linear_10076_220)"/>
    <path d="M439.214 609.925C439.214 598.746 431.801 589.6 422.741 589.6H416.328C419.48 594.567 418.762 607.047 412.641 615.082C399.459 632.385 205.953 628.886 201.331 622.243C201.553 628.075 202.891 632 208.816 632H297.249H343.368H431.801C440.861 632 439.214 622.854 439.214 611.675V609.925Z" fill="#D58D21"/>
    <path d="M255.83 567.343C250.574 567.664 247.474 577.445 248.28 580.454C249.085 583.465 266.126 583.153 269.215 575.813C272.303 568.472 265.096 566.778 255.83 567.343Z" fill="white"/>
    <path d="M241.839 594.586C233.474 595.095 228.541 610.662 229.823 615.453C231.105 620.244 258.225 619.747 263.141 608.066C268.057 596.382 256.586 593.688 241.839 594.586Z" fill="white"/>
    <path d="M439.236 611.674V609.924C439.236 598.745 431.823 589.599 422.763 589.599H418.676C418.659 588.656 418.645 587.7 418.645 586.72V584.97C418.645 573.792 411.232 564.645 402.172 564.645H400.935C392.519 562.05 365.337 551.244 355.528 517.783C343.86 477.979 355.528 450.752 355.528 450.752H355.508H328.072H328.052H320.33C320.33 450.752 332.133 484.17 332.133 512.153C332.133 554.922 320.33 564.665 320.33 564.665C320.436 564.66 320.54 564.645 320.648 564.645H360.607C365.332 564.645 369.198 569.415 369.198 575.245C369.198 581.075 365.332 585.845 360.607 585.845H320.648C320.541 585.845 320.437 585.83 320.33 585.825V589.599H371.257C380.317 589.599 387.729 598.745 387.729 609.924V611.674C387.729 622.852 380.317 631.999 371.257 631.999H431.823C440.884 632 439.236 622.854 439.236 611.674Z" fill="#D58D21"/>
    <path d="M221.815 395.743C221.424 395.532 221.029 395.364 220.624 395.293C196.877 391.089 155.364 378.608 133.877 341.876C112.71 305.691 111.309 275.037 113.648 261.891H145.082C145.086 261.891 145.089 261.891 145.092 261.891C145.095 261.891 145.099 261.891 145.102 261.891H145.32V261.878C154.652 261.725 162.251 252.27 162.251 240.721V200.069C162.251 188.423 154.529 178.896 145.092 178.896C135.655 178.896 127.932 188.423 127.932 200.069V211.078H104.823C93.9947 211.078 84.3867 219.276 78.4617 233.569C66.3367 262.815 68.4437 316.845 100.481 371.616C127.697 418.144 172.639 436.41 203.463 443.581V457.494C203.463 469.138 211.185 478.666 220.623 478.666C230.061 478.666 237.783 469.138 237.783 457.494V416.841C237.784 405.692 230.701 396.507 221.815 395.743Z" fill="url(#paint18_linear_10076_220)"/>
    <path d="M222.85 395.765C226.883 399.479 229.518 405.392 229.518 412.042V454.387C229.518 465.566 222.105 474.712 213.045 474.712H211.672C211.152 474.712 210.64 474.675 210.132 474.616C212.879 477.146 216.267 478.664 219.938 478.664H221.311C230.371 478.664 237.784 469.518 237.784 458.339V415.994C237.784 405.456 231.195 396.731 222.85 395.765Z" fill="#D58D21"/>
    <path d="M112.94 268.113C113.08 265.747 113.323 263.657 113.638 261.892H145.083H145.312V261.877C154.645 261.723 162.243 252.269 162.243 240.719V231.404C162.243 242.954 154.644 252.408 145.312 252.562V252.577H145.083H113.638C112.961 256.382 112.602 261.663 112.94 268.113Z" fill="url(#paint19_linear_10076_220)"/>
    <path d="M203.454 434.264C172.63 427.093 127.688 408.825 100.472 362.298C80.9536 328.93 72.5597 295.849 71.7097 268.468C70.7487 297.468 78.6836 334.364 100.472 371.613C127.688 418.141 172.63 436.408 203.454 443.58V434.264Z" fill="#D58D21"/>
    <path opacity="0.42" d="M85.5278 252.363C91.4528 238.07 101.061 229.873 111.89 229.873H134.999V218.863C134.999 207.218 142.721 197.69 152.159 197.69C155.715 197.69 159.027 199.044 161.774 201.354V200.069C161.774 188.423 154.052 178.896 144.615 178.896C135.177 178.896 127.455 188.423 127.455 200.069V211.078H104.346C93.5178 211.078 83.9098 219.276 77.9838 233.569C67.3828 259.141 67.6627 303.659 89.3147 351.053C75.3397 310.903 76.3428 274.52 85.5278 252.363Z" fill="url(#paint20_linear_10076_220)"/>
    <path d="M133.398 341.878C130.751 337.352 128.413 332.914 126.353 328.585C129.598 338.488 134.294 349.307 140.942 360.672C162.429 397.404 203.943 409.883 227.689 414.088C228.067 414.155 228.437 414.302 228.803 414.49C231.93 414.59 234.838 415.795 237.305 417.772V415.996C237.305 404.995 230.122 395.981 221.259 395.697C220.893 395.509 220.523 395.362 220.145 395.295C196.398 391.088 154.885 378.61 133.398 341.878Z" fill="#D58D21"/>
    <path d="M128.963 214.465C128.963 214.465 107.685 212.136 96.8738 217.854C86.0628 223.57 80.2288 235.003 76.9688 253.636C73.7088 272.268 85.5627 232.054 97.3887 226.535C112.811 219.337 130.12 226.117 131.493 221.459C132.866 216.8 128.963 214.465 128.963 214.465Z" fill="white"/>
    <path d="M142.519 183.553C129.752 185.175 133.081 194.775 136.342 198.162C139.602 201.55 154.188 182.071 142.519 183.553Z" fill="white"/>
    <path d="M562.19 233.568C556.265 219.275 546.657 211.077 535.828 211.077H512.719V200.067C512.719 188.422 504.997 178.894 495.56 178.894C486.122 178.894 478.4 188.422 478.4 200.067V240.719C478.4 252.268 485.998 261.723 495.331 261.876V261.89H495.55C495.553 261.89 495.557 261.89 495.56 261.89C495.563 261.89 495.567 261.89 495.57 261.89H527.004C529.343 275.034 527.942 305.688 506.776 341.875C485.288 378.607 443.775 391.088 420.028 395.291C419.623 395.363 419.227 395.531 418.837 395.742C409.951 396.506 402.868 405.69 402.868 416.841V457.493C402.868 469.137 410.59 478.665 420.028 478.665C429.466 478.665 437.187 469.137 437.187 457.493V443.58C468.012 436.409 512.953 418.143 540.17 371.615C572.208 316.844 574.314 262.815 562.19 233.568Z" fill="url(#paint21_linear_10076_220)"/>
    <path d="M417.802 395.765C413.769 399.479 411.134 405.392 411.134 412.042V454.387C411.134 465.566 418.547 474.712 427.607 474.712H428.98C429.499 474.712 430.012 474.675 430.52 474.616C427.773 477.146 424.385 478.664 420.715 478.664H419.342C410.282 478.664 402.869 469.518 402.869 458.339V415.994C402.869 405.456 409.457 396.731 417.802 395.765Z" fill="#D58D21"/>
    <path d="M527.712 268.113C527.572 265.747 527.328 263.657 527.014 261.892H495.569H495.341V261.877C486.008 261.723 478.41 252.269 478.41 240.719V231.404C478.41 242.954 486.009 252.408 495.341 252.562V252.577H495.569H527.014C527.692 256.382 528.051 261.663 527.712 268.113Z" fill="#D58D21"/>
    <path d="M437.198 434.264C468.022 427.093 512.964 408.825 540.18 362.298C559.698 328.93 568.092 295.849 568.942 268.468C569.902 297.468 561.968 334.364 540.18 371.613C512.964 418.141 468.022 436.408 437.198 443.58V434.264Z" fill="#D58D21"/>
    <path opacity="0.42" d="M555.124 252.363C549.198 238.07 539.591 229.872 528.762 229.872H505.653V218.863C505.653 207.217 497.931 197.689 488.493 197.689C484.937 197.689 481.625 199.044 478.878 201.354V200.068C478.878 188.423 486.6 178.895 496.037 178.895C505.475 178.895 513.197 188.423 513.197 200.068V211.078H536.305C547.133 211.078 556.741 219.276 562.667 233.569C573.268 259.141 572.988 303.658 551.336 351.052C565.313 310.902 564.309 274.52 555.124 252.363Z" fill="url(#paint22_linear_10076_220)"/>
    <path d="M507.255 341.878C509.902 337.352 512.24 332.914 514.3 328.585C511.055 338.488 506.359 349.307 499.711 360.672C478.224 397.404 436.711 409.883 412.964 414.088C412.586 414.155 412.216 414.302 411.85 414.49C408.723 414.59 405.815 415.795 403.348 417.772V415.996C403.348 404.995 410.531 395.981 419.394 395.697C419.76 395.509 420.13 395.362 420.508 395.295C444.254 391.088 485.768 378.61 507.255 341.878Z" fill="#D58D21"/>
    <path d="M511.69 214.465C511.69 214.465 532.968 212.136 543.779 217.854C554.59 223.57 560.424 235.003 563.684 253.636C566.944 272.268 555.09 232.054 543.264 226.535C527.842 219.337 510.533 226.117 509.16 221.459C507.787 216.8 511.69 214.465 511.69 214.465Z" fill="white"/>
    <path d="M498.134 183.553C510.901 185.175 507.572 194.775 504.311 198.162C501.051 201.55 486.465 182.071 498.134 183.553Z" fill="white"/>
    <path d="M320.33 467.454C407.767 467.454 478.649 360.822 478.649 229.286V175.226H162.012V229.286C162.012 360.822 232.893 467.454 320.33 467.454Z" fill="url(#paint23_linear_10076_220)"/>
    <path d="M162.012 175.225V190.239C206.932 190.045 362.193 189.453 419.648 190.295C468.725 191.014 466.266 217.017 466.266 217.017C466.266 348.553 395.413 450.946 307.976 450.946C270.615 450.946 236.284 431.466 209.206 398.905C237.789 441.288 277.026 467.454 320.331 467.454C407.768 467.454 478.65 360.822 478.65 229.286V175.225H162.012Z" fill="#D58D21"/>
    <path d="M486.734 112.5H398.301H242.36H153.927C144.867 112.5 146.514 121.647 146.514 132.825V134.575C146.514 145.754 153.927 178.895 162.987 178.895H242.36H398.301H477.674C486.734 178.895 494.147 145.755 494.147 134.575V132.825C494.147 121.647 495.795 112.5 486.734 112.5Z" fill="url(#paint24_linear_10076_220)"/>
    <path d="M486.734 112.5H485.025C484.991 114.193 484.948 115.963 484.948 117.798V119.548C484.948 130.728 477.535 163.868 468.474 163.868H389.101H233.16H153.787C153.251 163.868 152.721 163.743 152.197 163.523C155.093 172.042 158.868 178.897 162.987 178.897H242.36H398.301H477.674C486.734 178.897 494.147 145.755 494.147 134.576V132.827C494.147 121.647 495.795 112.5 486.734 112.5Z" fill="#D58D21"/>
    <path opacity="0.42" d="M175.683 198.559C163.007 203.137 174.86 300.565 190.674 338.96C211.952 390.622 255.647 448.024 303.264 421.111C376.021 379.988 361.305 258.526 348.95 220.394C337.424 184.82 189.754 193.477 175.683 198.559Z" fill="url(#paint25_linear_10076_220)"/>
    <path opacity="0.42" d="M323.231 213.996C347.615 221.503 259.091 429.31 214.891 357.042C189.326 315.241 124.172 152.717 323.231 213.996Z" fill="url(#paint26_linear_10076_220)"/>
    <path opacity="0.42" d="M168.602 162.38C168.602 162.38 155.732 169.073 152.3 152.176C148.868 135.28 152.3 117.665 164.655 117.665C177.01 117.665 472.157 117.665 472.157 117.665C472.157 117.665 522.949 125.711 410.039 124.44C297.128 123.169 198.288 128.252 190.052 138.414C181.815 148.577 175.784 157.578 168.602 162.38Z" fill="url(#paint27_linear_10076_220)"/>
    <path d="M172.962 121.477C162.718 114.377 150.06 136.73 158.134 151.583C165.832 165.743 182.127 127.827 172.962 121.477Z" fill="white"/>
    <path d="M212.016 122.761C195.852 122.761 183.413 128.251 195.543 130.369C207.672 132.486 260.589 122.761 212.016 122.761Z" fill="white"/>
    <path d="M486.734 112.5H398.301H320.331C320.331 112.5 335.177 117.968 335.177 137.422C335.177 152.491 328.012 169.092 324.781 175.813C324.751 175.876 324.718 175.945 324.688 176.007C324.591 176.204 324.504 176.386 324.416 176.565C324.387 176.624 324.355 176.692 324.327 176.748C324.236 176.934 324.153 177.1 324.072 177.262C324.053 177.3 324.031 177.344 324.012 177.383C323.522 178.36 323.231 178.895 323.231 178.895C323.231 178.895 375.031 195.013 375.031 289.006C375.031 382.938 323.3 467.287 323.232 467.398C409.329 465.067 478.649 359.362 478.649 229.286V178.756C487.259 176.514 494.147 145.35 494.147 134.575V132.825C494.147 121.647 495.794 112.5 486.734 112.5Z" fill="#D58D21"/>
    <path opacity="0.7" d="M124.386 68.1094C132.577 85.7918 162.978 135.342 162.978 135.342C162.978 135.342 208.775 191.331 210.512 193.191C212.245 195.054 171.617 127.78 171.617 127.78L124.386 68.1094Z" fill="white"/>
    <path opacity="0.7" d="M124.71 189.783C137.036 175.243 173.365 130.669 173.365 130.669C173.365 130.669 203.662 71.0952 204.401 69.4073C204.613 68.8928 165.666 125.469 165.666 125.469L124.71 189.783Z" fill="white"/>
    <path d="M176.749 120.006C165.52 110.858 167.584 85.0678 167.479 77.7979C167.479 79.8942 167.479 82.2459 167.479 84.7642C167.451 83.6488 167.395 82.4569 167.395 82.1941C167.395 80.6444 167.395 79.1711 167.395 77.7979C167.364 79.8942 167.225 83.1935 166.793 87.0185C166.793 87.0185 163.479 112.857 157.583 118.238C144.248 130.444 110.693 128.139 123.579 128.428C167.009 129.376 167.009 173.84 167.396 188.399C167.396 186.433 167.396 183.928 167.396 181.041C167.424 181.58 167.459 182.015 167.48 182.302C167.48 184.665 167.48 186.732 167.48 188.399C168.392 153.894 168.273 132.07 206.197 129.15C218.721 128.147 189.826 130.669 176.749 120.006Z" fill="white"/>
    <path opacity="0.7" d="M36.7417 241.311C49.4727 241.246 87.9767 234.893 87.9767 234.893C87.9767 234.893 135.833 218.236 137.504 217.504C139.176 216.776 87.1458 224.865 87.1458 224.865L36.7417 241.311Z" fill="white"/>
    <path opacity="0.7" d="M103.053 287.268C99.8256 271.536 89.3806 224.516 89.3806 224.516C89.3806 224.516 68.4846 176.793 67.8466 175.54C67.6476 175.169 83.6276 228.917 83.6276 228.917L103.053 287.268Z" fill="white"/>
    <path d="M84.8646 217.663C75.6226 223.487 62.3766 211.98 58.3826 209.305C59.5226 210.101 60.8016 210.996 62.1726 211.952C61.5546 211.551 60.8856 211.145 60.7426 211.045C59.8996 210.456 59.0986 209.896 58.3506 209.374C59.4796 210.196 61.2206 211.566 63.1376 213.376C63.1376 213.376 75.9346 225.936 76.6216 232.865C78.1956 248.546 64.1936 275.459 69.2466 264.897C86.2616 229.29 110.45 246.182 118.516 251.393C117.447 250.647 116.085 249.696 114.514 248.599C114.818 248.78 115.067 248.917 115.232 249.008C116.517 249.907 117.642 250.691 118.548 251.324C100.125 237.461 88.2076 229.268 101.027 196.751C105.239 185.996 95.6336 210.885 84.8646 217.663Z" fill="white"/>
    <path d="M317.794 521.52L248.183 574.743L317.794 627.966L387.404 574.743L317.794 521.52Z" fill="url(#paint28_linear_10076_220)"/>
    <path opacity="0.49" d="M317.794 526.576L384.097 577.271L387.404 574.743L317.794 521.52L248.183 574.743L251.49 577.271L317.794 526.576Z" fill="white"/>
    <path opacity="0.25" d="M317.276 627.629L386.446 574.743L317.276 521.854V627.629Z" fill="#B55F09"/>
    <path opacity="0.49" d="M317.839 626.883L316.525 562.555L317.794 521.52L250.328 573.104L294.937 587.785L317.839 626.883Z" fill="white"/>
    <path opacity="0.41" d="M317.794 522.531L248.183 574.743L317.794 571.372L387.404 574.743L317.794 522.531Z" fill="white"/>
    <path d="M317.833 543.673C303.909 543.673 292.619 557.217 292.619 573.916C292.619 590.625 303.909 604.167 317.833 604.167C331.76 604.167 343.046 590.624 343.046 573.916C343.046 557.218 331.76 543.673 317.833 543.673Z" fill="url(#paint29_linear_10076_220)"/>
    <g opacity="0.35">
        <path d="M317.794 606.182C303.114 606.182 291.169 591.835 291.169 574.201C291.169 556.568 303.113 542.222 317.794 542.222C332.473 542.222 344.416 556.568 344.416 574.201C344.416 591.834 332.474 606.182 317.794 606.182ZM317.794 545.125C304.412 545.125 293.523 558.168 293.523 574.2C293.523 590.234 304.412 603.277 317.794 603.277C331.176 603.277 342.064 590.234 342.064 574.2C342.065 558.168 331.176 545.125 317.794 545.125Z" fill="white"/>
    </g>
    <path d="M317.833 543.673C310.439 543.673 303.789 547.49 299.177 553.576C303.677 548.561 309.703 545.493 316.333 545.493C330.255 545.493 341.543 559.031 341.543 575.737C341.543 583.572 339.061 590.714 334.988 596.084C339.946 590.56 343.046 582.675 343.046 573.916C343.046 557.218 331.76 543.673 317.833 543.673Z" fill="#B06518"/>
    <path opacity="0.25" d="M302.13 591.811C302.13 572.291 313.422 561.566 327.342 561.566C333.031 561.566 338.281 563.827 342.497 567.641C340.087 553.948 329.961 543.674 317.83 543.674C303.908 543.674 292.62 557.218 292.62 573.917C292.62 583.805 296.572 592.576 302.68 598.096C302.325 596.069 302.13 593.968 302.13 591.811Z" fill="#B55F09"/>
    <defs>
        <linearGradient id="paint0_linear_10076_220" x1="14.5794" y1="82.367" x2="242.636" y2="105.066" gradientUnits="userSpaceOnUse">
            <stop stop-color="#F7E436"/>
            <stop offset="1" stop-color="#CE7C1D"/>
        </linearGradient>
        <linearGradient id="paint1_linear_10076_220" x1="21.9651" y1="89.6199" x2="237.681" y2="89.6199" gradientUnits="userSpaceOnUse">
            <stop stop-color="white"/>
            <stop offset="1" stop-color="white"/>
        </linearGradient>
        <linearGradient id="paint2_linear_10076_220" x1="1.9616" y1="197.342" x2="239.339" y2="191.991" gradientUnits="userSpaceOnUse">
            <stop stop-color="#F7E436"/>
            <stop offset="1" stop-color="#CE7C1D"/>
        </linearGradient>
        <linearGradient id="paint3_linear_10076_220" x1="0.00646251" y1="181.357" x2="240.349" y2="181.357" gradientUnits="userSpaceOnUse">
            <stop stop-color="white"/>
            <stop offset="1" stop-color="white"/>
        </linearGradient>
        <linearGradient id="paint4_linear_10076_220" x1="18.4238" y1="336.284" x2="269.54" y2="301.958" gradientUnits="userSpaceOnUse">
            <stop stop-color="#F7E436"/>
            <stop offset="1" stop-color="#CE7C1D"/>
        </linearGradient>
        <linearGradient id="paint5_linear_10076_220" x1="5.16002" y1="296.539" x2="274.779" y2="296.539" gradientUnits="userSpaceOnUse">
            <stop stop-color="white"/>
            <stop offset="1" stop-color="white"/>
        </linearGradient>
        <linearGradient id="paint6_linear_10076_220" x1="621.007" y1="82.3671" x2="392.951" y2="105.066" gradientUnits="userSpaceOnUse">
            <stop stop-color="#F7E436"/>
            <stop offset="1" stop-color="#CE7C1D"/>
        </linearGradient>
        <linearGradient id="paint7_linear_10076_220" x1="397.906" y1="89.6199" x2="613.621" y2="89.6199" gradientUnits="userSpaceOnUse">
            <stop stop-color="white"/>
            <stop offset="1" stop-color="white"/>
        </linearGradient>
        <linearGradient id="paint8_linear_10076_220" x1="633.625" y1="197.342" x2="396.248" y2="191.991" gradientUnits="userSpaceOnUse">
            <stop stop-color="#F7E436"/>
            <stop offset="1" stop-color="#CE7C1D"/>
        </linearGradient>
        <linearGradient id="paint9_linear_10076_220" x1="395.237" y1="181.357" x2="635.58" y2="181.357" gradientUnits="userSpaceOnUse">
            <stop stop-color="white"/>
            <stop offset="1" stop-color="white"/>
        </linearGradient>
        <linearGradient id="paint10_linear_10076_220" x1="617.162" y1="336.284" x2="366.047" y2="301.958" gradientUnits="userSpaceOnUse">
            <stop stop-color="#F7E436"/>
            <stop offset="1" stop-color="#CE7C1D"/>
        </linearGradient>
        <linearGradient id="paint11_linear_10076_220" x1="360.808" y1="296.539" x2="630.426" y2="296.539" gradientUnits="userSpaceOnUse">
            <stop stop-color="white"/>
            <stop offset="1" stop-color="white"/>
        </linearGradient>
        <linearGradient id="paint12_linear_10076_220" x1="234.017" y1="515.604" x2="406.643" y2="515.604" gradientUnits="userSpaceOnUse">
            <stop stop-color="#F7E436"/>
            <stop offset="1" stop-color="#CE7C1D"/>
        </linearGradient>
        <linearGradient id="paint13_linear_10076_220" x1="280.205" y1="498.807" x2="323.74" y2="535.9" gradientUnits="userSpaceOnUse">
            <stop stop-color="white"/>
            <stop offset="1" stop-color="white"/>
        </linearGradient>
        <linearGradient id="paint14_linear_10076_220" x1="313.39" y1="532.618" x2="330.618" y2="628.121" gradientUnits="userSpaceOnUse">
            <stop stop-color="#F7E436"/>
            <stop offset="1" stop-color="#CE7C1D"/>
        </linearGradient>
        <linearGradient id="paint15_linear_10076_220" x1="273.643" y1="565.973" x2="285.039" y2="601.829" gradientUnits="userSpaceOnUse">
            <stop stop-color="white"/>
            <stop offset="1" stop-color="white"/>
        </linearGradient>
        <linearGradient id="paint16_linear_10076_220" x1="316.469" y1="504.685" x2="324.821" y2="664.318" gradientUnits="userSpaceOnUse">
            <stop stop-color="#F7E436"/>
            <stop offset="1" stop-color="#CE7C1D"/>
        </linearGradient>
        <linearGradient id="paint17_linear_10076_220" x1="260.143" y1="596.289" x2="275.759" y2="645.424" gradientUnits="userSpaceOnUse">
            <stop stop-color="white"/>
            <stop offset="1" stop-color="white"/>
        </linearGradient>
        <linearGradient id="paint18_linear_10076_220" x1="154.708" y1="171.91" x2="154.708" y2="423.153" gradientUnits="userSpaceOnUse">
            <stop stop-color="#F7E436"/>
            <stop offset="1" stop-color="#CE7C1D"/>
        </linearGradient>
        <linearGradient id="paint19_linear_10076_220" x1="112.811" y1="249.758" x2="162.242" y2="249.758" gradientUnits="userSpaceOnUse">
            <stop stop-color="#F7E436"/>
            <stop offset="1" stop-color="#CE7C1D"/>
        </linearGradient>
        <linearGradient id="paint20_linear_10076_220" x1="71.1545" y1="264.974" x2="161.773" y2="264.974" gradientUnits="userSpaceOnUse">
            <stop stop-color="white"/>
            <stop offset="1" stop-color="white"/>
        </linearGradient>
        <linearGradient id="paint21_linear_10076_220" x1="485.944" y1="171.91" x2="485.944" y2="423.153" gradientUnits="userSpaceOnUse">
            <stop stop-color="#F7E436"/>
            <stop offset="1" stop-color="#CE7C1D"/>
        </linearGradient>
        <linearGradient id="paint22_linear_10076_220" x1="702.885" y1="-205.616" x2="465.159" y2="192.893" gradientUnits="userSpaceOnUse">
            <stop stop-color="white"/>
            <stop offset="1" stop-color="white"/>
        </linearGradient>
        <linearGradient id="paint23_linear_10076_220" x1="162.012" y1="321.339" x2="478.649" y2="321.339" gradientUnits="userSpaceOnUse">
            <stop stop-color="#F7E436"/>
            <stop offset="1" stop-color="#CE7C1D"/>
        </linearGradient>
        <linearGradient id="paint24_linear_10076_220" x1="146.396" y1="145.698" x2="494.264" y2="145.698" gradientUnits="userSpaceOnUse">
            <stop stop-color="#F7E436"/>
            <stop offset="1" stop-color="#CE7C1D"/>
        </linearGradient>
        <linearGradient id="paint25_linear_10076_220" x1="170.341" y1="310.889" x2="359.16" y2="310.889" gradientUnits="userSpaceOnUse">
            <stop stop-color="white"/>
            <stop offset="1" stop-color="white"/>
        </linearGradient>
        <linearGradient id="paint26_linear_10076_220" x1="184.011" y1="286.315" x2="327.405" y2="286.315" gradientUnits="userSpaceOnUse">
            <stop stop-color="white"/>
            <stop offset="1" stop-color="white"/>
        </linearGradient>
        <linearGradient id="paint27_linear_10076_220" x1="151.043" y1="140.676" x2="483.549" y2="140.676" gradientUnits="userSpaceOnUse">
            <stop stop-color="white"/>
            <stop offset="1" stop-color="white"/>
        </linearGradient>
        <linearGradient id="paint28_linear_10076_220" x1="317.157" y1="534.861" x2="322.011" y2="734.882" gradientUnits="userSpaceOnUse">
            <stop stop-color="#F7E436"/>
            <stop offset="1" stop-color="#CE7C1D"/>
        </linearGradient>
        <linearGradient id="paint29_linear_10076_220" x1="322.159" y1="600.416" x2="312.046" y2="559.736" gradientUnits="userSpaceOnUse">
            <stop stop-color="#F7E436"/>
            <stop offset="1" stop-color="#D58D21"/>
        </linearGradient>
    </defs>
</svg>
