<svg width="26" height="26" viewBox="0 0 26 26" fill="none" xmlns="http://www.w3.org/2000/svg">
    <path d="M12.1407 3.42903C12.186 3.34671 12.2526 3.27806 12.3335 3.23026C12.4144 3.18245 12.5066 3.15723 12.6006 3.15723C12.6945 3.15723 12.7868 3.18245 12.8677 3.23026C12.9486 3.27806 13.0152 3.34671 13.0605 3.42903L16.1603 9.31353C16.2342 9.44979 16.3374 9.56799 16.4624 9.65965C16.5874 9.75131 16.7311 9.81415 16.8833 9.84366C17.0355 9.87317 17.1923 9.86863 17.3426 9.83035C17.4928 9.79206 17.6326 9.721 17.7521 9.62225L22.2432 5.77485C22.3294 5.70473 22.4357 5.66377 22.5466 5.65787C22.6576 5.65198 22.7676 5.68144 22.8608 5.74203C22.9539 5.80262 23.0254 5.8912 23.0651 5.99504C23.1047 6.09887 23.1103 6.21259 23.0812 6.31983L20.1053 17.0787C20.0446 17.2988 19.9137 17.4932 19.7326 17.6323C19.5514 17.7714 19.3298 17.8476 19.1015 17.8494H6.10074C5.87218 17.8478 5.65038 17.7717 5.46902 17.6326C5.28765 17.4935 5.15663 17.299 5.09584 17.0787L2.12103 6.32088C2.09189 6.21364 2.09753 6.09992 2.13714 5.99609C2.17675 5.89225 2.24828 5.80367 2.34144 5.74308C2.4346 5.68249 2.54458 5.65303 2.65555 5.65892C2.76652 5.66482 2.87276 5.70578 2.95897 5.7759L7.44901 9.6233C7.5685 9.72205 7.70838 9.79311 7.8586 9.8314C8.00881 9.86968 8.16564 9.87423 8.31782 9.84471C8.47 9.8152 8.61376 9.75236 8.73878 9.6607C8.8638 9.56904 8.96697 9.45084 9.04089 9.31458L12.1407 3.42903Z" stroke="#D08700" stroke-width="2.10011" stroke-linecap="round" stroke-linejoin="round"/>
    <path d="M5.25024 22.0508H19.951" stroke="#D08700" stroke-width="2.10011" stroke-linecap="round" stroke-linejoin="round"/>
</svg>
