<svg width="148" height="321" viewBox="0 0 148 321" fill="none" xmlns="http://www.w3.org/2000/svg">
    <g filter="url(#filter0_i_0_1)">
        <ellipse cx="74" cy="10.5" rx="74" ry="10.5" transform="matrix(1 0 0 -1 0 321)" fill="url(#paint0_radial_0_1)" fill-opacity="0.03"/>
    </g>
    <path d="M113.532 168.6C116.89 161.566 117.331 155.397 111.624 149.649C112.748 136.798 111.764 120.764 108.427 108.885C108.825 106.362 107.31 73.847 106.762 74.263C103.511 63.3345 96.3912 64.1827 92.1946 63.0158C92.2107 62.9672 92.2215 62.9132 92.2376 62.8646C94.0269 62.1947 95.1392 60.2986 94.7254 58.4024C94.7254 58.4024 94.7362 58.4024 94.7416 58.4024C94.7684 58.6996 94.8598 58.7914 94.8222 58.424C96.5954 58.8508 97.8957 56.8899 97.9064 55.2908C97.9064 55.2908 97.9064 55.2962 97.9064 55.3016C97.7291 54.7344 97.2778 56.301 96.8372 56.274C93.7905 56.6576 94.6395 52.6708 96.3697 51.5202C101.528 48.5922 105.483 40.743 99.5023 36.5456C99.5561 36.524 99.8731 36.3943 99.6528 36.3997C100.598 36.1296 101.394 35.2329 101.329 34.2119C101.308 34.0498 101.265 33.8986 101.2 33.7473C101.2 33.7473 101.2 33.7527 101.2 33.7581C100.808 33.0072 101.227 35.8325 98.8092 34.8547C95.2144 31.6945 99.0886 23.9533 96.3751 19.3453C96.7942 -13.3319 41.1053 -0.836855 56.3386 28.826C53.5122 31.5757 56.9941 34.455 57.2843 37.4748C57.3004 38.8307 58.6169 41.2346 59.9494 39.5005C60.073 45.0971 63.0606 47.1391 67.6225 51.142C67.6333 51.7038 67.644 52.2765 67.644 52.8653C68.7832 60.1473 63.4206 61.1197 55.4735 63.1293C51.7283 64.0422 44.4421 63.6749 41.4116 74.2522C40.8742 73.874 39.3375 106.319 39.7458 108.874C39.3751 107.432 34.3672 134.804 36.5487 149.682C34.4693 151.918 31.6268 156.38 32.0405 159.978C33.6149 166.817 34.0824 168.303 36.8819 171.036C38.5261 172.478 40.3853 178.869 42.497 178.388C43.3728 177.799 43.1418 176.595 42.814 175.73C43.0665 175.968 43.2761 176.103 43.4158 176.076C44.8344 176.055 44.8236 173.818 43.2009 171.76C44.6141 171.284 43.8564 169.572 42.8731 168.567C43.7866 166.914 41.5298 165.294 39.6438 163.392C39.9554 162.058 40.1112 157.509 41.4169 159.367C42.3734 161.35 42.2552 165.439 45.3932 166.504C45.9681 166.758 46.7795 166.693 46.5592 165.769C44.6517 162.528 45.7908 154.041 43.1364 150.416C45.3341 135.361 50.2775 129.861 50.1754 109.706C50.1754 107.751 51.6101 103.315 52.185 98.5183C61.3734 134.026 40.1327 127.43 48.8643 184.233C54.6084 215.965 56.9082 220.519 56.3279 224.02C55.7529 227.515 51.4865 244.115 58.7082 272.757C61.3358 283.497 61.7441 292.043 60.5996 294.155C59.4497 296.267 59.9387 297.65 60.3524 298.628C61.6044 301.097 46.5162 317.254 54.9362 316.611C55.4305 316.936 56.4944 317.751 57.7249 316.611C58.547 317.832 60.1053 317.265 60.8414 316.692C61.5776 317.994 63.1412 317.67 64.2051 316.86C71.4161 321.781 71.8244 309.837 71.099 298.876C71.7653 296.624 71.4859 294.387 70.7713 292.205C69.9492 289.52 70.1157 284.156 71.099 273.903C74.323 244.386 70.465 192.218 73.8126 163.462C78.3906 192.126 73.6084 244.359 77.1064 273.903C78.0951 284.156 78.2563 289.52 77.4342 292.205C76.7195 294.344 76.4401 296.602 77.0849 298.785C76.3971 310.534 76.8968 321.635 84.0003 316.86C84.0595 316.892 84.1186 316.963 84.1723 316.979C85.2308 317.697 86.6709 317.93 87.3694 316.692C88.1109 317.265 89.6692 317.832 90.4859 316.611C91.7164 317.751 92.7803 316.936 93.2747 316.611C93.769 316.287 93.9356 317.265 95.0801 316.449C95.6712 315.979 95.827 315.191 95.7625 314.467C95.8485 314.532 95.8162 314.429 95.7625 314.407C95.7303 314.002 95.6335 313.575 95.5153 313.176C94.4353 309.184 87.4823 301.523 87.8691 298.628C88.2829 297.65 88.7718 296.267 87.6219 294.155C85.0481 290.816 90.4537 269.116 92.0603 260.511C93.5971 250.998 94.1881 241.274 93.1081 231.68C92.5117 225.835 90.9427 223.517 92.689 217.283C100.647 189.522 105.305 142.108 95.3488 126.993C91.8239 120.737 94.8329 103.791 96.0634 99.9445C96.6384 104.742 98.0408 107.751 98.0408 109.701C97.9333 129.607 102.791 135.317 105.026 150.016C105.048 150.173 105.064 150.324 105.085 150.476C102.474 154.106 103.602 162.549 101.7 165.764C101.641 166.077 101.662 166.509 102.022 166.606C105.757 166.558 105.902 161.42 106.842 159.357C108.148 157.504 108.304 162.052 108.615 163.387C106.724 165.288 104.478 166.909 105.386 168.562C104.403 169.567 103.645 171.284 105.058 171.76C103.436 173.823 103.425 176.055 104.843 176.076C104.983 176.103 105.193 175.973 105.44 175.736C105.112 176.595 104.886 177.805 105.757 178.394C107.654 179.058 109.669 172.689 111.372 171.041L113.489 168.762C113.51 168.713 113.537 168.654 113.564 168.589L113.532 168.6ZM80.3143 52.1036C80.5399 51.9361 80.7602 51.7687 80.9806 51.5958C81.045 51.7741 81.0558 52.055 81.1847 52.1792C81.6898 53.708 82.9687 56.7278 80.5561 57.0411C80.4164 55.9175 80.3734 54.7398 80.3358 53.5892C80.3196 53.0868 80.3143 52.5898 80.3143 52.109V52.1036ZM82.211 57.8622C82.4743 57.7434 82.7161 57.5921 82.9311 57.4085C83.3985 58.5267 83.8982 59.6557 84.801 60.4822C84.9031 60.5795 85.0052 60.6713 85.1126 60.7631C83.189 59.9474 81.6039 59.0021 80.9107 57.9433C81.3782 58.0351 81.8886 58.0027 82.2057 57.8622H82.211Z" fill="#E3E7EE"/>
    <defs>
        <filter id="filter0_i_0_1" x="0" y="300" width="148" height="25" filterUnits="userSpaceOnUse" color-interpolation-filters="sRGB">
            <feFlood flood-opacity="0" result="BackgroundImageFix"/>
            <feBlend mode="normal" in="SourceGraphic" in2="BackgroundImageFix" result="shape"/>
            <feColorMatrix in="SourceAlpha" type="matrix" values="0 0 0 0 0 0 0 0 0 0 0 0 0 0 0 0 0 0 127 0" result="hardAlpha"/>
            <feOffset dy="4"/>
            <feGaussianBlur stdDeviation="14.5"/>
            <feComposite in2="hardAlpha" operator="arithmetic" k2="-1" k3="1"/>
            <feColorMatrix type="matrix" values="0 0 0 0 0 0 0 0 0 0 0 0 0 0 0 0 0 0 0.25 0"/>
            <feBlend mode="normal" in2="shape" result="effect1_innerShadow_0_1"/>
        </filter>
        <radialGradient id="paint0_radial_0_1" cx="0" cy="0" r="1" gradientUnits="userSpaceOnUse" gradientTransform="translate(74 10.5) rotate(180) scale(74 10.5)">
            <stop stop-color="#BBBBBB"/>
            <stop offset="1" stop-color="#0E0E0E"/>
        </radialGradient>
    </defs>
</svg>
