<svg width="24" height="24" viewBox="0 0 24 24" fill="none" xmlns="http://www.w3.org/2000/svg">
    <path d="M6.68555 3.47803C10.1589 2.48568 13.841 2.48573 17.3145 3.47803C18.8655 3.92118 20.0782 5.13407 20.5215 6.68506C21.5138 10.1585 21.5138 13.8405 20.5215 17.314C20.0783 18.8651 18.8656 20.0778 17.3145 20.521C13.841 21.5133 10.159 21.5134 6.68555 20.521C5.13455 20.0777 3.92167 18.865 3.47852 17.314C2.48622 13.8406 2.48616 10.1585 3.47852 6.68506C3.92172 5.13406 5.13455 3.92123 6.68555 3.47803ZM16.7656 5.40088C13.6512 4.5111 10.3488 4.51104 7.23438 5.40088C6.34801 5.65429 5.65478 6.34753 5.40137 7.23389C4.51153 10.3483 4.51159 13.6507 5.40137 16.7651C5.65473 17.6515 6.34803 18.3447 7.23438 18.5981C10.3489 19.488 13.6511 19.488 16.7656 18.5981C17.6521 18.3448 18.3452 17.6516 18.5986 16.7651C19.4885 13.6507 19.4885 10.3484 18.5986 7.23389C18.3452 6.34754 17.652 5.65424 16.7656 5.40088Z" fill="#676C75"/>
    <path fill-rule="evenodd" clip-rule="evenodd" d="M6.68553 3.47873C10.1592 2.48626 13.8413 2.48626 17.315 3.47873C18.8661 3.92191 20.0786 5.13439 20.5218 6.68553C21.5142 10.1592 21.5142 13.8413 20.5218 17.315C20.0786 18.8661 18.8661 20.0786 17.315 20.5218C13.8413 21.5142 10.1592 21.5142 6.68553 20.5218C5.13439 20.0786 3.92191 18.8661 3.47873 17.315C2.48626 13.8413 2.48626 10.1592 3.47873 6.68553C3.92191 5.13439 5.13439 3.92191 6.68553 3.47873ZM6.82877 7.2577C6.93863 7.09292 7.10945 6.97852 7.30365 6.93968L7.85821 6.82877C10.5926 6.2819 13.4081 6.2819 16.1425 6.82877L16.697 6.93968C16.8912 6.97852 17.0621 7.09292 17.1719 7.2577C17.6736 8.01019 17.6736 8.9905 17.1719 9.74299C17.0621 9.90777 16.8912 10.0222 16.697 10.061L16.1425 10.1719C15.1039 10.3796 14.0535 10.5085 13.0003 10.5584V9.00034H11.0003V10.5584C9.94719 10.5085 8.89684 10.3796 7.85821 10.1719L7.30365 10.061C7.10945 10.0222 6.93863 9.90777 6.82877 9.74299C6.32712 8.9905 6.32712 8.01019 6.82877 7.2577Z" fill="#676C75"/>
</svg>
